<svg width="46" height="56" viewBox="0 0 46 56" fill="none" xmlns="http://www.w3.org/2000/svg">
<path d="M39.2788 24.3636C39.2788 37.0909 22.9998 48 22.9998 48C22.9998 48 6.7207 37.0909 6.7207 24.3636C6.7207 20.0237 8.43581 15.8616 11.4887 12.7928C14.5416 9.72402 18.6823 8 22.9998 8C27.3173 8 31.4579 9.72402 34.5108 12.7928C37.5637 15.8616 39.2788 20.0237 39.2788 24.3636Z" stroke="#F89A03" stroke-width="2" stroke-linecap="round" stroke-linejoin="round"/>
<path d="M22.9998 29.8182C25.9967 29.8182 28.4261 27.3761 28.4261 24.3636C28.4261 21.3512 25.9967 18.9091 22.9998 18.9091C20.0029 18.9091 17.5734 21.3512 17.5734 24.3636C17.5734 27.3761 20.0029 29.8182 22.9998 29.8182Z" stroke="#F89A03" stroke-width="2" stroke-linecap="round" stroke-linejoin="round"/>
</svg>
