<svg width="46" height="56" viewBox="0 0 46 56" fill="none" xmlns="http://www.w3.org/2000/svg">
<path d="M42.9596 37.9477V43.9693C42.9618 44.5283 42.8473 45.0816 42.6234 45.5938C42.3994 46.106 42.071 46.5658 41.659 46.9437C41.2471 47.3216 40.7608 47.6093 40.2313 47.7884C39.7017 47.9675 39.1406 48.034 38.5838 47.9837C32.4073 47.3126 26.4744 45.202 21.2617 41.8216C16.4119 38.7399 12.3002 34.6281 9.21845 29.7784C5.82623 24.542 3.71518 18.5802 3.05633 12.3759C3.00617 11.8208 3.07214 11.2614 3.25003 10.7333C3.42792 10.2051 3.71383 9.71974 4.08957 9.30813C4.46531 8.89652 4.92264 8.56765 5.43244 8.34247C5.94224 8.11728 6.49335 8.00072 7.05067 8.00019H13.0723C14.0464 7.99061 14.9907 8.33556 15.7293 8.97074C16.4679 9.60593 16.9504 10.488 17.0867 11.4526C17.3408 13.3796 17.8122 15.2717 18.4917 17.0928C18.7618 17.8113 18.8202 18.592 18.6601 19.3427C18.5001 20.0933 18.1282 20.7823 17.5885 21.328L15.0393 23.8772C17.8967 28.9023 22.0574 33.063 27.0826 35.9204L29.6317 33.3713C30.1775 32.8316 30.8665 32.4597 31.6171 32.2996C32.3677 32.1395 33.1485 32.198 33.8669 32.468C35.688 33.1476 37.5801 33.6189 39.5072 33.8731C40.4822 34.0106 41.3727 34.5017 42.0092 35.253C42.6458 36.0043 42.984 36.9633 42.9596 37.9477Z" stroke="#F89A03" stroke-width="2" stroke-linecap="round" stroke-linejoin="round"/>
</svg>
