<svg width="25" height="17" viewBox="0 0 25 17" fill="none" xmlns="http://www.w3.org/2000/svg">
<path fill-rule="evenodd" clip-rule="evenodd" d="M4.48828 1C4.48828 0.585786 4.82407 0.25 5.23828 0.25H23.7383C24.1525 0.25 24.4883 0.585786 24.4883 1C24.4883 1.41421 24.1525 1.75 23.7383 1.75H5.23828C4.82407 1.75 4.48828 1.41421 4.48828 1ZM0.488281 8C0.488281 7.58579 0.824068 7.25 1.23828 7.25H18.7383C19.1525 7.25 19.4883 7.58579 19.4883 8C19.4883 8.41421 19.1525 8.75 18.7383 8.75H1.23828C0.824068 8.75 0.488281 8.41421 0.488281 8ZM4.48828 16C4.48828 15.5858 4.82407 15.25 5.23828 15.25H23.7383C24.1525 15.25 24.4883 15.5858 24.4883 16C24.4883 16.4142 24.1525 16.75 23.7383 16.75H5.23828C4.82407 16.75 4.48828 16.4142 4.48828 16Z" fill="#F89A03"/>
</svg>
