<svg width="32" height="27" viewBox="0 0 32 27" fill="none" xmlns="http://www.w3.org/2000/svg">
<g clip-path="url(#clip0_3356_1013)">
<path d="M15.841 4.78117C16.9644 4.78117 17.881 3.86928 17.881 2.74117V2.0361C17.881 0.912685 16.9691 -0.00390625 15.841 -0.00390625C14.7129 -0.00390625 13.8057 0.907985 13.8057 2.0361V2.74117C13.8057 3.86458 14.7176 4.78117 15.841 4.78117ZM14.4966 2.0408C14.4966 1.29812 15.0983 0.696464 15.841 0.696464C16.5836 0.696464 17.1853 1.29812 17.1853 2.0408V2.74587C17.1853 3.48854 16.5836 4.0902 15.841 4.0902C15.0983 4.0902 14.4966 3.48854 14.4966 2.74587V2.0408Z" fill="#F89A03"/>
<path d="M17.1148 4.86328H14.5719C13.0113 4.86328 11.7422 6.13241 11.7422 7.69296V9.56375C11.7422 9.75647 11.8973 9.91158 12.09 9.91158C12.2827 9.91158 12.4379 9.75647 12.4379 9.56375V7.69296C12.4379 6.51315 13.3968 5.55895 14.5719 5.55895H17.1148C18.2946 5.55895 19.2488 6.51785 19.2488 7.69296V9.56375C19.2488 9.75647 19.404 9.91158 19.5967 9.91158C19.7894 9.91158 19.9445 9.75647 19.9445 9.56375V7.69296C19.9445 6.13241 18.6754 4.86328 17.1148 4.86328Z" fill="#F89A03"/>
<path d="M13.5754 7.73047C13.3827 7.73047 13.2275 7.88558 13.2275 8.0783V9.56365C13.2275 9.75637 13.3827 9.91149 13.5754 9.91149C13.7681 9.91149 13.9232 9.75637 13.9232 9.56365V8.0783C13.9232 7.88558 13.7681 7.73047 13.5754 7.73047Z" fill="#F89A03"/>
<path d="M18.4545 9.56365V8.0783C18.4545 7.88558 18.2993 7.73047 18.1066 7.73047C17.9139 7.73047 17.7588 7.88558 17.7588 8.0783V9.56365C17.7588 9.75637 17.9139 9.91149 18.1066 9.91149C18.2993 9.91149 18.4545 9.75637 18.4545 9.56365Z" fill="#F89A03"/>
<path d="M15.841 16.1406C14.7176 16.1406 13.8057 17.0525 13.8057 18.1806V18.8857C13.8057 20.0091 14.7176 20.9257 15.841 20.9257C16.9644 20.9257 17.881 20.0138 17.881 18.8857V18.1806C17.881 17.0572 16.9691 16.1406 15.841 16.1406ZM17.1853 18.881C17.1853 19.6237 16.5836 20.2253 15.841 20.2253C15.0983 20.2253 14.4966 19.6237 14.4966 18.881V18.1759C14.4966 17.4333 15.0983 16.8316 15.841 16.8316C16.5836 16.8316 17.1853 17.4333 17.1853 18.1759V18.881Z" fill="#F89A03"/>
<path d="M17.1148 21H14.5719C13.0113 21 11.7422 22.2691 11.7422 23.8297V25.7005C11.7422 25.8932 11.8973 26.0483 12.09 26.0483C12.2827 26.0483 12.4379 25.8932 12.4379 25.7005V23.8297C12.4379 22.6499 13.3968 21.6957 14.5719 21.6957H17.1148C18.2946 21.6957 19.2488 22.6546 19.2488 23.8297V25.7005C19.2488 25.8932 19.404 26.0483 19.5967 26.0483C19.7894 26.0483 19.9445 25.8932 19.9445 25.7005V23.8297C19.9445 22.2691 18.6754 21 17.1148 21Z" fill="#F89A03"/>
<path d="M13.5754 23.875C13.3827 23.875 13.2275 24.0301 13.2275 24.2228V25.7082C13.2275 25.9009 13.3827 26.056 13.5754 26.056C13.7681 26.056 13.9232 25.9009 13.9232 25.7082V24.2228C13.9232 24.0301 13.7681 23.875 13.5754 23.875Z" fill="#F89A03"/>
<path d="M18.1105 23.875C17.9178 23.875 17.7627 24.0301 17.7627 24.2228V25.7082C17.7627 25.9009 17.9178 26.056 18.1105 26.056C18.3032 26.056 18.4584 25.9009 18.4584 25.7082V24.2228C18.4584 24.0301 18.3032 23.875 18.1105 23.875Z" fill="#F89A03"/>
<path d="M4.09878 12.8515C5.22219 12.8515 6.13408 11.9396 6.13408 10.8115V10.1064C6.13408 8.983 5.22219 8.06641 4.09878 8.06641C2.97537 8.06641 2.06348 8.9783 2.06348 10.1064V10.8115C2.06348 11.9349 2.97537 12.8515 4.09878 12.8515ZM2.75445 10.1111C2.75445 9.36844 3.35611 8.76678 4.09878 8.76678C4.84145 8.76678 5.44311 9.36844 5.44311 10.1111V10.8162C5.44311 11.5589 4.84145 12.1605 4.09878 12.1605C3.35611 12.1605 2.75445 11.5589 2.75445 10.8162V10.1111Z" fill="#F89A03"/>
<path d="M7.50665 15.7594V17.6302C7.50665 17.8229 7.66176 17.978 7.85448 17.978C8.0472 17.978 8.20232 17.8229 8.20232 17.6302V15.7594C8.20232 14.1988 6.93319 12.9297 5.37264 12.9297H2.82968C1.26913 12.9297 0 14.1988 0 15.7594V17.6302C0 17.8229 0.155115 17.978 0.347835 17.978C0.540554 17.978 0.695669 17.8229 0.695669 17.6302V15.7594C0.695669 14.5796 1.65457 13.6254 2.82968 13.6254H5.37264C6.55245 13.6254 7.50665 14.5843 7.50665 15.7594Z" fill="#F89A03"/>
<path d="M1.83319 15.8047C1.64047 15.8047 1.48535 15.9598 1.48535 16.1525V17.6379C1.48535 17.8306 1.64047 17.9857 1.83319 17.9857C2.02591 17.9857 2.18102 17.8306 2.18102 17.6379V16.1525C2.18102 15.9598 2.02591 15.8047 1.83319 15.8047Z" fill="#F89A03"/>
<path d="M6.02148 16.1447V17.6301C6.02148 17.8228 6.1766 17.9779 6.36932 17.9779C6.56204 17.9779 6.71715 17.8228 6.71715 17.6301V16.1447C6.71715 15.952 6.56204 15.7969 6.36932 15.7969C6.1766 15.7969 6.02148 15.952 6.02148 16.1447Z" fill="#F89A03"/>
<path d="M25.5469 10.1064V10.8115C25.5469 11.9349 26.4588 12.8515 27.5869 12.8515C28.715 12.8515 29.6269 11.9396 29.6269 10.8115V10.1064C29.6269 8.983 28.715 8.06641 27.5869 8.06641C26.4588 8.06641 25.5469 8.9783 25.5469 10.1064ZM28.9312 10.1064V10.8115C28.9312 11.5542 28.3296 12.1558 27.5869 12.1558C26.8442 12.1558 26.2425 11.5542 26.2425 10.8115V10.1064C26.2425 9.36374 26.8442 8.76208 27.5869 8.76208C28.3296 8.76208 28.9312 9.36374 28.9312 10.1064Z" fill="#F89A03"/>
<path d="M28.856 12.9375H26.3131C24.7525 12.9375 23.4834 14.2066 23.4834 15.7672V17.638C23.4834 17.8307 23.6385 17.9858 23.8312 17.9858C24.024 17.9858 24.1791 17.8307 24.1791 17.638V15.7672C24.1791 14.5874 25.138 13.6332 26.3131 13.6332H28.856C30.0359 13.6332 30.99 14.5921 30.99 15.7672V17.638C30.99 17.8307 31.1452 17.9858 31.3379 17.9858C31.5306 17.9858 31.6857 17.8307 31.6857 17.638V15.7672C31.6857 14.2066 30.4166 12.9375 28.856 12.9375Z" fill="#F89A03"/>
<path d="M25.3166 17.9779C25.5093 17.9779 25.6644 17.8228 25.6644 17.6301V16.1447C25.6644 15.952 25.5093 15.7969 25.3166 15.7969C25.1239 15.7969 24.9688 15.952 24.9688 16.1447V17.6301C24.9688 17.8228 25.1239 17.9779 25.3166 17.9779Z" fill="#F89A03"/>
<path d="M29.8527 15.8047C29.66 15.8047 29.5049 15.9598 29.5049 16.1525V17.6379C29.5049 17.8306 29.66 17.9857 29.8527 17.9857C30.0454 17.9857 30.2006 17.8306 30.2006 17.6379V16.1525C30.2006 15.9598 30.0454 15.8047 29.8527 15.8047Z" fill="#F89A03"/>
<path d="M10.2465 23.1983H6.63658C5.40976 23.1983 4.40856 22.1971 4.40856 20.9703V17.633C4.40856 17.4403 4.25344 17.2852 4.06073 17.2852C3.86801 17.2852 3.71289 17.4403 3.71289 17.633V20.9703C3.71289 22.5826 5.02432 23.8893 6.63188 23.8893H10.2418C10.4346 23.8893 10.5897 23.7342 10.5897 23.5415C10.5897 23.3488 10.4346 23.1936 10.2418 23.1936L10.2465 23.1983Z" fill="#F89A03"/>
<path d="M27.5495 17.2891C27.3568 17.2891 27.2016 17.4442 27.2016 17.6369V20.9742C27.2016 22.2011 26.2004 23.2023 24.9736 23.2023H21.6457C21.453 23.2023 21.2979 23.3574 21.2979 23.5501C21.2979 23.7428 21.453 23.8979 21.6457 23.8979H24.9736C26.5859 23.8979 27.8926 22.5865 27.8926 20.9789V17.6416C27.8926 17.4489 27.7375 17.2938 27.5448 17.2938L27.5495 17.2891Z" fill="#F89A03"/>
<path d="M19.5912 2.70269H24.9732C26.2 2.70269 27.2012 3.70389 27.2012 4.93071V6.64638C27.2012 6.8391 27.3564 6.99422 27.5491 6.99422C27.7418 6.99422 27.8969 6.8391 27.8969 6.64638V4.93071C27.8969 3.31845 26.5855 2.01172 24.9779 2.01172H19.5959C19.4032 2.01172 19.248 2.16683 19.248 2.35955C19.248 2.55227 19.4032 2.70739 19.5959 2.70739L19.5912 2.70269Z" fill="#F89A03"/>
<path d="M4.06091 6.9911C4.25363 6.9911 4.40874 6.83599 4.40874 6.64327V4.9276C4.40874 3.70078 5.40994 2.69958 6.63676 2.69958H12.094C12.2867 2.69958 12.4418 2.54446 12.4418 2.35174C12.4418 2.15902 12.2867 2.00391 12.094 2.00391H6.63676C5.0245 2.00391 3.71777 3.31534 3.71777 4.9229V6.63857C3.71777 6.83129 3.87289 6.9864 4.06561 6.9864L4.06091 6.9911Z" fill="#F89A03"/>
</g>
<defs>
<clipPath id="clip0_3356_1013">
<rect width="31.6812" height="26.05" fill="white"/>
</clipPath>
</defs>
</svg>
