<svg width="33" height="36" viewBox="0 0 33 36" fill="none" xmlns="http://www.w3.org/2000/svg">
<path d="M6.93901 25.4961H6.05833C6.00624 25.2428 5.9151 25.0202 5.78489 24.8285C5.65705 24.6367 5.5008 24.4757 5.31614 24.3455C5.13385 24.2129 4.93143 24.1135 4.7089 24.0472C4.48636 23.9809 4.25435 23.9478 4.01287 23.9478C3.57253 23.9478 3.17362 24.0591 2.81614 24.2816C2.46103 24.5041 2.17812 24.832 1.96742 25.2653C1.75909 25.6985 1.65492 26.23 1.65492 26.8597C1.65492 27.4895 1.75909 28.021 1.96742 28.4542C2.17812 28.8874 2.46103 29.2153 2.81614 29.4379C3.17362 29.6604 3.57253 29.7717 4.01287 29.7717C4.25435 29.7717 4.48636 29.7385 4.7089 29.6722C4.93143 29.6059 5.13385 29.5077 5.31614 29.3775C5.5008 29.2449 5.65705 29.0827 5.78489 28.891C5.9151 28.6969 6.00624 28.4743 6.05833 28.2234H6.93901C6.87272 28.5951 6.75198 28.9277 6.57679 29.2212C6.4016 29.5148 6.1838 29.7646 5.92338 29.9705C5.66297 30.1741 5.37059 30.3292 5.04625 30.4357C4.72428 30.5423 4.37982 30.5955 4.01287 30.5955C3.39261 30.5955 2.841 30.444 2.35804 30.141C1.87509 29.8379 1.49512 29.4071 1.21813 28.8484C0.94114 28.2897 0.802646 27.6268 0.802646 26.8597C0.802646 26.0927 0.94114 25.4298 1.21813 24.8711C1.49512 24.3124 1.87509 23.8815 2.35804 23.5785C2.841 23.2754 3.39261 23.1239 4.01287 23.1239C4.37982 23.1239 4.72428 23.1772 5.04625 23.2837C5.37059 23.3903 5.66297 23.5465 5.92338 23.7525C6.1838 23.9561 6.4016 24.2047 6.57679 24.4982C6.75198 24.7894 6.87272 25.122 6.93901 25.4961ZM8.36213 30.4961V23.2234H9.24281V29.7148H12.6235V30.4961H8.36213ZM19.8403 26.8597C19.8403 27.6268 19.7018 28.2897 19.4248 28.8484C19.1478 29.4071 18.7678 29.8379 18.2849 30.141C17.8019 30.444 17.2503 30.5955 16.6301 30.5955C16.0098 30.5955 15.4582 30.444 14.9752 30.141C14.4923 29.8379 14.1123 29.4071 13.8353 28.8484C13.5583 28.2897 13.4198 27.6268 13.4198 26.8597C13.4198 26.0927 13.5583 25.4298 13.8353 24.8711C14.1123 24.3124 14.4923 23.8815 14.9752 23.5785C15.4582 23.2754 16.0098 23.1239 16.6301 23.1239C17.2503 23.1239 17.8019 23.2754 18.2849 23.5785C18.7678 23.8815 19.1478 24.3124 19.4248 24.8711C19.7018 25.4298 19.8403 26.0927 19.8403 26.8597ZM18.988 26.8597C18.988 26.23 18.8827 25.6985 18.672 25.2653C18.4636 24.832 18.1807 24.5041 17.8232 24.2816C17.4681 24.0591 17.0704 23.9478 16.6301 23.9478C16.1897 23.9478 15.7908 24.0591 15.4333 24.2816C15.0782 24.5041 14.7953 24.832 14.5846 25.2653C14.3763 25.6985 14.2721 26.23 14.2721 26.8597C14.2721 27.4895 14.3763 28.021 14.5846 28.4542C14.7953 28.8874 15.0782 29.2153 15.4333 29.4379C15.7908 29.6604 16.1897 29.7717 16.6301 29.7717C17.0704 29.7717 17.4681 29.6604 17.8232 29.4379C18.1807 29.2153 18.4636 28.8874 18.672 28.4542C18.8827 28.021 18.988 27.4895 18.988 26.8597ZM25.2984 25.0415C25.2558 24.6817 25.0829 24.4023 24.7799 24.2035C24.4769 24.0046 24.1052 23.9052 23.6649 23.9052C23.3429 23.9052 23.0612 23.9573 22.8197 24.0614C22.5806 24.1656 22.3936 24.3088 22.2586 24.4911C22.126 24.6734 22.0597 24.8806 22.0597 25.1126C22.0597 25.3067 22.1059 25.4736 22.1982 25.6133C22.2929 25.7506 22.4137 25.8654 22.5605 25.9577C22.7072 26.0477 22.8611 26.1223 23.0221 26.1815C23.1831 26.2383 23.3311 26.2844 23.466 26.32L24.2046 26.5188C24.394 26.5685 24.6047 26.6372 24.8367 26.7248C25.0711 26.8124 25.2948 26.9319 25.5079 27.0835C25.7233 27.2326 25.9009 27.4244 26.0406 27.6587C26.1803 27.8931 26.2501 28.1808 26.2501 28.5217C26.2501 28.9147 26.1471 29.2698 25.9411 29.587C25.7375 29.9042 25.4392 30.1564 25.0463 30.3434C24.6556 30.5304 24.181 30.6239 23.6222 30.6239C23.1014 30.6239 22.6504 30.5399 22.2693 30.3718C21.8905 30.2037 21.5922 29.9693 21.3744 29.6687C21.1589 29.368 21.037 29.0188 21.0086 28.6211H21.9177C21.9414 28.8957 22.0337 29.123 22.1947 29.3029C22.358 29.4805 22.564 29.613 22.8126 29.7006C23.0635 29.7859 23.3334 29.8285 23.6222 29.8285C23.9584 29.8285 24.2603 29.774 24.5278 29.6651C24.7953 29.5539 25.0072 29.4 25.1634 29.2035C25.3197 29.0046 25.3978 28.7726 25.3978 28.5075C25.3978 28.266 25.3303 28.0695 25.1954 27.918C25.0605 27.7665 24.8829 27.6433 24.6627 27.5487C24.4426 27.454 24.2046 27.3711 23.949 27.3001L23.0541 27.0444C22.4859 26.881 22.0361 26.6478 21.7046 26.3448C21.3732 26.0418 21.2075 25.6452 21.2075 25.1552C21.2075 24.748 21.3176 24.3929 21.5377 24.0898C21.7603 23.7844 22.0586 23.5477 22.4326 23.3796C22.809 23.2092 23.2293 23.1239 23.6933 23.1239C24.162 23.1239 24.5787 23.208 24.9433 23.3761C25.3079 23.5418 25.5967 23.7691 25.8097 24.0579C26.0252 24.3467 26.1388 24.6746 26.1507 25.0415H25.2984ZM27.6981 30.4961V23.2234H32.0873V24.0046H28.5787V26.462H31.86V27.2433H28.5787V29.7148H32.1441V30.4961H27.6981Z" fill="#1D1D1D"/>
<path fill-rule="evenodd" clip-rule="evenodd" d="M9.53119 0.53033C9.82409 0.237437 10.299 0.237437 10.5919 0.53033L22.9662 12.9047C23.2591 13.1976 23.2591 13.6725 22.9662 13.9654C22.6733 14.2583 22.1985 14.2583 21.9056 13.9654L9.53119 1.59099C9.2383 1.2981 9.2383 0.823223 9.53119 0.53033Z" fill="#F89A03"/>
<path fill-rule="evenodd" clip-rule="evenodd" d="M22.9658 0.53217C23.2587 0.825063 23.2587 1.29994 22.9658 1.59283L10.5914 13.9672C10.2985 14.2601 9.82363 14.2601 9.53074 13.9672C9.23784 13.6743 9.23784 13.1994 9.53074 12.9065L21.9051 0.53217C22.198 0.239277 22.6729 0.239277 22.9658 0.53217Z" fill="#F89A03"/>
</svg>
