<svg width="24" height="25" viewBox="0 0 24 25" fill="none" xmlns="http://www.w3.org/2000/svg">
<path d="M17 2.03125H7C4.23858 2.03125 2 4.26983 2 7.03125V17.0312C2 19.7927 4.23858 22.0312 7 22.0312H17C19.7614 22.0312 22 19.7927 22 17.0312V7.03125C22 4.26983 19.7614 2.03125 17 2.03125Z" stroke="#F89A03" stroke-width="2" stroke-linecap="round" stroke-linejoin="round"/>
<path d="M15.9997 11.3976C16.1231 12.2299 15.981 13.0799 15.5935 13.8267C15.206 14.5735 14.5929 15.1791 13.8413 15.5573C13.0898 15.9356 12.2382 16.0672 11.4075 15.9336C10.5768 15.7999 9.80947 15.4077 9.21455 14.8128C8.61962 14.2179 8.22744 13.4505 8.09377 12.6199C7.96011 11.7892 8.09177 10.9375 8.47003 10.186C8.84829 9.4345 9.45389 8.82139 10.2007 8.43389C10.9475 8.04639 11.7975 7.90423 12.6297 8.02765C13.4786 8.15353 14.2646 8.54911 14.8714 9.15595C15.4782 9.76279 15.8738 10.5487 15.9997 11.3976Z" stroke="#F89A03" stroke-width="2" stroke-linecap="round" stroke-linejoin="round"/>
<path d="M17.5 6.53125H17.51" stroke="#F89A03" stroke-width="2" stroke-linecap="round" stroke-linejoin="round"/>
</svg>
