<svg width="24" height="24" viewBox="0 0 24 24" fill="none" xmlns="http://www.w3.org/2000/svg">
<g clip-path="url(#clip0_3570_877)">
<path d="M24 19.0707C24 21.7937 21.7937 24 19.0706 24H4.93021C2.20746 24 0 21.7937 0 19.0707V4.93013C0 2.20782 2.20746 0 4.93021 0H19.0706C21.7937 0 24 2.20782 24 4.93013V19.0707Z" fill="#F89A03"/>
<path d="M3.59616 9.08458H7.19845V20.673H3.59616V9.08458ZM5.39789 3.32422C6.54897 3.32422 7.48485 4.26087 7.48485 5.41388C7.48485 6.56689 6.54897 7.50041 5.39789 7.50041C4.24682 7.50041 3.31055 6.5665 3.31055 5.41388C3.31055 4.26126 4.24369 3.32422 5.39789 3.32422Z" fill="white"/>
<path d="M9.45703 9.08288H12.9122V10.6682H12.9615C13.442 9.75622 14.6169 8.79688 16.369 8.79688C20.0166 8.79688 20.69 11.196 20.69 14.3154V20.6713H17.0896V15.0361C17.0896 13.6922 17.0666 11.9629 15.2175 11.9629C13.3684 11.9629 13.0574 13.4285 13.0574 14.9399V20.6717H9.45703V9.08288Z" fill="white"/>
</g>
<defs>
<clipPath id="clip0_3570_877">
<rect width="24" height="24" fill="white"/>
</clipPath>
</defs>
</svg>
