<svg width="103" height="53" viewBox="0 0 103 53" fill="none" xmlns="http://www.w3.org/2000/svg">
<g clip-path="url(#clip0_3554_1383)">
<path d="M1.37398 12.1933C0.126732 12.9039 -0.352919 14.4658 0.275834 15.7591L0.735763 16.7054L1.19569 17.6517C1.82445 18.945 3.34663 19.5278 4.67316 18.9798C7.52464 17.8021 12.0813 14.8729 18.1878 16.2678C18.5858 16.3588 18.9128 15.9498 18.7337 15.5814L15.7182 9.37846L12.8754 3.53037C12.6967 3.16323 12.176 3.16837 12.0009 3.53749C9.31979 9.19015 4.05546 10.6654 1.37398 12.1933Z" fill="#F89A03"/>
<path d="M10.5346 23.1509L9.61911 23.8025C9.1221 24.1562 8.43379 24.0387 8.08115 23.5406L3.78125 17.4635L6.49586 15.5312L10.7958 21.6084C11.1484 22.1069 11.0312 22.7973 10.5346 23.1509Z" fill="#F89A03"/>
<path d="M16.8347 10.8264C17.536 10.2558 17.6433 9.22313 17.0744 8.51979C16.5055 7.81645 15.4759 7.70882 14.7746 8.27939C14.0734 8.84996 13.966 9.88267 14.5349 10.586C15.1038 11.2893 16.1334 11.397 16.8347 10.8264Z" fill="#F89A03"/>
<path d="M24.5651 5.90869L19.6941 8.29074C19.4085 8.43039 19.0638 8.31131 18.9245 8.02488C18.7853 7.73845 18.904 7.39267 19.1896 7.25302L24.0606 4.87097C24.3462 4.73132 24.691 4.8504 24.8302 5.13683C24.9695 5.42326 24.8507 5.76904 24.5651 5.90869Z" fill="#F89A03"/>
<path d="M25.0066 13.1636C24.8741 13.2285 24.7171 13.2424 24.5668 13.1905L19.4429 11.4201C19.1423 11.3165 18.9826 10.9877 19.0863 10.6863C19.1897 10.3848 19.5175 10.2246 19.818 10.3286L24.9419 12.099C25.2425 12.2027 25.4023 12.5314 25.2985 12.8329C25.2468 12.9836 25.1392 13.0992 25.0066 13.1636Z" fill="#F89A03"/>
<path d="M17.3749 6.23549C17.2424 6.30038 17.0854 6.31422 16.9351 6.2624C16.6345 6.15874 16.4748 5.82998 16.5785 5.52852L18.3437 0.389377C18.4474 0.0879122 18.7748 -0.072315 19.0754 0.0317338C19.376 0.135387 19.5357 0.464149 19.432 0.765614L17.6668 5.90475C17.6151 6.05549 17.5074 6.17101 17.3749 6.23549Z" fill="#F89A03"/>
<path d="M19.6436 27.6175H23.1869V25.3474H19.6436V21.1763H23.364V18.9062H17.2051V34.7632H19.6436V27.6175Z" fill="#F89A03"/>
<path d="M28.2381 34.9921C30.9164 34.9921 32.2023 33.5556 32.2023 30.5168V23.1119C32.2023 20.0609 30.7894 18.6719 28.3927 18.6719C25.996 18.6719 24.5117 20.0573 24.5117 23.0938V30.5584C24.5117 33.5184 25.6686 34.9917 28.2381 34.9917V34.9921ZM26.9944 22.8726C26.9944 21.5303 27.4665 20.9 28.345 20.9C29.3343 20.9 29.7193 21.5959 29.7193 22.8548V30.8135C29.7193 32.2081 29.2952 32.7853 28.3477 32.7853C27.4685 32.7853 26.9944 32.1662 26.9944 30.8487V22.873V22.8726Z" fill="#F89A03"/>
<path d="M40.4224 32.5766H36.4463V18.9062H34.0078V34.7632H40.2149L40.4224 32.5766Z" fill="#F89A03"/>
<path d="M47.8306 32.5766H43.8545V18.9062H41.416V34.7632H47.6231L47.8306 32.5766Z" fill="#F89A03"/>
<path d="M52.2844 34.9921C54.9627 34.9921 56.2486 33.5556 56.2486 30.5168V23.1119C56.2486 20.0609 54.8357 18.6719 52.4386 18.6719C50.0415 18.6719 48.5576 20.0573 48.5576 23.0938V30.5584C48.5576 33.5184 49.7145 34.9917 52.284 34.9917L52.2844 34.9921ZM51.0407 22.8726C51.0407 21.5303 51.5128 20.9 52.3913 20.9C53.3806 20.9 53.7655 21.5959 53.7655 22.8548V30.8135C53.7655 32.2081 53.3415 32.7853 52.394 32.7853C51.5148 32.7853 51.0407 32.1662 51.0407 30.8487V22.873V22.8726Z" fill="#F89A03"/>
<path d="M61.8543 34.7628C62.3264 31.3446 63.0156 27.0466 63.3828 23.7146H63.4274C63.7654 26.9777 64.3851 31.207 64.8312 34.7628H67.3186L69.6549 18.9062H67.19C66.8248 22.4989 66.3621 27.3765 66.1755 30.4731H66.1254C65.8043 26.9754 65.1468 22.4973 64.6774 18.9062H62.3055C61.8567 22.3802 61.1963 27.2262 60.8338 30.5831H60.7893C60.6682 27.589 60.1806 22.328 59.8154 18.9062H57.2227L59.3878 34.7628H61.8543Z" fill="#F89A03"/>
<path d="M77.6753 34.9946C80.313 34.9946 81.4407 33.422 81.4407 30.9201V18.9062H78.9995V30.9704C78.9995 32.0441 78.687 32.7847 77.7199 32.7847C76.7527 32.7847 76.3984 32.126 76.3984 30.9676V18.9062H73.96V30.9284C73.96 33.6309 75.1622 34.9946 77.6753 34.9946Z" fill="#F89A03"/>
<path d="M86.4472 34.9896C89.3973 34.9896 90.183 32.858 90.183 30.6085C90.183 27.9555 89.458 26.9367 87.0921 25.1818C85.7025 24.1618 85.4903 23.6131 85.4903 22.4931C85.4903 21.4423 85.6993 20.7512 86.4918 20.7512C87.2842 20.7512 87.4873 21.4194 87.4873 22.5236V23.3049H89.9049V22.4579C89.9049 20.7377 89.4545 18.6512 86.5363 18.6484C83.6829 18.6457 83.0522 20.7547 83.0522 22.8444C83.0522 25.1916 83.961 26.0529 85.6622 27.4C87.358 28.7416 87.724 29.2705 87.724 30.9749C87.724 32.0047 87.4779 32.9075 86.5277 32.9075C85.5774 32.9075 85.2481 32.2503 85.2481 31.0706V30.0906H82.8096V31.0314C82.8096 33.1203 83.5223 34.9892 86.4472 34.9892V34.9896Z" fill="#F89A03"/>
<path d="M96.8863 8.49219H26.6793V10.0747H96.8863C99.3875 10.0747 101.422 12.1157 101.422 14.6243V39.0216C101.422 41.5303 99.3875 43.5713 96.8863 43.5713H63.7753C62.579 43.5713 61.4544 44.0385 60.6087 44.8867L54.3886 51.1253C54.2028 51.3112 53.9563 51.4137 53.694 51.4137C53.4317 51.4137 53.1847 51.3112 52.9993 51.1249L46.7793 44.8863C45.9332 44.0381 44.8086 43.5709 43.6126 43.5709H10.5017C8.00046 43.5709 5.9655 41.5299 5.9655 39.0212V25.4415H4.3877V39.0212C4.3877 42.4026 7.13031 45.1534 10.5017 45.1534H43.6122C44.3869 45.1534 45.1155 45.456 45.6634 46.0055L51.8834 52.2441C52.367 52.7291 53.01 52.9962 53.694 52.9962C54.3779 52.9962 55.0209 52.7291 55.5045 52.2441L61.7246 46.0055C62.2725 45.456 63.001 45.1534 63.7757 45.1534H96.8866C100.258 45.1534 103.001 42.4026 103.001 39.0212V14.6243C103.001 11.243 100.258 8.49219 96.8866 8.49219H96.8863Z" fill="#F89A03"/>
</g>
<defs>
<clipPath id="clip0_3554_1383">
<rect width="103" height="53" fill="white"/>
</clipPath>
</defs>
</svg>
