<?xml version="1.0" encoding="UTF-8"?> <svg xmlns="http://www.w3.org/2000/svg" width="26" height="26" viewBox="0 0 26 26" fill="none"><path d="M13.0373 18.1392C12.4109 18.1392 11.8507 18.0265 11.3569 17.8011C10.863 17.5724 10.4719 17.2559 10.1836 16.8516C9.89524 16.4472 9.74278 15.9815 9.72621 15.4545H10.6658C10.6824 15.8258 10.7968 16.1506 11.0089 16.429C11.221 16.7041 11.5027 16.9195 11.854 17.0753C12.2054 17.2277 12.5965 17.304 13.0273 17.304C13.498 17.304 13.9123 17.2161 14.2702 17.0405C14.6315 16.8648 14.9132 16.6245 15.1154 16.3196C15.3209 16.0114 15.4237 15.6634 15.4237 15.2756C15.4237 14.8646 15.3192 14.5017 15.1104 14.1868C14.9016 13.8719 14.6017 13.6267 14.2106 13.451C13.8228 13.2753 13.3588 13.1875 12.8185 13.1875H12.2219V12.3523H12.8185C13.2594 12.3523 13.6488 12.2727 13.9869 12.1136C14.3282 11.9512 14.5967 11.7242 14.7923 11.4325C14.9878 11.1409 15.0856 10.7978 15.0856 10.4034C15.0856 10.0289 15.0011 9.6991 14.832 9.41406C14.663 9.12902 14.4244 8.9053 14.1161 8.7429C13.8112 8.58049 13.4549 8.49929 13.0472 8.49929C12.6528 8.49929 12.2915 8.57552 11.9634 8.72798C11.6353 8.88044 11.3701 9.09588 11.168 9.37429C10.9691 9.6527 10.863 9.98248 10.8498 10.3636H9.94993C9.96319 9.83333 10.109 9.36766 10.3874 8.96662C10.6692 8.56226 11.042 8.2474 11.506 8.02202C11.9734 7.79332 12.4904 7.67898 13.0572 7.67898C13.6571 7.67898 14.1758 7.80161 14.6133 8.04688C15.0508 8.29214 15.3888 8.61861 15.6275 9.02628C15.8694 9.43063 15.9904 9.87642 15.9904 10.3636C15.9904 10.9437 15.833 11.4408 15.5181 11.8551C15.2032 12.2661 14.779 12.5511 14.2454 12.7102V12.7749C14.895 12.9041 15.4054 13.1925 15.7766 13.6399C16.1512 14.084 16.3384 14.6293 16.3384 15.2756C16.3384 15.8191 16.1959 16.308 15.9109 16.7422C15.6258 17.1731 15.2347 17.5144 14.7376 17.7663C14.2437 18.0149 13.677 18.1392 13.0373 18.1392Z" fill="white"></path><circle cx="13" cy="13" r="12.5" stroke="#F89A03"></circle></svg> 