<?xml version="1.0" encoding="UTF-8"?> <svg xmlns="http://www.w3.org/2000/svg" width="26" height="26" viewBox="0 0 26 26" fill="none"><path d="M9.86106 18V17.3189L13.1871 13.5803C13.6212 13.0897 13.9709 12.6705 14.2361 12.3224C14.5012 11.9744 14.6934 11.6529 14.8128 11.358C14.9354 11.063 14.9967 10.7564 14.9967 10.4382C14.9967 10.0504 14.9056 9.71236 14.7233 9.42401C14.5443 9.13234 14.2974 8.9053 13.9825 8.7429C13.6676 8.58049 13.313 8.49929 12.9186 8.49929C12.501 8.49929 12.1347 8.58878 11.8199 8.76776C11.5083 8.94673 11.2664 9.192 11.094 9.50355C10.9217 9.8151 10.8355 10.1731 10.8355 10.5774H9.94558C9.94558 10.014 10.0748 9.51515 10.3334 9.08097C10.5952 8.64347 10.9515 8.30043 11.4023 8.05185C11.8563 7.80327 12.3701 7.67898 12.9434 7.67898C13.5102 7.67898 14.014 7.80161 14.4548 8.04688C14.8956 8.28883 15.242 8.61861 15.4939 9.03622C15.7458 9.45384 15.8717 9.92116 15.8717 10.4382C15.8717 10.8127 15.8054 11.1757 15.6729 11.527C15.5436 11.8783 15.3199 12.2694 15.0017 12.7003C14.6835 13.1312 14.2427 13.6581 13.6792 14.2812L11.1537 17.1001V17.1648H16.1899V18H9.86106Z" fill="white"></path><circle cx="13" cy="13" r="12.5" stroke="#F89A03"></circle></svg> 