<svg width="71" height="61" viewBox="0 0 71 61" fill="none" xmlns="http://www.w3.org/2000/svg">
<path d="M25.4494 61C25.271 60.9991 25.0958 60.9532 24.9397 60.8666C24.7836 60.78 24.6517 60.6554 24.5562 60.5044C24.2365 59.5351 24.2907 58.4808 24.7082 57.5497C25.1546 56.2445 25.6879 54.9708 26.3046 53.7373C26.8708 52.1455 26.9567 50.4216 26.5516 48.7811C26.3941 47.9143 26.1522 47.0652 25.8295 46.2458L25.3924 46.3983C24.2711 46.7986 23.1879 47.0845 23.1879 47.0845C23.1344 47.0973 23.0783 47.0932 23.0273 47.0727C22.9762 47.0523 22.9328 47.0164 22.9029 46.9701C22.8718 46.9254 22.8551 46.8722 22.8551 46.8176C22.8551 46.7631 22.8718 46.7099 22.9029 46.6651C23.0549 46.4936 24.2901 44.8923 25.1833 44.7589C25.2836 44.7466 25.3853 44.7574 25.4808 44.7904C25.5763 44.8235 25.663 44.8779 25.7344 44.9495C25.8894 45.1086 26.012 45.2963 26.0955 45.5023C27.3308 45.0067 27.5208 44.7398 27.5398 44.6827C27.5375 43.9406 27.3618 43.2093 27.0267 42.5477C26.6447 41.4981 26.1475 40.4943 25.5444 39.5549C25.0693 38.8687 24.8603 38.8496 24.8603 38.8496C23.855 39.1597 22.871 39.5354 21.9147 39.9743C19.8812 40.9274 19.7482 41.3277 19.7482 41.3658C19.7482 41.4039 19.7482 41.8805 19.8812 42.2618C19.9756 42.2746 20.0662 42.3071 20.1473 42.3571C20.9466 43.6893 21.452 45.1777 21.6296 46.7223C21.6296 47.5801 20.2043 49.3339 18.9501 50.6301C17.7693 51.9419 16.4359 53.1066 14.9782 54.0994C14.5221 54.3663 14.1801 54.3854 13.933 54.0994C13.686 53.8135 13.5719 53.3941 13.705 52.6316C12.296 54.3838 10.6744 55.9527 8.87798 57.3019C8.73646 57.3938 8.57147 57.4427 8.40288 57.4427C8.23429 57.4427 8.0693 57.3938 7.92778 57.3019C7.35767 56.9016 7.54771 55.6244 7.81376 54.1376C7.82286 53.9534 7.82286 53.7689 7.81376 53.5848C7.49069 53.7754 6.93958 54.1566 6.46448 54.4807C5.43657 55.4103 4.28543 56.193 3.04378 56.8063C2.77773 56.8063 2.37864 56.9397 2.1696 56.6919C1.96056 56.4441 2.1696 55.9104 2.41665 55.3004C2.6637 54.6904 2.94876 54.1566 2.83474 53.8326C2.80991 53.7668 2.81195 53.6939 2.84042 53.6297C2.86889 53.5654 2.92148 53.515 2.98677 53.4894C3.05484 53.4704 3.12754 53.4775 3.19074 53.5092C3.25395 53.5409 3.30316 53.595 3.32884 53.661C3.41834 54.326 3.27023 55.0013 2.91075 55.5672C2.77003 55.8262 2.66152 56.1015 2.58769 56.3869H2.91075C4.10824 55.8976 5.23859 55.257 6.27444 54.4807C7.68073 53.4894 8.0038 53.2988 8.17484 53.3941C8.22295 53.4186 8.265 53.4535 8.29788 53.4964C8.33077 53.5393 8.35366 53.589 8.36487 53.6419C8.37342 53.9824 8.33505 54.3224 8.25085 54.6522C8.1393 55.2067 8.05684 55.7666 8.0038 56.3297C8.0038 57.0922 8.0038 57.2638 8.13683 57.3019C8.26986 57.34 8.34587 57.3019 8.53591 57.3019C10.5289 55.7101 12.339 53.9007 13.933 51.9073C13.9824 51.8702 14.0424 51.8501 14.1041 51.8501C14.1657 51.8501 14.2257 51.8702 14.2751 51.9073C14.325 51.9384 14.3632 51.9851 14.3839 52.0403C14.4045 52.0955 14.4063 52.1559 14.3891 52.2123C14.3891 52.2123 14.2371 52.6888 14.1421 53.1845C14.047 53.6801 14.1421 54.1757 14.1421 54.2329C14.1421 54.2901 14.3321 54.2329 14.5982 54.0994C15.9884 53.1228 17.2635 51.9909 18.3989 50.7254C20.2993 48.7239 20.9455 47.5801 20.9265 47.2179C20.7508 45.8944 20.3659 44.6074 19.7862 43.4055C19.9298 44.4774 19.8522 45.5674 19.5582 46.608C18.3656 47.9969 16.9608 49.1872 15.3963 50.1345C13.7574 51.3139 11.9916 52.305 10.1322 53.0891C9.65714 53.2226 9.18204 53.3179 8.992 53.0891C8.80196 52.8604 9.20105 52.1932 10.2273 51.0304L11.2915 49.5626C10.6933 49.5743 10.0992 49.664 9.52411 49.8295C8.4979 50.0392 7.16763 50.3823 5.89437 50.7254C4.6211 51.0685 3.30984 51.4117 2.30263 51.6213C0.820324 51.9454 0.402238 51.9073 0.193195 51.7357C0.125826 51.6859 0.0727712 51.6191 0.0394 51.5421C0.00602886 51.4651 -0.0064744 51.3807 0.00315561 51.2973C0.00315561 50.8017 0.839327 50.3632 2.62569 49.5245C3.08179 49.3148 3.6139 49.067 3.84194 48.9336C3.53671 48.714 3.21233 48.5226 2.87275 48.3617C2.11259 47.9614 1.59948 47.6754 1.71351 47.2942C1.82753 46.9129 1.96056 46.9701 2.98677 46.7223C3.53788 46.5889 4.29804 46.4173 5.26724 46.2458L7.96579 45.7502C7.73775 45.5595 7.41468 45.2927 7.12962 45.0258C5.83735 43.863 5.78034 43.5389 5.81835 43.3102C5.85636 43.0814 6.5405 42.8717 10.3793 43.3102C11.4435 43.4245 12.7358 43.5771 13.2299 43.5771H13.3059L12.8498 43.1005C12.3747 42.643 11.9756 42.2427 12.0516 41.8614C12.0621 41.8005 12.0889 41.7435 12.129 41.6965C12.1691 41.6495 12.2212 41.6143 12.2797 41.5946C13.6505 41.54 15.0228 41.6553 16.3655 41.9377C17.2207 42.033 18.1139 42.1474 18.817 42.2618L19.3301 42.3571C19.3301 42.0902 19.2921 41.8614 19.2161 41.6708C19.2161 41.3277 19.3681 40.794 21.6106 39.7646C22.6123 39.2617 23.6473 38.8286 24.7082 38.4684C24.9933 38.4684 25.3164 38.5827 25.6964 39.0212C26.4013 40.0006 26.9703 41.0715 27.3878 42.2046C27.7299 43.0433 28.243 44.5111 27.9959 45.0258C27.9009 45.2545 27.5968 45.5786 26.3046 46.1123C26.635 46.9584 26.8894 47.8324 27.0647 48.7239C27.4764 50.4826 27.3708 52.3234 26.7607 54.0232C26.1581 55.2189 25.6374 56.4545 25.2023 57.7213C24.8339 58.526 24.7339 59.4285 24.9173 60.2947C24.9676 60.3744 25.038 60.4394 25.1215 60.4829C25.2049 60.5264 25.2984 60.547 25.3924 60.5425C27.2057 60.1503 28.9156 59.3772 30.4094 58.2741C32.6216 56.9595 34.6157 55.3066 36.3196 53.3751C37.8399 51.4688 39.1892 48.6667 38.8471 47.0083C38.8103 46.831 38.7393 46.6626 38.6381 46.5126C37.3078 47.6564 33.7921 47.4276 32.3478 46.8558C32.1388 46.8558 31.8917 46.6461 31.8537 46.3983C31.8536 46.327 31.8709 46.2567 31.904 46.1936C31.9371 46.1305 31.9851 46.0764 32.0437 46.0361C33.0937 45.7019 34.1923 45.5473 35.2934 45.5786C36.3763 45.5288 37.4613 45.6121 38.5241 45.8264C38.5769 45.7029 38.6041 45.57 38.6041 45.4356C38.6041 45.3013 38.5769 45.1683 38.5241 45.0448C38.163 43.9011 36.8137 40.5461 35.3694 37.2293C34.9893 36.3524 34.6473 35.5518 34.3242 34.8465C32.4469 36.4681 30.1044 37.4494 27.6348 37.6487H27.5588C25.817 37.6205 24.0846 37.9112 22.4468 38.5065C22.4143 38.5831 22.3577 38.6469 22.2856 38.6882C22.2135 38.7295 22.13 38.746 22.0477 38.7352C21.9874 38.7459 21.9253 38.7369 21.8705 38.7094C21.8157 38.6819 21.7713 38.6375 21.7436 38.5827C21.7166 38.54 21.7022 38.4904 21.7022 38.4398C21.7022 38.3891 21.7166 38.3395 21.7436 38.2968C21.7806 38.2387 21.8334 38.1924 21.8957 38.1634C21.2841 37.259 20.6177 36.3932 19.9002 35.5709C19.6532 35.2659 19.4061 34.9418 19.1211 34.6178C17.6973 33.2411 15.8984 32.319 13.952 31.9681C12.8198 31.7748 11.7507 31.3105 10.8354 30.6147C10.672 30.4709 10.553 30.2832 10.4924 30.0738C10.4318 29.8644 10.4321 29.642 10.4933 29.4328C10.8544 28.3844 13.1539 27.5266 17.9048 26.745C20.813 26.2178 23.8082 26.4676 26.5896 27.4694C28.1625 27.9736 29.5773 28.8803 30.6945 30.1C30.8551 30.3561 30.9648 30.6409 31.0175 30.9387C31.4292 30.7412 31.8631 30.594 32.3098 30.5003C31.5988 30.359 30.9409 30.0224 30.4094 29.5281C29.9441 29.0881 29.5702 28.5601 29.3092 27.9745C29.0483 27.3889 28.9055 26.7572 28.8891 26.116C28.8751 25.7409 28.9369 25.3668 29.0709 25.0163C29.2048 24.6657 29.408 24.346 29.6683 24.0763C29.8583 23.8857 30.1053 23.6379 30.3524 23.3519C30.0062 23.3228 29.663 23.2655 29.3262 23.1804C29.1598 23.6085 28.9076 23.9978 28.585 24.3241C28.3624 24.4602 28.1043 24.5265 27.8439 24.5147C26.9985 24.45 26.1699 24.2438 25.3924 23.9047C23.701 23.2185 21.5916 21.9985 21.3635 20.607C21.5474 18.3114 22.2353 16.0851 23.378 14.0877C24.3214 11.9167 25.6476 9.93423 27.2928 8.23553C28.5481 7.53806 29.9959 7.27036 31.4166 7.47304C31.348 7.23649 31.348 6.98522 31.4166 6.74867C31.7486 6.18587 32.1652 5.67791 32.6519 5.24275C33.279 4.67088 33.7731 4.40401 34.0772 4.48026C34.1894 4.50738 34.288 4.57458 34.3544 4.66931C34.4209 4.76403 34.4507 4.87979 34.4382 4.99494C34.4382 5.58587 33.9821 6.11962 33.127 7.12992L32.5949 7.75898C32.8143 7.83752 33.0246 7.93979 33.222 8.06397C33.4123 8.16606 33.5648 8.32674 33.6572 8.52236C33.7496 8.71797 33.7769 8.93817 33.7351 9.15052C33.6211 9.58896 33.393 9.72239 33.222 9.76052C32.7279 9.87489 32.2528 9.34115 32.0057 9.03615C31.7587 8.73115 31.8727 8.84553 31.8157 8.73115C31.3216 9.36021 30.7705 10.1036 30.1434 10.9996C28.8045 13.0422 27.6713 15.2133 26.7607 17.4808C26.1657 18.7661 25.7439 20.125 25.5064 21.522C25.9405 20.9278 26.31 20.2887 26.6086 19.6157C27.2167 18.4911 27.9389 17.0233 28.623 15.6126C29.4072 13.6423 30.4351 11.7787 31.6827 10.0655C32.0081 9.93793 32.3647 9.91339 32.7044 9.99518C33.0442 10.077 33.3508 10.2612 33.5831 10.523L33.9061 10.8471C34.6093 9.66521 35.2174 8.94084 35.8065 8.76928H36.2626C36.2626 8.54053 36.2626 8.27366 36.2626 8.02585C36.19 6.549 36.5536 5.08351 37.3078 3.81308C37.7845 2.94625 38.4281 2.18307 39.2013 1.56786C39.9744 0.952653 40.8618 0.497677 41.8118 0.229363C42.7876 -0.039447 43.813 -0.0724892 44.804 0.132944C45.7949 0.338378 46.7233 0.77644 47.5129 1.41123C48.7253 2.28628 49.7149 3.43569 50.4015 4.76619C50.9341 6.06328 51.168 7.46422 51.0857 8.86459C51.1244 9.68601 50.9961 10.5068 50.7086 11.2769C50.4211 12.047 49.9804 12.7504 49.4133 13.3442C49.0906 13.7098 48.6941 14.0024 48.2502 14.2029C47.8063 14.4033 47.3251 14.507 46.8383 14.507C46.3515 14.507 45.8702 14.4033 45.4263 14.2029C44.9824 14.0024 44.586 13.7098 44.2633 13.3442C43.4835 12.745 42.836 11.9901 42.3618 11.1272C41.8875 10.2643 41.5967 9.31214 41.5077 8.33084L41.1086 8.59772C40.8144 8.74833 40.4887 8.82685 40.1584 8.82685C39.8281 8.82685 39.5024 8.74833 39.2082 8.59772L38.9232 8.40709C38.8825 8.75766 38.9349 9.11278 39.0752 9.43646C39.5287 9.67523 39.9667 9.94264 40.3865 10.2371C40.8915 10.5299 41.3322 10.9225 41.6817 11.391C42.0312 11.8595 42.2823 12.3943 42.4199 12.963C42.4356 13.0563 42.4319 13.152 42.409 13.2438C42.3861 13.3357 42.3445 13.4218 42.2868 13.4967C44.1872 14.3545 45.3655 14.7548 45.3845 14.7739C45.4198 14.7796 45.4527 14.7951 45.4796 14.8187C45.5065 14.8423 45.5262 14.873 45.5365 14.9073C45.5506 14.9405 45.5579 14.9761 45.5579 15.0122C45.5579 15.0482 45.5506 15.0839 45.5365 15.117C45.3858 15.4727 45.1876 15.8061 44.9474 16.1083C44.8166 16.2084 44.6641 16.2761 44.5023 16.3059C44.3405 16.3357 44.1739 16.3268 44.0162 16.2798L44.3013 17.0995C44.624 18.0591 45.0645 18.9748 45.6125 19.8254C45.8659 20.1401 46.1752 20.4051 46.5247 20.607C46.6972 20.4534 46.9069 20.3482 47.1328 20.302C47.5721 20.2971 48.0048 20.4089 48.3871 20.626C49.0005 20.914 49.5858 21.2586 50.1355 21.6554C51.5542 22.6244 52.7843 23.8454 53.7652 25.2582C54.8146 27.2169 55.6738 29.2724 56.3307 31.3962C56.9389 33.0928 57.566 34.8656 58.2311 36.1809C58.9913 37.8965 59.4664 38.2968 59.6944 38.354L59.9035 38.2396C60.0064 36.4436 59.667 34.6498 58.9153 33.0165C58.1707 30.5207 57.097 28.1359 55.7226 25.9254C54.4501 24.2556 52.9009 22.8177 51.1427 21.6745C49.8124 20.7023 48.9952 20.1304 49.1092 19.5395C49.2233 18.9485 49.6224 19.0057 49.9454 18.9104C52.8958 18.3086 55.906 18.0527 58.9153 18.1479C62.317 18.2432 66.8209 18.8723 68.8923 21.2741C69.6343 22.2131 70.0423 23.3738 70.0516 24.5719L70.6217 24.3813C70.654 24.3654 70.6891 24.3563 70.7251 24.3545C70.761 24.3526 70.7969 24.3581 70.8307 24.3706C70.8644 24.383 70.8953 24.4022 70.9214 24.427C70.9476 24.4518 70.9684 24.4816 70.9827 24.5147C71.0076 24.5805 71.0055 24.6534 70.9771 24.7177C70.9486 24.7819 70.896 24.8323 70.8307 24.8579C70.5843 24.9606 70.3301 25.0435 70.0705 25.1057C70.0472 25.7453 69.9773 26.3824 69.8615 27.0119C69.1635 29.9342 67.8694 32.6797 66.0607 35.0753C64.3133 37.5573 62.0341 39.6155 59.3904 41.0989C56.0198 42.6314 52.5385 43.9058 48.9762 44.9114C46.4026 45.8467 43.708 46.4052 40.9756 46.5698C40.6715 46.5698 40.1774 46.1123 39.0752 43.9202C38.391 42.5858 37.5739 40.7749 36.6997 38.6399C36.0916 37.1721 35.5025 35.6662 35.0274 34.3318L34.8183 34.5415C35.1414 35.2278 35.4835 36.0093 35.8445 36.829C37.3268 40.2602 38.7331 43.7486 39.1322 44.9686C39.2036 45.1671 39.232 45.3785 39.2156 45.5889C39.1992 45.7992 39.1384 46.0036 39.0372 46.1886C39.2402 46.4067 39.3784 46.6774 39.4363 46.9701C39.4749 49.4974 38.5269 51.9397 36.7947 53.7754C35.088 55.7402 33.0801 57.4196 30.8465 58.7506C29.2249 59.8723 27.3859 60.6387 25.4494 61ZM11.1965 49.0289C11.5955 49.0289 11.7476 49.1242 11.8426 49.2576C11.9376 49.3911 11.9566 49.5817 11.7286 49.8485C11.5005 50.1154 11.1014 50.592 10.7974 50.9542C10.386 51.3794 10.0109 51.8385 9.67614 52.3266L10.1512 52.2313C12.1847 51.6213 18.817 47.1226 19.2351 46.0552C19.52 44.9798 19.5782 43.8566 19.4061 42.7574C18.779 42.643 17.5058 42.4714 16.1565 42.2999C14.9548 42.1253 13.7404 42.0552 12.5267 42.0902C12.7141 42.3262 12.9173 42.5491 13.1349 42.7574C13.61 43.2149 13.876 43.5008 13.838 43.7867C13.8283 43.8452 13.8063 43.9008 13.7735 43.9501C13.7408 43.9994 13.698 44.0412 13.648 44.0727C13.4199 44.2061 12.7738 44.0727 10.3223 43.863C9.01832 43.6791 7.70486 43.5709 6.38847 43.5389C7.09205 44.3592 7.88216 45.1006 8.74495 45.7502C8.78992 45.7807 8.8236 45.8253 8.84078 45.877C8.85796 45.9287 8.85767 45.9846 8.83997 46.0361C8.82649 46.0843 8.79973 46.1278 8.76276 46.1615C8.72579 46.1952 8.6801 46.2178 8.63093 46.2267C6.51239 46.5195 4.41222 46.9331 2.34064 47.4658C2.53068 47.5992 2.89175 47.7898 3.1198 47.9233C3.86095 48.3045 4.31704 48.5523 4.39306 48.8764C4.41679 48.9271 4.42909 48.9824 4.42909 49.0384C4.42909 49.0944 4.41679 49.1497 4.39306 49.2004C4.26003 49.391 3.87995 49.5817 2.91075 50.0201C2.39765 50.2679 1.78952 50.5539 1.33343 50.8017C1.02663 50.9619 0.760184 51.1901 0.554269 51.4688C1.14586 51.4947 1.73745 51.4173 2.30263 51.2401C3.29083 51.0113 4.54509 50.6873 5.76134 50.3632C6.97759 50.0392 8.51691 49.6389 9.56212 49.4101C10.0965 49.2549 10.6434 49.1464 11.1965 49.0861V49.0289ZM32.5759 46.5317C34.357 47.0958 36.2783 47.0217 38.011 46.322C37.0681 46.1768 36.1133 46.1257 35.1604 46.1695C34.2916 46.1614 33.4247 46.2509 32.5759 46.4364V46.5317ZM25.2403 45.5023C24.714 45.7028 24.2534 46.046 23.9101 46.4936L25.2403 46.0552L25.6204 45.9217C25.5696 45.7868 25.492 45.6636 25.3924 45.5595C25.3924 45.5595 25.3164 45.407 25.2403 45.407V45.5023ZM35.3314 33.9125C35.8255 35.2849 36.4336 36.8862 37.1178 38.5255C37.973 40.6224 38.7901 42.4333 39.4553 43.7486C40.5765 45.9217 40.9946 46.1314 41.0516 46.1505C43.6907 45.968 46.2896 45.403 48.7672 44.473C52.3008 43.4743 55.7511 42.1996 59.0863 40.6605C61.6641 39.2252 63.8857 37.2248 65.5856 34.8084C67.3902 32.4813 68.6853 29.7987 69.3864 26.9357C69.5087 26.3908 69.5787 25.8355 69.5955 25.2772C69.1937 25.3033 68.7925 25.2176 68.4362 25.0294C68.226 26.3961 67.9469 27.7513 67.6 29.0897C66.8618 31.4692 65.6095 33.6561 63.9323 35.4946C62.8685 36.7432 61.6336 37.8342 60.2645 38.7352C60.2085 38.8167 60.1351 38.8846 60.0496 38.934C59.9641 38.9835 59.8688 39.0132 59.7704 39.0212C59.33 39.2617 58.8649 39.4534 58.3832 39.593L56.6728 40.0315C55.1145 40.4318 53.0051 40.9846 50.9716 41.5755C50.7816 42.3761 49.5083 43.1958 48.4251 43.7486C47.4862 44.2477 46.4993 44.65 45.4795 44.9495C44.3899 45.2799 43.6678 45.3181 43.3131 45.0639C43.226 45.0027 43.157 44.919 43.1135 44.8217C43.07 44.7243 43.0536 44.617 43.066 44.5111C43.066 43.9964 43.7692 43.2721 48.2731 41.8424L50.4585 41.1752C49.9523 38.7769 49.214 36.4338 48.2541 34.1793C47.2289 31.1744 45.7827 28.3311 43.9592 25.7347C42.0982 23.498 39.5049 21.998 36.6427 21.5029H36.4527C35.4596 21.2745 34.5184 20.8607 33.6781 20.2829C33.393 20.6832 33.0319 21.1788 32.5949 21.7507C32.1578 22.3226 31.8727 22.6466 31.5306 23.066H31.7587C33.3713 23.1368 34.9869 23.0602 36.5857 22.8373C38.1116 22.5909 39.6761 22.817 41.0706 23.4854C42.3528 24.0794 43.4307 25.0412 44.1682 26.2494C44.8133 27.5346 44.9752 29.0098 44.6243 30.405C44.4646 31.3131 44.1288 32.1809 43.6361 32.9593C43.8345 33.0663 44.025 33.1873 44.2062 33.3215L45.0804 33.9125C46.4487 34.8084 47.3419 35.4184 47.3419 36.1046C47.3291 36.28 47.2717 36.4492 47.1753 36.596C47.0788 36.7428 46.9464 36.8624 46.7908 36.9434C44.4677 37.8711 41.9261 38.1029 39.4743 37.6105C39.2541 37.5637 39.0467 37.4696 38.8663 37.3347C38.6858 37.1998 38.5367 37.0272 38.4291 36.829C38.1633 35.888 38.1633 34.8915 38.4291 33.9506C38.5615 33.4339 38.6254 32.9019 38.6191 32.3684C38.6191 32.0062 38.5241 31.4534 38.4481 30.8816C38.372 30.3097 38.353 30.1762 38.315 29.8331C37.7855 30.102 37.2233 30.3007 36.6427 30.4241H36.2056L34.9703 30.5003C35.2913 31.1042 35.5401 31.7441 35.7115 32.4065C35.7438 32.6552 35.7268 32.9078 35.6616 33.1498C35.5963 33.3919 35.4841 33.6186 35.3314 33.8171V33.9125ZM50.1545 41.7661L48.2541 42.3189C43.6931 43.7677 43.4081 44.4158 43.3891 44.5302C43.9635 44.646 44.5593 44.5862 45.0994 44.3586C46.0828 44.0585 47.0369 43.6693 47.95 43.1958C48.5391 42.8925 49.0989 42.5351 49.6224 42.1283C49.8164 41.9965 49.9949 41.843 50.1545 41.6708V41.7661ZM33.7351 19.5776L33.8491 19.6729C34.6347 20.2241 35.5186 20.6189 36.4527 20.8357H36.6237C39.5955 21.3596 42.2876 22.919 44.2252 25.2391C45.1173 26.3638 45.8702 27.5928 46.4677 28.8991C47.1709 30.3097 47.912 32.0062 48.6152 33.8362C49.552 36.114 50.2958 38.467 50.8386 40.8702C52.891 40.2983 54.9435 39.7646 56.5398 39.3643L58.2501 38.9258C58.5448 38.8452 58.8311 38.7367 59.1053 38.6018C58.1551 37.8202 57.2049 35.304 55.8556 31.5297C55.1624 29.4565 54.2781 27.4526 53.2141 25.5441C52.2738 24.1914 51.0952 23.0221 49.7364 22.0938C48.9819 21.4444 48.0713 21.0041 47.0948 20.8167H46.9238L47.4749 21.0645C48.3491 21.4648 49.2233 21.8651 49.5273 22.7801C49.6414 23.1041 49.7364 23.5235 49.5273 23.7523C49.3183 23.981 48.8052 23.7522 48.3301 23.6379C48.1722 23.5579 48.0066 23.494 47.836 23.4473L48.1971 23.9047C48.8432 24.7244 49.7174 25.811 49.1663 26.5544C49.0332 26.745 48.7292 26.9547 48.121 26.8213C46.645 26.3283 45.3659 25.3727 44.4723 24.0954C44.6251 23.1935 45.0192 22.3502 45.6125 21.6554C45.7607 21.4162 45.9326 21.1927 46.1256 20.9882C45.7624 20.7666 45.4408 20.4827 45.1754 20.1495C44.6022 19.2126 44.1489 18.2071 43.8262 17.1567C43.7121 16.8136 43.5791 16.4323 43.4271 16.0511C43.1028 15.9713 42.7721 15.9203 42.4389 15.8986H40.3484C39.8543 15.8986 39.7783 16.032 39.7783 16.032C39.7783 16.032 39.7783 16.2989 40.1964 17.5379C40.4568 18.2001 40.7748 18.8379 41.1466 19.4442C41.2796 19.6348 41.8878 19.3489 42.3249 19.1582C42.7619 18.9676 43.4461 18.6626 43.8452 18.8342C43.9322 18.8626 44.0108 18.9124 44.0738 18.979C44.1368 19.0455 44.1824 19.1268 44.2062 19.2154C44.2486 19.3148 44.2704 19.4218 44.2704 19.5299C44.2704 19.6381 44.2486 19.7451 44.2062 19.8445C44.0162 20.2638 43.4651 20.4545 42.933 20.626C42.6314 20.7049 42.3476 20.8408 42.0968 21.0263C42.0968 21.0263 42.0968 21.1598 42.3629 21.6173C42.6451 22.0034 42.9497 22.3726 43.2751 22.7229C43.7501 23.2757 44.0162 23.5616 44.0542 23.7904C44.0726 23.8736 44.0594 23.9607 44.0172 24.0347C43.975 24.1087 43.9069 24.1643 43.8262 24.1907C43.2751 24.3813 41.4127 23.1423 40.4055 21.0645C40.1964 20.5879 39.9684 20.1304 39.7403 19.6729C38.7711 17.7667 37.935 16.0892 38.334 15.1742C38.7331 14.2592 41.1656 13.9733 42.1348 14.0114L40.8996 13.3442C39.4184 12.4867 38.1715 11.2753 37.2698 9.8177L36.9848 9.39833H36.8897C36.9035 10.2871 36.6301 11.1564 36.1106 11.8764C36.0076 11.9869 35.8795 12.0706 35.7371 12.1204C35.5948 12.1702 35.4425 12.1846 35.2934 12.1624C35.1708 12.1526 35.0567 12.0955 34.9751 12.0031C34.8936 11.9106 34.851 11.7901 34.8563 11.6667C35.0048 11.0065 35.3415 10.4037 35.8255 9.93208C35.9966 9.72239 36.2056 9.49364 36.3956 9.30302L36.1106 9.34115C35.8065 9.34115 35.2934 9.87489 34.4382 11.4189L34.5903 11.743C34.7803 12.2071 34.7803 12.7276 34.5903 13.1917C33.6633 14.7894 32.6416 16.3299 31.5306 17.8048L30.9605 19.1392C30.3524 20.626 29.8773 21.7698 29.4972 22.5894C29.8988 22.6756 30.3048 22.7392 30.7135 22.7801C31.5637 21.7858 32.3629 20.7488 33.108 19.6729C32.8788 19.478 32.6903 19.2395 32.5534 18.9713C32.4164 18.703 32.3336 18.4102 32.3098 18.1098C32.3098 17.7095 32.4238 17.4617 32.6329 17.3473C32.7289 17.2842 32.8411 17.2505 32.9559 17.2505C33.0707 17.2505 33.183 17.2842 33.279 17.3473C33.5054 17.496 33.6938 17.696 33.8291 17.931C33.9645 18.1661 34.0429 18.4297 34.0582 18.7007C34.0189 19.014 33.9084 19.314 33.7351 19.5776ZM20.9265 27.2025C19.9261 27.2038 18.9277 27.2931 17.9428 27.4694C12.5267 28.3653 11.1584 29.2422 10.9494 29.795C10.9494 29.795 10.9494 30.0809 11.1775 30.4431C12.0293 31.0629 13.0106 31.4801 14.047 31.6631C16.0871 31.9834 17.9858 32.9058 19.5012 34.3128L20.2803 35.2659C21.0339 36.1625 21.7139 37.1187 22.3137 38.1252C22.7494 37.9616 23.1934 37.8216 23.644 37.7059C24.9262 37.398 26.2404 37.2445 27.5588 37.2484C28.9436 37.2128 30.302 36.8608 31.5306 36.219C32.464 35.7644 33.3331 35.1875 34.1152 34.5034C33.6051 33.2645 33.0015 32.0665 32.3098 30.9197C31.8473 31.1194 31.4077 31.3687 30.9985 31.6631C30.9896 32.1963 30.8933 32.7244 30.7135 33.2262C30.3636 34.3572 29.7053 35.3674 28.8131 36.1427C27.8819 36.9052 27.1407 36.7337 26.7797 36.3715C26.4186 36.0093 26.3616 34.9609 27.1977 34.065C28.0669 33.1929 29.0078 32.3958 30.0103 31.6822L30.4284 31.3962C30.4327 31.0849 30.3609 30.7773 30.2194 30.5003C29.1783 29.378 27.8707 28.5385 26.4186 28.0603C24.653 27.4171 22.7857 27.1007 20.9075 27.1263L20.9265 27.2025ZM57.8891 18.6626C55.2662 18.6441 52.6485 18.8997 50.0784 19.4251C49.7174 19.5204 49.6224 19.6157 49.6224 19.6539C49.6224 19.692 49.6224 19.7873 50.0404 20.1685C50.4585 20.5498 50.8766 20.8357 51.4467 21.2551C53.2503 22.4353 54.8434 23.9109 56.1597 25.6204C57.5597 27.8815 58.6586 30.3167 59.4284 32.864C59.9929 34.4658 60.3194 36.1422 60.3976 37.8393C61.5231 37.0284 62.55 36.0879 63.4572 35.0371C65.0737 33.2609 66.2863 31.1536 67.0109 28.8609C67.381 27.4497 67.6666 26.0174 67.8661 24.5719C67.6598 24.3838 67.492 24.1572 67.372 23.9047C67.0679 23.2566 67.182 22.6085 67.6191 22.3988C67.6995 22.3414 67.7958 22.3105 67.8946 22.3105C67.9934 22.3105 68.0897 22.3414 68.1702 22.3988C68.3792 22.5513 68.5692 22.9135 68.4172 24.3051C68.7469 24.5111 69.1315 24.6109 69.5194 24.591C69.4896 23.5048 69.102 22.4592 68.4172 21.6173C66.5168 19.3489 62.1269 18.777 58.9153 18.6817L57.8891 18.6626ZM38.5811 29.3566C38.5811 29.795 38.6951 30.2144 38.7331 30.5956C38.7711 30.9769 38.8852 31.7203 38.9232 32.1015C38.9236 32.6787 38.8599 33.2541 38.7331 33.8171C38.4861 34.6635 38.4861 35.5632 38.7331 36.4096C38.7331 36.6002 39.0562 36.7527 39.4363 36.8671C40.6818 37.1588 41.9704 37.217 43.237 37.0387C44.2908 36.9474 45.3202 36.6699 46.2777 36.219C46.4867 36.0665 46.6007 35.9331 46.6007 35.7996C46.6007 35.6662 45.6125 34.7321 44.5673 34.0459L43.7121 33.5312C43.4818 33.3685 43.2405 33.222 42.99 33.0928C42.3771 33.3137 41.7384 33.4546 41.0896 33.5122C39.3793 33.6646 39.1892 33.3787 39.1892 33.2643C39.1892 33.15 38.9802 32.9403 39.3602 32.6543C39.9046 32.2491 40.5573 32.0163 41.2345 31.9857C41.9117 31.9552 42.5826 32.1283 43.161 32.4828C43.6526 31.7563 43.9771 30.9295 44.1112 30.0619C44.435 28.7857 44.3004 27.436 43.7311 26.2494C43.037 25.1338 42.033 24.246 40.8425 23.6951C39.5446 23.0655 38.0847 22.8524 36.6617 23.0851C35.032 23.3178 33.3839 23.3944 31.7397 23.3138H31.1126C30.7135 23.7713 30.3714 24.1335 30.1434 24.3622C29.9338 24.5819 29.7716 24.8425 29.667 25.1279C29.5623 25.4132 29.5175 25.7171 29.5352 26.0207C29.5481 26.5904 29.674 27.1519 29.9057 27.6724C30.1374 28.1928 30.4701 28.6616 30.8845 29.0516C31.6951 29.7332 32.7367 30.0746 33.7921 30.0047C33.7921 29.8331 33.7921 29.2994 34.1152 29.2422C34.4382 29.185 34.4762 29.2422 34.9323 29.9666L36.1296 29.7759H36.5667C37.1492 29.65 37.7119 29.4448 38.239 29.1659C38.0782 28.3182 38.1106 27.4449 38.334 26.6116C38.5977 26.1687 38.9746 25.8044 39.4256 25.5564C39.8766 25.3084 40.3855 25.1857 40.8996 25.201C41.1427 25.246 41.362 25.3761 41.5186 25.5681C41.6752 25.76 41.7589 26.0014 41.7547 26.2494C41.7547 27.2978 40.6905 28.2891 39.7213 28.9372L38.5811 29.3566ZM30.4094 32.0444C29.3925 32.7469 28.4443 33.5447 27.5778 34.4271C26.9697 35.0753 26.9127 35.7234 27.1787 36.0093C27.4448 36.2952 27.9389 36.1809 28.49 35.7234C29.2897 35.0162 29.8756 34.0982 30.1814 33.0737C30.2895 32.7385 30.3658 32.3939 30.4094 32.0444ZM32.6329 30.5003C32.7927 30.6635 32.9272 30.8499 33.0319 31.0531C33.222 31.3962 33.469 31.8537 33.7731 32.4637L34.5143 34.0459L34.6663 33.8553C34.2766 32.7557 33.9468 31.6357 33.6781 30.5003C33.3307 30.5378 32.9803 30.5378 32.6329 30.5003ZM34.2102 30.5003C34.3812 31.0912 34.6853 32.0253 35.0844 33.169C35.176 32.9866 35.2092 32.7802 35.1794 32.5781C35.0187 31.8487 34.7631 31.1438 34.4192 30.4812L34.2102 30.5003ZM39.6263 32.9975C40.0999 33.0516 40.578 33.0516 41.0516 32.9975C41.461 32.963 41.8675 32.8993 42.2678 32.8068C41.8488 32.6063 41.385 32.5185 40.922 32.5519C40.4589 32.5853 40.0124 32.7389 39.6263 32.9975ZM40.4245 25.5822C40.0423 25.6169 39.6728 25.7378 39.3437 25.9359C39.0146 26.1339 38.7345 26.404 38.5241 26.726C38.3781 27.4044 38.3781 28.1063 38.5241 28.7847L39.2082 28.3844C40.4055 27.5838 41.1086 26.7832 40.9946 26.1922C40.8806 25.6013 40.7285 25.6394 40.5765 25.6013L40.4245 25.5822ZM46.5437 21.2551C46.3917 21.4266 46.2017 21.6554 45.9926 21.9413C45.5146 22.5667 45.1775 23.2886 45.0044 24.0572C45.3381 24.5365 45.7568 24.95 46.2397 25.2772C46.8442 25.7783 47.5418 26.1541 48.2921 26.3828C48.4631 26.3828 48.6912 26.3828 48.7672 26.3828C48.8432 26.3828 48.2731 24.9913 47.798 24.3813C47.3229 23.7713 47.0948 23.4854 47.2279 23.2185C47.2267 23.1366 47.2548 23.057 47.3071 22.9941C47.3594 22.9311 47.4324 22.889 47.5129 22.8754C47.8507 22.8973 48.1805 22.9881 48.4821 23.1423C48.6851 23.2293 48.8948 23.2994 49.1092 23.3519C49.1323 23.2195 49.1323 23.0841 49.1092 22.9516C48.8812 22.2463 48.1591 21.9223 47.3419 21.5601L46.5437 21.2551ZM30.5234 7.91147C29.5018 7.87263 28.4893 8.11664 27.5968 8.61678C25.9979 10.2786 24.7104 12.2158 23.796 14.3355C22.6638 16.1914 21.9503 18.2734 21.7056 20.4354C21.8957 21.3313 23.416 22.5323 25.5064 23.3329C26.9127 23.9047 27.9389 24.0191 28.224 23.8094C28.4403 23.5313 28.6016 23.2143 28.6991 22.8754C28.4532 22.791 28.2359 22.6391 28.0719 22.437C28.0073 22.3378 27.9729 22.2218 27.9729 22.1034C27.9729 21.9849 28.0073 21.869 28.0719 21.7698C28.357 21.236 29.3452 19.8635 30.5044 18.2242L31.0175 17.4808C32.0437 15.0408 32.9179 12.9058 33.8301 11.3808C33.7122 11.2157 33.5786 11.0624 33.431 10.9233C32.9369 10.5039 32.3858 10.3324 32.0817 10.5421C31.7777 10.7518 31.7587 10.8471 30.9985 12.2767C30.4854 13.268 29.8583 14.5261 29.2122 15.8605C28.566 17.1948 27.7679 18.8342 27.1407 19.9779C26.1525 21.8841 25.8485 22.0557 25.6204 22.1129C25.5436 22.1348 25.4619 22.1318 25.3868 22.1044C25.3118 22.077 25.2472 22.0266 25.2023 21.9604C25.0693 21.7888 24.9933 21.4457 25.3354 20.2638C25.6182 19.2678 25.9544 18.2879 26.3426 17.3283C27.2854 14.9914 28.45 12.7508 29.8203 10.6374C30.5171 9.64614 31.1506 8.82646 31.7207 8.17835C31.7207 8.17835 31.7207 8.02585 31.7207 7.96866C31.3225 7.93462 30.9225 7.92825 30.5234 7.9496V7.91147ZM67.8661 22.8754C67.7141 22.8754 67.6761 23.2757 67.8661 23.676V23.8476C67.9291 23.5266 67.9291 23.1964 67.8661 22.8754ZM41.6027 14.3927C40.4055 14.3927 39.0372 14.6214 38.7711 15.2505C38.5051 15.8795 39.3412 17.6523 40.1584 19.3107C40.3865 19.7682 40.6335 20.2257 40.8425 20.7023C41.3571 21.8107 42.1826 22.7448 43.218 23.3901C43.1016 23.2353 42.9746 23.0888 42.838 22.9516C42.0208 22.0176 41.1656 21.0454 41.6787 20.5307C41.9887 20.2745 42.3526 20.092 42.7429 19.997C43.123 19.8635 43.5791 19.711 43.6741 19.5014C43.6898 19.4653 43.6979 19.4263 43.6979 19.387C43.6979 19.3476 43.6898 19.3087 43.6741 19.2726C43.4651 19.2726 42.952 19.4251 42.5719 19.5967C41.8878 19.9017 41.1086 20.2448 40.6715 19.5967C40.2831 18.9907 39.9462 18.353 39.6643 17.6904C39.0562 16.2036 39.2082 15.8795 39.2842 15.7842C39.5313 15.3076 40.3865 15.3267 41.5837 15.4411H42.3819C42.6566 15.4478 42.9301 15.4797 43.199 15.5364C42.933 14.9455 42.6669 14.488 42.4199 14.4689L41.6027 14.3927ZM30.1053 19.7301C29.3452 20.7976 28.7181 21.6363 28.509 22.0748C28.509 22.0748 28.509 22.1701 28.509 22.1891C28.6198 22.3167 28.765 22.4094 28.9271 22.456V22.2845C29.3262 21.5791 29.7063 20.6832 30.1053 19.7301ZM32.8989 17.8239C32.8773 17.9244 32.8773 18.0284 32.8989 18.1289C32.9189 18.5429 33.0877 18.9356 33.374 19.2345C33.4717 19.087 33.5485 18.9266 33.6021 18.7579C33.558 18.4812 33.4245 18.2266 33.222 18.0336C33.1369 17.9294 33.0253 17.8503 32.8989 17.8048V17.8239ZM43.8072 15.6317C44.0644 15.6826 44.3291 15.6826 44.5863 15.6317C44.7203 15.4435 44.841 15.246 44.9474 15.0408C44.6053 14.9073 43.9782 14.6786 43.161 14.3164C43.4304 14.726 43.6474 15.1679 43.8072 15.6317ZM34.0962 12.0099C33.9631 12.2386 33.8491 12.4864 33.7161 12.7533C33.298 13.592 32.8609 14.5452 32.4428 15.4983C33.0434 14.6947 33.5833 13.8472 34.0582 12.963C34.184 12.6601 34.1975 12.3219 34.0962 12.0099ZM42.1538 7.62554C41.9602 8.70003 42.192 9.80789 42.8 10.7136C43.3192 11.5254 43.9602 12.2519 44.7003 12.8677C44.9714 13.1955 45.3112 13.4594 45.6955 13.6405C46.0798 13.8216 46.4992 13.9155 46.9238 13.9155C47.3484 13.9155 47.7678 13.8216 48.1521 13.6405C48.5364 13.4594 48.8762 13.1955 49.1473 12.8677C50.1499 11.7532 50.6755 10.2881 50.6106 8.78834C50.6634 7.62787 50.5155 6.46699 50.1735 5.35712C50.1833 5.40106 50.1833 5.44663 50.1735 5.49056C50.1441 5.5425 50.1031 5.58681 50.0536 5.61992C50.0041 5.65302 49.9475 5.67401 49.8884 5.68118C49.5083 5.68118 49.0522 5.39525 48.1781 4.72807C47.6882 4.39567 47.1807 4.09022 46.6577 3.81308H46.0116C45.2983 3.88552 44.6167 4.14583 44.036 4.56764C43.4553 4.98944 42.9961 5.55773 42.7049 6.21493C42.6631 6.72917 42.4715 7.21972 42.1538 7.62554ZM39.5883 10.2561C39.8544 10.6564 40.1774 11.1139 40.4815 11.5142C40.8551 12.0924 41.3319 12.5964 41.8878 13.0011V12.9058C41.7389 12.4119 41.4944 11.9523 41.1683 11.5533C40.8422 11.1543 40.4409 10.8236 39.9874 10.5802C39.8611 10.4641 39.7278 10.3559 39.5883 10.2561ZM37.6879 9.39833C38.4439 10.6614 39.4613 11.747 40.6715 12.5817L40.1394 11.9336C39.6045 11.2423 39.1157 10.5164 38.6761 9.76052C38.3468 9.60614 38.003 9.48482 37.6499 9.39833H37.6879ZM35.2934 11.6477C35.3659 11.6441 35.4365 11.6232 35.4993 11.5867C35.5621 11.5502 35.6153 11.4992 35.6545 11.438C35.9667 11.0377 36.1756 10.5662 36.2626 10.0655L36.1106 10.4086C35.7368 10.7445 35.4554 11.1712 35.2934 11.6477ZM32.3098 8.29272C32.3872 8.43937 32.4762 8.57961 32.5759 8.71209C32.9179 9.15052 33.184 9.2649 33.26 9.24583C33.336 9.22677 33.26 9.24583 33.374 9.03615C33.488 8.82646 33.374 8.75021 33.07 8.5024C32.8368 8.35595 32.5793 8.25264 32.3098 8.19741V8.29272ZM36.9658 8.75021C37.3936 8.77179 37.816 8.85526 38.22 8.99802H38.4671C38.3725 8.5969 38.3725 8.17916 38.4671 7.77804C38.0042 7.24487 37.7244 6.57661 37.6689 5.87181C37.6413 5.36972 37.726 4.86781 37.9167 4.40277C38.1074 3.93773 38.3993 3.52133 38.7711 3.18402C39.0648 2.91493 39.4168 2.71802 39.7994 2.60884C40.182 2.49967 40.5847 2.48122 40.9756 2.55496C41.284 2.61072 41.5772 2.73125 41.8359 2.90865C42.0947 3.08605 42.3131 3.31631 42.4769 3.58433C43.2207 2.90932 44.1915 2.54158 45.1944 2.55496C45.8 2.65087 46.3773 2.87859 46.8858 3.22215C47.42 3.3184 47.9424 3.47177 48.4441 3.67964C48.8922 3.87263 49.3137 4.12248 49.6984 4.42307C49.0356 3.43952 48.1982 2.5866 47.2279 1.90685C46.5125 1.30871 45.6648 0.891029 44.7556 0.688734C43.8464 0.486439 42.9022 0.505405 42.0018 0.744045C40.4566 1.17982 39.1058 2.13145 38.1729 3.44162C37.2399 4.75179 36.7805 6.34207 36.8707 7.9496C36.8897 8.21647 36.9087 8.48334 36.9087 8.75021H36.9658ZM39.0942 7.72085C39.2166 7.82487 39.3505 7.91442 39.4933 7.98772C39.7157 8.11655 39.9681 8.18437 40.2249 8.18437C40.4818 8.18437 40.7341 8.11655 40.9566 7.98772C41.2513 7.82578 41.5099 7.60525 41.7167 7.3396C41.8319 6.88052 41.991 6.43366 42.1918 6.00524C42.1737 5.91953 42.1252 5.84332 42.0553 5.79074C41.9854 5.73816 41.8989 5.71278 41.8118 5.71931C41.417 5.61296 40.9985 5.63712 40.6185 5.78822C40.2385 5.93931 39.9172 6.20928 39.7023 6.55805C39.4115 6.90152 39.186 7.29566 39.0372 7.72085H39.0942ZM31.9677 7.62554H32.1388L32.8229 6.80586C33.5831 5.90993 34.0011 5.41431 34.0011 5.03306C33.6478 5.19657 33.3311 5.42999 33.07 5.71931C32.6453 6.10094 32.2802 6.54431 31.9867 7.03461C31.9108 7.2231 31.904 7.43253 31.9677 7.62554ZM40.4625 3.1459C39.9483 3.1544 39.455 3.35099 39.0752 3.6987C38.761 3.98216 38.5154 4.33387 38.3573 4.727C38.1992 5.12013 38.1328 5.54429 38.163 5.96712C38.2026 6.45766 38.3661 6.93 38.6381 7.3396C38.821 6.95804 39.0578 6.60493 39.3412 6.29118C39.6005 5.92238 39.9552 5.63159 40.3672 5.45018C40.7791 5.26878 41.2326 5.20364 41.6787 5.26181C41.6361 5.23436 41.6029 5.19443 41.5837 5.14744C41.4317 4.89963 41.5837 4.59463 41.6977 4.49932C41.793 4.34515 41.908 4.20416 42.0398 4.07995C41.9269 3.84497 41.7591 3.64082 41.5506 3.48484C41.3422 3.32885 41.0993 3.22566 40.8425 3.18402L40.4625 3.1459ZM42.0778 5.33806C42.2258 5.37121 42.3591 5.45145 42.4579 5.56681C42.7764 4.96873 43.2256 4.45061 43.7719 4.05119C44.3182 3.65178 44.9474 3.3814 45.6125 3.26027C45.448 3.19373 45.2755 3.14888 45.0994 3.12683C44.364 3.11959 43.6475 3.36136 43.066 3.81308C42.9156 3.91314 42.7755 4.02809 42.6479 4.1562C42.6574 4.2831 42.6574 4.41054 42.6479 4.53744C42.6491 4.70737 42.5936 4.8728 42.4903 5.00749C42.387 5.14218 42.2418 5.2384 42.0778 5.28087V5.33806ZM48.1781 4.27057L48.3681 4.42307C48.7415 4.75571 49.1568 5.0377 49.6034 5.26181L49.4133 5.03306C49.0468 4.69674 48.63 4.42016 48.1781 4.21339V4.27057Z" fill="#F59B09"/>
</svg>
