<svg width="30" height="27" viewBox="0 0 30 27" fill="none" xmlns="http://www.w3.org/2000/svg">
<g clip-path="url(#clip0_3356_1001)">
<path d="M22.8441 7.87634C22.6603 7.97093 22.5907 8.19497 22.6851 8.37917C23.5349 10.032 23.9622 11.8144 23.9622 13.6813C23.9622 20.0936 18.7543 25.3111 12.3538 25.3111C5.95329 25.3111 0.745403 20.0887 0.745403 13.6763C0.745403 7.26398 5.94832 2.04649 12.3538 2.04649C15.41 2.04649 18.2972 3.23138 20.4837 5.3821C20.6278 5.52648 20.8663 5.52648 21.0104 5.3821C21.1545 5.23772 21.1545 4.99875 21.0104 4.85438C18.6848 2.56425 15.6137 1.30469 12.3588 1.30469C5.54083 1.30469 0 6.85574 0 13.6763C0 20.4969 5.54083 26.0529 12.3538 26.0529C19.1668 26.0529 24.7076 20.5019 24.7076 13.6763C24.7076 11.6899 24.2505 9.79308 23.346 8.03566C23.2516 7.85145 23.028 7.78175 22.8441 7.87634Z" fill="#F89A03"/>
<path d="M18.7647 7.06808C18.9038 6.91374 18.8889 6.67975 18.7348 6.54035C16.9757 4.95718 14.7097 4.08594 12.3492 4.08594C7.07673 4.08594 2.7832 8.38738 2.7832 13.6696C2.7832 18.9518 7.07673 23.2533 12.3492 23.2533C17.6217 23.2533 21.9152 18.9518 21.9152 13.6696C21.9152 12.3055 21.632 10.9912 21.0804 9.7515C20.9959 9.56232 20.7772 9.48266 20.5884 9.56232C20.3996 9.64695 20.3201 9.86601 20.3996 10.0552C20.9114 11.1953 21.1698 12.41 21.1698 13.6646C21.1698 18.5386 17.2142 22.5015 12.3492 22.5015C7.48421 22.5015 3.52861 18.5486 3.52861 13.6746C3.52861 8.8006 7.48918 4.8377 12.3542 4.8377C14.5308 4.8377 16.6179 5.63924 18.2429 7.09795C18.3969 7.23735 18.6305 7.22241 18.7696 7.06808H18.7647Z" fill="#F89A03"/>
<path d="M16.4532 8.73873C16.5774 8.57444 16.5427 8.34045 16.3737 8.21599C15.2009 7.34474 13.8095 6.88672 12.3485 6.88672C8.61156 6.88672 5.57031 9.93358 5.57031 13.6774C5.57031 17.4213 8.61156 20.4681 12.3485 20.4681C16.0855 20.4681 19.1267 17.4213 19.1267 13.6774C19.1267 12.9207 19.0025 12.1789 18.759 11.467C18.6944 11.2728 18.4807 11.1683 18.2869 11.238C18.0931 11.3027 17.9887 11.5167 18.0583 11.7109C18.277 12.3432 18.3863 13.0053 18.3863 13.6774C18.3863 17.013 15.678 19.7263 12.3485 19.7263C9.01905 19.7263 6.31075 17.013 6.31075 13.6774C6.31075 10.3418 9.01905 7.62852 12.3485 7.62852C13.6455 7.62852 14.8879 8.03676 15.9314 8.81341C16.0954 8.93787 16.329 8.90302 16.4532 8.73375V8.73873Z" fill="#F89A03"/>
<path d="M12.3537 10.4187C12.8109 10.4187 13.2482 10.5132 13.6656 10.6925C13.8544 10.7771 14.0731 10.6925 14.1576 10.5033C14.242 10.3141 14.1576 10.095 13.9687 10.0104C13.4618 9.78638 12.9202 9.67188 12.3586 9.67188C10.1572 9.67188 8.36328 11.4641 8.36328 13.6746C8.36328 15.8851 10.1572 17.6773 12.3586 17.6773C14.5601 17.6773 16.354 15.8801 16.354 13.6746C16.354 13.5999 16.354 13.5253 16.349 13.4506C16.3391 13.2465 16.1652 13.0871 15.9565 13.0971C15.7527 13.1071 15.5937 13.2813 15.6036 13.4904C15.6036 13.5501 15.6036 13.6099 15.6036 13.6696C15.6036 15.4669 14.1476 16.9256 12.3537 16.9256C10.5597 16.9256 9.10372 15.4669 9.10372 13.6696C9.10372 11.8724 10.5597 10.4137 12.3537 10.4137V10.4187Z" fill="#F89A03"/>
<path d="M28.4003 3.4502L26.6809 3.1017L27.0188 1.46875C27.0586 1.26961 26.9294 1.07047 26.7306 1.03064C26.5318 0.990809 26.3331 1.12025 26.2933 1.31939L25.8958 3.2411L12.1356 13.3774C11.9716 13.4969 11.9369 13.7309 12.0561 13.9001C12.1307 13.9997 12.24 14.0495 12.3543 14.0495C12.4288 14.0495 12.5083 14.0246 12.5729 13.9748L26.3877 3.80368L28.2512 4.18204C28.2512 4.18204 28.3009 4.192 28.3258 4.192C28.4997 4.192 28.6538 4.06754 28.6885 3.89329C28.7283 3.69415 28.5991 3.49501 28.4003 3.45518V3.4502Z" fill="#F89A03"/>
<path d="M29.7018 2.42286L27.9824 2.07436L28.3203 0.441404C28.3601 0.242263 28.2309 0.0431217 28.0321 0.00329344C27.8333 -0.0365348 27.6345 0.0929069 27.5948 0.292048L27.1823 2.28844C27.1625 2.38303 27.1823 2.48758 27.237 2.56723C27.2917 2.65187 27.3761 2.70663 27.4755 2.72655L29.5627 3.14972C29.5627 3.14972 29.6124 3.15968 29.6372 3.15968C29.8111 3.15968 29.9652 3.03522 30 2.86097C30.0397 2.66183 29.9105 2.46269 29.7068 2.42286H29.7018Z" fill="#F89A03"/>
</g>
<defs>
<clipPath id="clip0_3356_1001">
<rect width="30" height="26.0526" fill="white"/>
</clipPath>
</defs>
</svg>
