<svg width="61" height="26" viewBox="0 0 61 26" fill="none" xmlns="http://www.w3.org/2000/svg">
<g clip-path="url(#clip0_3356_1054)">
<path d="M25.5033 8.68225C27.3111 8.68225 28.781 7.18385 28.781 5.34113C28.781 3.49841 27.3111 2 25.5033 2C23.6956 2 22.2256 3.49841 22.2256 5.34113C22.2256 7.18385 23.6956 8.68225 25.5033 8.68225ZM25.5033 2.94368C26.8044 2.94368 27.8615 4.02125 27.8615 5.3475C27.8615 6.67375 26.8044 7.75133 25.5033 7.75133C24.2022 7.75133 23.1451 6.67375 23.1451 5.3475C23.1451 4.02125 24.2022 2.94368 25.5033 2.94368Z" fill="#F89A03"/>
<path d="M22.1582 13.0742C21.9017 13.0742 21.6953 13.2846 21.6953 13.5461V19.5333C21.6953 19.7947 21.9017 20.0051 22.1582 20.0051C22.4147 20.0051 22.6211 19.7947 22.6211 19.5333V13.5461C22.6211 13.2846 22.4147 13.0742 22.1582 13.0742Z" fill="#F89A03"/>
<path d="M28.8379 13.0742C28.5814 13.0742 28.375 13.2846 28.375 13.5461V19.5333C28.375 19.7947 28.5814 20.0051 28.8379 20.0051C29.0944 20.0051 29.3008 19.7947 29.3008 19.5333V13.5461C29.3008 13.2846 29.0944 13.0742 28.8379 13.0742Z" fill="#F89A03"/>
<path d="M17.3832 9.70178C19.191 9.70178 20.6609 8.20338 20.6609 6.36066C20.6609 4.51794 19.191 3.01953 17.3832 3.01953C15.5754 3.01953 14.1055 4.51794 14.1055 6.36066C14.1055 8.20338 15.5754 9.70178 17.3832 9.70178ZM17.3832 3.96321C18.6843 3.96321 19.7414 5.04079 19.7414 6.36703C19.7414 7.69328 18.6843 8.77086 17.3832 8.77086C16.0821 8.77086 15.025 7.69328 15.025 6.36703C15.025 5.04079 16.0821 3.96321 17.3832 3.96321Z" fill="#F89A03"/>
<path d="M14.0422 14.0938C13.7857 14.0938 13.5856 14.3042 13.5793 14.5592L13.5605 19.5135C13.5605 19.7749 13.767 19.9854 14.0172 19.9854C14.2736 19.9854 14.4738 19.7749 14.4801 19.5199L14.4988 14.5656C14.4988 14.3042 14.2924 14.0938 14.0422 14.0938Z" fill="#F89A03"/>
<path d="M9.25527 10.7213C11.063 10.7213 12.533 9.22291 12.533 7.38019C12.533 5.53747 11.063 4.03906 9.25527 4.03906C7.44751 4.03906 5.97754 5.53747 5.97754 7.38019C5.97754 9.22291 7.44751 10.7213 9.25527 10.7213ZM9.25527 4.98274C10.5564 4.98274 11.6135 6.06032 11.6135 7.38656C11.6135 8.71281 10.5564 9.79039 9.25527 9.79039C7.95419 9.79039 6.89706 8.71281 6.89706 7.38656C6.89706 6.06032 7.95419 4.98274 9.25527 4.98274Z" fill="#F89A03"/>
<path d="M5.91524 15.1172C5.66504 15.1172 5.45861 15.3276 5.45236 15.5826L5.43359 19.5168C5.43359 19.7782 5.64002 19.9886 5.89022 19.9886C6.14043 19.9886 6.34685 19.7782 6.35311 19.5231L6.37188 15.589C6.37188 15.3276 6.16545 15.1172 5.91524 15.1172Z" fill="#F89A03"/>
<path d="M33.6234 9.70178C35.4312 9.70178 36.9012 8.20338 36.9012 6.36066C36.9012 4.51794 35.4312 3.01953 33.6234 3.01953C31.8157 3.01953 30.3457 4.51794 30.3457 6.36066C30.3457 8.20338 31.8157 9.70178 33.6234 9.70178ZM33.6234 3.96321C34.9245 3.96321 35.9816 5.04079 35.9816 6.36703C35.9816 7.69328 34.9245 8.77086 33.6234 8.77086C32.3223 8.77086 31.2652 7.69328 31.2652 6.36703C31.2652 5.04079 32.3223 3.96321 33.6234 3.96321Z" fill="#F89A03"/>
<path d="M36.9587 14.0939C36.7023 14.0939 36.4958 14.3043 36.5021 14.5657L36.5209 19.52C36.5209 19.7815 36.7273 19.9855 36.9837 19.9855C37.2402 19.9855 37.4466 19.7751 37.4404 19.5137L37.4216 14.5594C37.4216 14.2979 37.2214 14.0875 36.9587 14.0939Z" fill="#F89A03"/>
<path d="M41.7514 10.7213C43.5591 10.7213 45.0291 9.22291 45.0291 7.38019C45.0291 5.53747 43.5591 4.03906 41.7514 4.03906C39.9436 4.03906 38.4736 5.53747 38.4736 7.38019C38.4736 9.22291 39.9436 10.7213 41.7514 10.7213ZM41.7514 4.98274C43.0524 4.98274 44.1096 6.06032 44.1096 7.38656C44.1096 8.71281 43.0524 9.79039 41.7514 9.79039C40.4503 9.79039 39.3931 8.71281 39.3931 7.38656C39.3931 6.06032 40.4503 4.98274 41.7514 4.98274Z" fill="#F89A03"/>
<path d="M44.061 11.349H39.4384C39.1694 11.349 38.9067 11.3745 38.6502 11.4319C37.9434 10.7496 36.9926 10.3288 35.9417 10.3288H31.3191C31.0501 10.3288 30.7874 10.3543 30.5309 10.4117C29.8241 9.72942 28.8733 9.30859 27.8224 9.30859H23.1998C22.1489 9.30859 21.1982 9.72942 20.4913 10.4117C20.2349 10.3607 19.9659 10.3288 19.7032 10.3288H15.0806C14.0297 10.3288 13.0789 10.7496 12.3721 11.4319C12.1156 11.3809 11.8466 11.349 11.5839 11.349H6.96129C4.79073 11.349 3.02051 13.1534 3.02051 15.3724L3.04553 19.5296C3.04553 19.7911 3.25195 19.9951 3.50841 19.9951C3.76488 19.9951 3.96504 19.7847 3.96504 19.5233L3.94002 15.366C3.94002 13.6699 5.29741 12.2863 6.96129 12.2863H11.5839C11.6214 12.2863 11.659 12.2863 11.6965 12.2863C11.3462 12.8856 11.1398 13.5934 11.1398 14.3394L11.1648 19.5169C11.1648 19.7783 11.3712 19.9823 11.6277 19.9823C11.8841 19.9823 12.0843 19.7719 12.0843 19.5105L12.0593 14.333C12.0593 12.637 13.4167 11.2533 15.0806 11.2533H19.7032C19.7407 11.2533 19.7782 11.2533 19.8158 11.2533C19.4655 11.8527 19.259 12.5541 19.259 13.3065V19.5169C19.259 19.7783 19.4655 19.9887 19.7219 19.9887C19.9784 19.9887 20.1848 19.7783 20.1848 19.5169V13.3065C20.1848 11.6104 21.5422 10.2268 23.2061 10.2268H27.8287C29.4926 10.2268 30.8499 11.6104 30.8499 13.3065V19.5169C30.8499 19.7783 31.0564 19.9887 31.3128 19.9887C31.5693 19.9887 31.7757 19.7783 31.7757 19.5169V13.3065C31.7757 12.5541 31.5756 11.8527 31.219 11.2533C31.2565 11.2533 31.2941 11.2533 31.3316 11.2533H35.9542C37.6181 11.2533 38.9755 12.637 38.9755 14.3267L38.9505 19.5041C38.9505 19.7656 39.1569 19.976 39.4071 19.976C39.6573 19.976 39.8637 19.7656 39.87 19.5105L39.895 14.3267C39.895 13.5743 39.6948 12.8729 39.3383 12.2735C39.3758 12.2735 39.4133 12.2735 39.4509 12.2735H44.0735C45.7374 12.2735 47.0947 13.6572 47.0947 15.3469L47.0697 19.5041C47.0697 19.7656 47.2761 19.976 47.5263 19.976C47.7766 19.976 47.983 19.7656 47.9892 19.5105L48.0143 15.3469C48.0143 13.1343 46.244 11.3298 44.0735 11.3298L44.061 11.349Z" fill="#F89A03"/>
<path d="M45.0855 15.1172C44.8291 15.1172 44.6289 15.3276 44.6289 15.589L44.6477 19.5231C44.6477 19.7846 44.8541 19.9886 45.1106 19.9886C45.367 19.9886 45.5672 19.7782 45.5672 19.5168L45.5484 15.5826C45.5484 15.3212 45.342 15.1172 45.0855 15.1172Z" fill="#F89A03"/>
</g>
<defs>
<clipPath id="clip0_3356_1054">
<rect width="45" height="18" fill="white" transform="translate(3 2)"/>
</clipPath>
</defs>
</svg>
