<svg width="31" height="27" viewBox="0 0 31 27" fill="none" xmlns="http://www.w3.org/2000/svg">
<g clip-path="url(#clip0_3356_1073)">
<path d="M12.6546 8.74775C12.9592 9.00523 13.3493 9.18054 13.8249 9.2682V9.66812C13.8249 9.81056 13.9371 9.92561 14.0761 9.92561H14.5945C14.7334 9.92561 14.8456 9.81056 14.8456 9.66812V9.3175C15.1876 9.27916 15.4869 9.17507 15.7434 9.01071C15.9946 8.84636 16.1923 8.63818 16.3206 8.39713C16.4488 8.15607 16.5183 7.90407 16.5183 7.6411C16.5183 7.3617 16.4435 7.08778 16.2992 6.83029C16.1549 6.5728 15.9251 6.34271 15.6205 6.15644C15.3159 5.9647 14.9365 5.84417 14.4822 5.78391H14.4662C14.183 5.75104 13.9318 5.66886 13.718 5.54286C13.5043 5.41685 13.3974 5.25798 13.3974 5.07719C13.3974 4.9731 13.4455 4.87449 13.5363 4.79231C13.6272 4.70465 13.7661 4.63891 13.9425 4.58961C14.1188 4.5403 14.3379 4.52387 14.5891 4.53482H14.6158C14.8136 4.53482 15.022 4.57317 15.2411 4.65535C15.3747 4.70465 15.4976 4.75944 15.6045 4.81422C15.7167 4.87449 15.8557 4.84162 15.9305 4.73753L16.2404 4.29925C16.3259 4.17325 16.2885 3.99794 16.1603 3.92124C16.0213 3.83906 15.8663 3.76784 15.69 3.69662C15.4068 3.58705 15.1235 3.51583 14.8403 3.48844V3.21452C14.8403 3.07208 14.7281 2.95703 14.5891 2.95703H14.0707C13.9318 2.95703 13.8196 3.07208 13.8196 3.21452V3.53227C13.5043 3.59253 13.2371 3.7021 13.0233 3.86097C12.8095 4.01985 12.6439 4.20064 12.537 4.40882C12.4301 4.617 12.3713 4.83614 12.3713 5.06623C12.3713 5.27441 12.4141 5.47712 12.5049 5.67982C12.5958 5.87704 12.724 6.05783 12.8897 6.21123C13.0661 6.37558 13.2798 6.51254 13.531 6.61663C13.7822 6.72072 14.0547 6.79194 14.354 6.82481C14.7281 6.8796 15.0059 6.97821 15.1983 7.13161C15.3907 7.285 15.4816 7.44936 15.4816 7.63014C15.4816 7.73971 15.4442 7.8438 15.3747 7.94242C15.3052 8.04103 15.1983 8.11772 15.0594 8.18347C14.9204 8.24373 14.7601 8.2766 14.5677 8.2766H14.5303C13.9852 8.2766 13.5737 8.16155 13.2905 7.92598C13.2317 7.87667 13.1729 7.82189 13.1248 7.76711C13.0393 7.66849 12.9004 7.64658 12.7935 7.72328L12.3606 8.02459C12.2377 8.11225 12.211 8.28756 12.3072 8.40808C12.4034 8.52861 12.5156 8.64366 12.6385 8.75322L12.6546 8.74775Z" fill="#F89A03"/>
<path d="M30.2475 18.9116C30.2207 18.7746 30.1299 18.6651 30.0016 18.6158C28.1045 17.8871 26.8273 15.9258 26.4265 15.241C28.0671 13.2797 27.9923 10.9405 27.9869 10.8418C27.9869 10.7323 27.9335 10.6227 27.848 10.5515C27.7625 10.4803 27.6556 10.4474 27.5487 10.4583C26.3997 10.6063 25.4859 11.1212 24.8126 11.6691C24.7751 11.6143 24.7217 11.5705 24.6576 11.5431C24.6362 11.5321 22.536 10.6337 19.7036 9.85572C20.3289 8.84221 20.6709 7.65886 20.6709 6.42621C20.6709 2.88166 17.8599 0 14.4023 0C10.9447 0 8.13375 2.88166 8.13375 6.42621C8.13375 7.36851 8.33682 8.28889 8.71625 9.12161C7.43902 9.46127 6.35418 10.0146 5.49378 10.7651C3.98676 12.08 3.08896 13.5701 2.80572 15.1972C2.45836 15.378 1.66209 15.7012 1.19716 15.4656C0.972708 15.3506 0.833762 15.1041 0.774977 14.7096C0.742913 14.4905 0.545183 14.3371 0.33142 14.3754C0.117658 14.4083 -0.0266316 14.611 0.00543279 14.8301C0.128346 15.6629 0.534495 16.0244 0.855138 16.1888C1.09028 16.3038 1.34679 16.3532 1.60331 16.3532C2.00946 16.3532 2.41026 16.2381 2.72022 16.1176C2.63471 18.928 4.33412 21.1797 4.75096 21.6946L5.05022 25.6829C5.06626 25.8911 5.23727 26.0555 5.44034 26.0555H7.60469C7.78104 26.0555 7.94136 25.9295 7.98411 25.7542L8.8071 22.4835C9.94004 22.8615 13.1892 23.6943 16.9995 22.4835L17.6355 25.7377C17.6729 25.924 17.8332 26.061 18.0203 26.061H19.9762C20.1418 26.061 20.2915 25.9514 20.3449 25.7925L21.542 22.2808C22.4291 22.7958 23.4659 23.0642 24.6415 23.0642C25.1011 23.0642 25.5874 23.0259 26.0898 22.9437C28.2434 22.5931 29.9856 21.6179 30.0551 21.5796C30.1246 21.5412 30.178 21.481 30.2154 21.4098C30.5681 20.6921 30.3062 19.2184 30.2475 18.9335V18.9116ZM14.4023 0.799853C17.4271 0.799853 19.8907 3.31994 19.8907 6.42621C19.8907 8.22314 19.0517 9.9105 17.6355 10.9678C14.8726 10.2337 12.5159 10.5131 11.0409 10.8692C9.71025 9.80641 8.91932 8.16288 8.91932 6.42621C8.91932 3.32542 11.3776 0.799853 14.4077 0.799853H14.4023ZM29.5527 20.9222C29.1306 21.1413 27.6556 21.859 25.9455 22.1384C24.1499 22.4287 22.6749 22.1548 21.542 21.3276C21.542 21.3276 21.5313 21.3221 21.526 21.3166C21.0129 20.9386 20.5694 20.4456 20.1953 19.8374C20.0831 19.6512 19.8372 19.5909 19.6555 19.7114C19.4738 19.8265 19.4151 20.0785 19.5326 20.2648C19.9067 20.8783 20.3556 21.3933 20.8633 21.8042L19.6876 25.2501H18.3302L17.6729 21.8754C17.6515 21.7604 17.582 21.6618 17.4859 21.607C17.3897 21.5522 17.2721 21.5358 17.1652 21.5741C12.6334 23.1903 8.72159 21.596 8.68419 21.5796C8.5773 21.5358 8.45973 21.5412 8.3582 21.5905C8.25666 21.6399 8.18184 21.7385 8.15512 21.848L7.30542 25.2447H5.80908L5.52585 21.4974C5.5205 21.4098 5.48309 21.3276 5.42431 21.2618C5.40293 21.2399 3.32409 18.8404 3.51114 15.9368C3.61802 14.2604 4.45703 12.7264 6.00681 11.3732C6.81911 10.6665 7.8612 10.1516 9.10637 9.85024C9.39495 10.3159 9.73696 10.7432 10.1324 11.1267C9.69956 11.2692 9.44304 11.3897 9.40029 11.4061C9.20256 11.4993 9.11705 11.7348 9.2079 11.9375C9.29875 12.1402 9.52855 12.2279 9.72628 12.1348C9.76369 12.1183 13.7771 10.294 18.7043 12.1457C18.747 12.1621 18.7951 12.1731 18.8379 12.1731C18.9982 12.1731 19.1479 12.0745 19.2066 11.9101C19.2815 11.702 19.1746 11.4719 18.9768 11.3952C18.8379 11.3404 18.6936 11.2911 18.5547 11.2472C18.7898 11.0336 19.0089 10.8035 19.212 10.557C21.7237 11.2253 23.6903 12.0142 24.2194 12.2279C23.7384 12.7264 23.4819 13.1428 23.4552 13.1866C23.3429 13.3729 23.3964 13.6194 23.5834 13.7399C23.7651 13.855 24.0056 13.8002 24.1232 13.6085C24.1339 13.592 25.224 11.8225 27.196 11.3459C27.1319 12.1019 26.8486 13.6413 25.673 14.9178C25.5607 15.0438 25.534 15.2246 25.6088 15.378C25.6676 15.4985 27.0731 18.2213 29.526 19.2841C29.6115 19.8265 29.665 20.5606 29.5634 20.9277L29.5527 20.9222Z" fill="#F89A03"/>
</g>
<defs>
<clipPath id="clip0_3356_1073">
<rect width="30.3917" height="26.05" fill="white"/>
</clipPath>
</defs>
</svg>
