<svg xmlns="http://www.w3.org/2000/svg" width="260" height="78" viewBox="0 0 260 78" fill="none"><path d="M31.9398 77.0657C31.716 77.0646 31.496 77.0066 31.3001 76.8972C31.1042 76.7878 30.9387 76.6304 30.8188 76.4396C30.4176 75.215 30.4857 73.8831 31.0096 72.7068C31.5698 71.0577 32.2392 69.4486 33.0131 67.8902C33.7237 65.8792 33.8316 63.7012 33.3231 61.6287C33.1254 60.5336 32.8219 59.4608 32.4168 58.4257L31.8682 58.6183C30.4611 59.1241 29.1016 59.4853 29.1016 59.4853C29.0345 59.5015 28.964 59.4963 28.9 59.4704C28.8359 59.4445 28.7814 59.3993 28.7438 59.3408C28.7048 59.2843 28.6839 59.217 28.6839 59.1481C28.6839 59.0792 28.7048 59.012 28.7438 58.9555C28.9346 58.7387 30.4849 56.7158 31.6059 56.5472C31.7317 56.5317 31.8594 56.5453 31.9792 56.587C32.0991 56.6287 32.2079 56.6975 32.2976 56.788C32.492 56.989 32.6459 57.2262 32.7507 57.4864C34.301 56.8603 34.5395 56.5231 34.5634 56.4509C34.5605 55.5133 34.3399 54.5895 33.9194 53.7536C33.4399 52.4275 32.816 51.1594 32.059 49.9726C31.4628 49.1056 31.2004 49.0815 31.2004 49.0815C29.9388 49.4733 28.7039 49.948 27.5036 50.5024C24.9516 51.7066 24.7846 52.2123 24.7846 52.2605C24.7846 52.3086 24.7846 52.9107 24.9516 53.3923C25.07 53.4086 25.1837 53.4496 25.2855 53.5128C26.2886 55.1958 26.9229 57.0763 27.1458 59.0277C27.1458 60.1115 25.3571 62.3271 23.7829 63.9647C22.3011 65.6219 20.6275 67.0935 18.7982 68.3478C18.2258 68.6849 17.7964 68.709 17.4864 68.3478C17.1763 67.9865 17.0332 67.4567 17.2002 66.4934C15.4319 68.707 13.3968 70.6891 11.1421 72.3937C10.9645 72.5098 10.7575 72.5716 10.5459 72.5716C10.3343 72.5716 10.1272 72.5098 9.94962 72.3937C9.23411 71.8879 9.47261 70.2744 9.80652 68.3959C9.81794 68.1633 9.81794 67.9302 9.80652 67.6975C9.40106 67.9384 8.7094 68.42 8.11313 68.8294C6.82307 70.0039 5.37836 70.9927 3.82004 71.7675C3.48614 71.7675 2.98527 71.9361 2.72292 71.623C2.46056 71.31 2.72292 70.6356 3.03297 69.865C3.34303 69.0943 3.70079 68.42 3.55769 68.0106C3.52653 67.9275 3.52909 67.8354 3.56482 67.7542C3.60054 67.6731 3.66655 67.6094 3.74849 67.5771C3.83393 67.5531 3.92516 67.562 4.00448 67.602C4.08381 67.6421 4.14558 67.7104 4.1778 67.7939C4.29013 68.634 4.10424 69.4872 3.65309 70.2021C3.47647 70.5293 3.3403 70.8771 3.24763 71.2377H3.65309C5.15597 70.6195 6.5746 69.8102 7.87463 68.8294C9.63957 67.5771 10.045 67.3363 10.2597 67.4567C10.3201 67.4876 10.3728 67.5317 10.4141 67.5859C10.4554 67.6401 10.4841 67.7029 10.4982 67.7698C10.5089 68.1999 10.4608 68.6294 10.3551 69.0462C10.2151 69.7466 10.1116 70.454 10.045 71.1655C10.045 72.1288 10.045 72.3455 10.212 72.3937C10.3789 72.4418 10.4743 72.3937 10.7128 72.3937C13.2141 70.3826 15.4859 68.0967 17.4864 65.5782C17.5483 65.5313 17.6236 65.506 17.701 65.506C17.7784 65.506 17.8538 65.5313 17.9157 65.5782C17.9783 65.6175 18.0263 65.6766 18.0522 65.7463C18.0781 65.816 18.0804 65.8924 18.0588 65.9636C18.0588 65.9636 17.868 66.5656 17.7487 67.1918C17.6295 67.8179 17.7487 68.4441 17.7487 68.5163C17.7487 68.5886 17.9872 68.5163 18.3212 68.3478C20.066 67.1139 21.6663 65.6838 23.0913 64.0851C25.4763 61.5564 26.2872 60.1114 26.2634 59.6539C26.0429 57.9818 25.5598 56.3558 24.8323 54.8373C25.0125 56.1915 24.9151 57.5686 24.5461 58.8832C23.0494 60.638 21.2864 62.1418 19.3229 63.3385C17.266 64.8286 15.0499 66.0807 12.7163 67.0714C12.12 67.24 11.5238 67.3604 11.2853 67.0714C11.0467 66.7824 11.5476 65.9395 12.8355 64.4704L14.1712 62.6161C13.4204 62.6308 12.6748 62.7442 11.9531 62.9532C10.6651 63.2181 8.9956 63.6516 7.39762 64.0851C5.79963 64.5186 4.15395 64.9521 2.88987 65.217C1.02953 65.6264 0.504821 65.5782 0.242465 65.3615C0.157915 65.2986 0.0913301 65.2142 0.0494483 65.1169C0.00756641 65.0197 -0.00812558 64.913 0.00396039 64.8076C0.00396039 64.1814 1.05338 63.6275 3.29533 62.5679C3.86774 62.303 4.53556 61.9899 4.82176 61.8213C4.43869 61.544 4.03157 61.3022 3.60539 61.0988C2.65137 60.5931 2.0074 60.2319 2.15051 59.7502C2.29361 59.2685 2.46056 59.3408 3.74849 59.0277C4.44016 58.8591 5.39418 58.6424 6.61055 58.4257L9.99732 57.7995C9.71112 57.5587 9.30566 57.2215 8.9479 56.8844C7.32607 55.4153 7.25452 55.0059 7.30222 54.7169C7.34992 54.4279 8.20854 54.163 13.0263 54.7169C14.362 54.8614 15.9838 55.0541 16.6039 55.0541H16.6993L16.1269 54.452C15.5306 53.874 15.0298 53.3683 15.1252 52.8866C15.1384 52.8096 15.1719 52.7376 15.2223 52.6782C15.2727 52.6189 15.338 52.5744 15.4114 52.5494C17.1318 52.4805 18.8541 52.6261 20.5392 52.9829C21.6125 53.1034 22.7335 53.2479 23.616 53.3923L24.2599 53.5128C24.2599 53.1756 24.2122 52.8866 24.1168 52.6458C24.1168 52.2123 24.3076 51.538 27.122 50.2375C28.3791 49.6022 29.6781 49.055 31.0096 48.5999C31.3674 48.5999 31.7728 48.7444 32.2499 49.2983C33.1344 50.5357 33.8485 51.8886 34.3725 53.3201C34.8019 54.3797 35.4458 56.2341 35.1358 56.8844C35.0165 57.1734 34.6349 57.5828 33.0131 58.2571C33.4278 59.326 33.7471 60.4301 33.9671 61.5564C34.4838 63.7784 34.3512 66.104 33.5855 68.2514C32.8292 69.7621 32.1758 71.3231 31.6297 72.9235C31.1673 73.9402 31.0419 75.0803 31.272 76.1747C31.3351 76.2754 31.4235 76.3575 31.5283 76.4125C31.633 76.4675 31.7503 76.4934 31.8682 76.4878C34.144 75.9922 36.29 75.0155 38.1648 73.6219C40.9412 71.9611 43.4438 69.8729 45.5823 67.4326C47.4903 65.0243 49.1837 61.4842 48.7544 59.389C48.7081 59.165 48.619 58.9523 48.4921 58.7628C46.8225 60.2078 42.4102 59.9188 40.5975 59.1963C40.3352 59.1963 40.0251 58.9314 39.9774 58.6183C39.9773 58.5282 39.999 58.4394 40.0406 58.3597C40.0821 58.28 40.1423 58.2117 40.2159 58.1607C41.5337 57.7386 42.9124 57.5432 44.2944 57.5828C45.6535 57.5199 47.0151 57.625 48.349 57.8958C48.4152 57.7398 48.4494 57.5719 48.4494 57.4021C48.4494 57.2324 48.4152 57.0644 48.349 56.9084C47.8958 55.4635 46.2024 51.2249 44.3898 47.0345C43.9128 45.9267 43.4834 44.9152 43.078 44.0241C40.7219 46.0729 37.7819 47.3126 34.6826 47.5643H34.5872C32.4011 47.5287 30.227 47.896 28.1714 48.648C28.1306 48.7448 28.0596 48.8255 27.9692 48.8776C27.8787 48.9298 27.7738 48.9507 27.6706 48.937C27.5949 48.9506 27.5169 48.9391 27.4482 48.9044C27.3795 48.8697 27.3236 48.8136 27.2889 48.7444C27.255 48.6904 27.237 48.6277 27.237 48.5637C27.237 48.4998 27.255 48.4371 27.2889 48.3831C27.3354 48.3097 27.4016 48.2513 27.4797 48.2145C26.7122 47.072 25.8758 45.9782 24.9754 44.9393C24.6654 44.554 24.3553 44.1446 23.9976 43.7351C22.2107 41.9959 19.953 40.8309 17.5102 40.3876C16.0893 40.1434 14.7475 39.5568 13.5988 38.6778C13.3937 38.4961 13.2443 38.259 13.1683 37.9945C13.0922 37.7299 13.0926 37.4489 13.1694 37.1846C13.6226 35.8601 16.5085 34.7763 22.4711 33.7889C26.1209 33.1229 29.8801 33.4385 33.3708 34.7041C35.3449 35.3411 37.1205 36.4865 38.5225 38.0275C38.7241 38.351 38.8618 38.7108 38.928 39.0872C39.4447 38.8376 39.9892 38.6517 40.5498 38.5333C39.6575 38.3547 38.8319 37.9295 38.1648 37.305C37.5808 36.7492 37.1115 36.0821 36.784 35.3422C36.4566 34.6023 36.2774 33.8043 36.2567 32.9942C36.2392 32.5203 36.3168 32.0477 36.4848 31.6049C36.6529 31.162 36.9079 30.7581 37.2346 30.4174C37.4731 30.1765 37.7832 29.8635 38.0932 29.5022C37.6588 29.4655 37.2281 29.393 36.8053 29.2855C36.5965 29.8264 36.2799 30.3182 35.8751 30.7304C35.5957 30.9023 35.2718 30.9861 34.945 30.9713C33.884 30.8894 32.8441 30.6289 31.8682 30.2006C29.7455 29.3336 27.0981 27.7923 26.8119 26.0343C27.0427 23.1342 27.9061 20.3215 29.3401 17.798C30.5242 15.0552 32.1886 12.5506 34.2533 10.4045C35.8287 9.52338 37.6458 9.18517 39.4289 9.44124C39.3427 9.14238 39.3427 8.82494 39.4289 8.52609C39.8455 7.81506 40.3684 7.17331 40.9791 6.62355C41.7662 5.90106 42.3863 5.5639 42.7679 5.66023C42.9088 5.6945 43.0325 5.77941 43.1159 5.89908C43.1993 6.01875 43.2367 6.16499 43.2211 6.31047C43.2211 7.05704 42.6487 7.73136 41.5754 9.00774L40.9076 9.80248C41.183 9.90171 41.4469 10.0309 41.6947 10.1878C41.9335 10.3168 42.1249 10.5198 42.2409 10.7669C42.3568 11.014 42.3911 11.2922 42.3386 11.5605C42.1955 12.1144 41.9093 12.283 41.6947 12.3312C41.0745 12.4757 40.4783 11.8013 40.1682 11.416C39.8582 11.0307 40.0013 11.1752 39.9297 11.0307C39.3096 11.8254 38.6179 12.7647 37.8309 13.8966C36.1505 16.4771 34.7284 19.22 33.5855 22.0847C32.8388 23.7085 32.3095 25.4254 32.0113 27.1903C32.5562 26.4396 33.0199 25.6322 33.3947 24.782C34.1579 23.3611 35.0642 21.5067 35.9228 19.7246C36.9069 17.2353 38.197 14.8808 39.7628 12.7165C40.1712 12.5553 40.6187 12.5243 41.0451 12.6276C41.4715 12.731 41.8563 12.9637 42.1478 13.2945L42.5533 13.7039C43.4357 12.2108 44.199 11.2956 44.9383 11.0789H45.5107C45.5107 10.7899 45.5107 10.4527 45.5107 10.1396C45.4196 8.27383 45.8759 6.42237 46.8225 4.81734C47.4207 3.72222 48.2285 2.75804 49.1988 1.9808C50.1692 1.20356 51.2829 0.628752 52.4751 0.289771C53.6997 -0.0498363 54.9867 -0.0915809 56.2304 0.167958C57.4741 0.427498 58.6392 0.980933 59.6302 1.7829C61.1518 2.88842 62.3938 4.34055 63.2555 6.02148C63.9239 7.66019 64.2174 9.4301 64.1141 11.1993C64.1628 12.237 64.0018 13.2739 63.6409 14.2469C63.2801 15.2198 62.727 16.1085 62.0153 16.8587C61.6102 17.3206 61.1127 17.6903 60.5556 17.9435C59.9985 18.1968 59.3945 18.3277 58.7835 18.3277C58.1726 18.3277 57.5686 18.1968 57.0115 17.9435C56.4544 17.6903 55.9569 17.3206 55.5518 16.8587C54.5732 16.1016 53.7606 15.1479 53.1654 14.0578C52.5701 12.9676 52.2052 11.7647 52.0935 10.525L51.5926 10.8621C51.2233 11.0524 50.8147 11.1516 50.4001 11.1516C49.9855 11.1516 49.5768 11.0524 49.2076 10.8621L48.8498 10.6213C48.7987 11.0642 48.8646 11.5128 49.0406 11.9218C49.6098 12.2234 50.1595 12.5613 50.6863 12.9332C51.3202 13.3032 51.8732 13.7992 52.3118 14.3911C52.7505 14.983 53.0656 15.6586 53.2383 16.3771C53.258 16.495 53.2534 16.6158 53.2247 16.7319C53.1959 16.8479 53.1437 16.9567 53.0714 17.0514C55.4564 18.1351 56.9351 18.6409 56.959 18.6649C57.0033 18.6721 57.0447 18.6917 57.0784 18.7215C57.1122 18.7513 57.1369 18.7902 57.1498 18.8335C57.1675 18.8754 57.1766 18.9205 57.1766 18.966C57.1766 19.0115 57.1675 19.0566 57.1498 19.0984C56.9606 19.5477 56.7119 19.969 56.4104 20.3507C56.2463 20.4772 56.0549 20.5627 55.8518 20.6004C55.6487 20.6381 55.4397 20.6268 55.2417 20.5675L55.5995 21.6031C56.0046 22.8154 56.5574 23.9722 57.2452 25.0469C57.5632 25.4445 57.9513 25.7793 58.39 26.0343C58.6064 25.8403 58.8697 25.7074 59.1532 25.649C59.7045 25.6428 60.2476 25.7841 60.7274 26.0584C61.4972 26.4221 62.2318 26.8575 62.9216 27.3588C64.7021 28.5831 66.246 30.1256 67.4771 31.9105C68.7941 34.3851 69.8723 36.982 70.6969 39.6651C71.4601 41.8085 72.2472 44.0482 73.0819 45.7099C74.0359 47.8774 74.6322 48.3831 74.9184 48.4554L75.1808 48.3109C75.3099 46.0419 74.884 43.7757 73.9406 41.7122C73.0061 38.559 71.6586 35.5461 69.9337 32.7534C68.3366 30.6439 66.3923 28.8272 64.1857 27.3829C62.5162 26.1547 61.4906 25.4322 61.6337 24.6856C61.7768 23.9391 62.2776 24.0113 62.6831 23.8909C66.386 23.1306 70.1638 22.8073 73.9406 22.9276C78.2098 23.048 83.8624 23.8427 86.4621 26.8772C87.3933 28.0634 87.9054 29.5298 87.9169 31.0435L88.6325 30.8027C88.673 30.7826 88.7171 30.7711 88.7622 30.7688C88.8073 30.7664 88.8524 30.7734 88.8947 30.7891C88.9371 30.8049 88.9759 30.8291 89.0087 30.8604C89.0415 30.8917 89.0676 30.9294 89.0856 30.9713C89.1168 31.0543 89.1142 31.1464 89.0785 31.2276C89.0428 31.3088 88.9768 31.3724 88.8948 31.4047C88.5856 31.5346 88.2665 31.6393 87.9408 31.7178C87.9115 32.526 87.8238 33.3309 87.6784 34.1261C86.8024 37.8181 85.1782 41.2866 82.9083 44.3131C80.7152 47.4489 77.8548 50.0492 74.5368 51.9233C70.3066 53.8593 65.9375 55.4694 61.4667 56.7399C58.2367 57.9214 54.855 58.6271 51.4257 58.8351C51.0441 58.8351 50.4239 58.2571 49.0406 55.4876C48.182 53.8018 47.1564 51.5139 46.0593 48.8166C45.2961 46.9622 44.5567 45.0597 43.9605 43.3739L43.6981 43.6388C44.1036 44.5058 44.5329 45.4932 44.986 46.5287C46.8464 50.8637 48.6113 55.2708 49.1122 56.8121C49.2017 57.0629 49.2374 57.33 49.2169 57.5957C49.1963 57.8615 49.12 58.1197 48.9929 58.3534C49.2477 58.629 49.4212 58.971 49.4938 59.3408C49.5423 62.5337 48.3525 65.6192 46.1786 67.9384C44.0366 70.4206 41.5166 72.5424 38.7133 74.224C36.6782 75.641 34.3702 76.6093 31.9398 77.0657ZM14.0519 61.9417C14.5528 61.9417 14.7436 62.0622 14.8628 62.2307C14.9821 62.3993 15.0059 62.6401 14.7197 62.9773C14.4335 63.3145 13.9327 63.9165 13.5511 64.3741C13.0347 64.9113 12.564 65.4913 12.1439 66.1081L12.7401 65.9876C15.2921 65.217 23.616 59.5335 24.1407 58.1848C24.4982 56.8262 24.5713 55.4072 24.3553 54.0185C23.5683 53.874 21.9703 53.6573 20.2769 53.4405C18.7688 53.22 17.2446 53.1314 15.7214 53.1756C15.9566 53.4737 16.2116 53.7553 16.4847 54.0185C17.0809 54.5965 17.4148 54.9577 17.3671 55.319C17.3549 55.3928 17.3273 55.4631 17.2862 55.5254C17.2451 55.5877 17.1914 55.6404 17.1286 55.6802C16.8424 55.8488 16.0315 55.6802 12.9548 55.4153C11.3183 55.183 9.66985 55.0463 8.01773 55.0059C8.90075 56.0422 9.89236 56.9789 10.9752 57.7995C11.0316 57.8381 11.0739 57.8944 11.0955 57.9597C11.117 58.025 11.1167 58.0957 11.0944 58.1607C11.0775 58.2217 11.0439 58.2766 10.9975 58.3192C10.9511 58.3618 10.8938 58.3904 10.8321 58.4016C8.17326 58.7714 5.53747 59.2941 2.93757 59.967C3.17608 60.1355 3.62924 60.3764 3.91544 60.5449C4.84561 61.0266 5.41803 61.3397 5.51343 61.7491C5.54321 61.8131 5.55865 61.883 5.55865 61.9538C5.55865 62.0245 5.54321 62.0944 5.51343 62.1585C5.34648 62.3993 4.86946 62.6401 3.65309 63.194C3.00912 63.5071 2.24591 63.8684 1.6735 64.1814C1.28845 64.3839 0.954055 64.6721 0.695625 65.0243C1.4381 65.0571 2.18055 64.9593 2.88987 64.7353C4.1301 64.4464 5.70423 64.0369 7.23067 63.6275C8.7571 63.2181 10.689 62.7124 12.0008 62.4234C12.6715 62.2273 13.3578 62.0903 14.0519 62.014V61.9417ZM40.8837 58.7869C43.1192 59.4996 45.5304 59.4059 47.705 58.522C46.5217 58.3385 45.3233 58.2739 44.1274 58.3293C43.0371 58.319 41.9491 58.4321 40.8837 58.6665V58.7869ZM31.6774 57.4864C31.0168 57.7397 30.4389 58.1733 30.0079 58.7387L31.6774 58.1848L32.1544 58.0162C32.0906 57.8458 31.9933 57.6901 31.8682 57.5587C31.8682 57.5587 31.7728 57.366 31.6774 57.366V57.4864ZM44.3421 42.8441C44.9622 44.578 45.7254 46.601 46.584 48.6721C47.6573 51.3212 48.6829 53.6091 49.5176 55.2708C50.9248 58.0162 51.4495 58.2812 51.5211 58.3052C54.8333 58.0748 58.0949 57.3609 61.2044 56.186C65.6392 54.9243 69.9694 53.3138 74.1552 51.3694C77.3904 49.556 80.1786 47.0288 82.3121 43.976C84.5769 41.036 86.2023 37.6469 87.0822 34.0298C87.2356 33.3414 87.3235 32.6398 87.3445 31.9346C86.8403 31.9675 86.3368 31.8592 85.8896 31.6215C85.6258 33.3482 85.2756 35.0602 84.8402 36.7511C83.9137 39.7574 82.342 42.5202 80.2371 44.843C78.9019 46.4204 77.3521 47.7987 75.6339 48.937C75.5636 49.0399 75.4714 49.1257 75.3642 49.1882C75.2569 49.2507 75.1373 49.2883 75.0138 49.2983C74.4611 49.6021 73.8773 49.8444 73.2727 50.0208L71.1262 50.5747C69.1704 51.0804 66.523 51.7788 63.971 52.5254C63.7325 53.5368 62.1345 54.5724 60.7751 55.2708C59.5967 55.9013 58.3581 56.4096 57.0782 56.788C55.7108 57.2055 54.8045 57.2536 54.3593 56.9325C54.25 56.8552 54.1635 56.7494 54.1089 56.6265C54.0543 56.5035 54.0337 56.3679 54.0492 56.2341C54.0492 55.5839 54.9317 54.6687 60.5843 52.8625L63.3271 52.0196C62.6917 48.9897 61.7651 46.0295 60.5604 43.1812C59.2737 39.3849 57.4588 35.7927 55.1702 32.5126C52.8346 29.6867 49.5799 27.7917 45.9878 27.1662H45.7492C44.503 26.8777 43.3217 26.3548 42.2671 25.6249C41.9093 26.1306 41.4562 26.7568 40.9076 27.4793C40.359 28.2017 40.0013 28.6111 39.572 29.141H39.8582C41.882 29.2304 43.9097 29.1337 45.9162 28.852C47.8312 28.5408 49.7947 28.8264 51.5449 29.6708C53.1541 30.4213 54.5069 31.6364 55.4325 33.1628C56.2421 34.7865 56.4453 36.6502 56.005 38.4128C55.8044 39.5601 55.3831 40.6564 54.7647 41.6399C55.0137 41.7751 55.2528 41.928 55.4803 42.0975L56.5774 42.8441C58.2946 43.976 59.4156 44.7466 59.4156 45.6136C59.3995 45.8352 59.3275 46.0489 59.2065 46.2344C59.0854 46.4199 58.9193 46.571 58.7239 46.6732C55.8083 47.8453 52.6186 48.1381 49.5415 47.5161C49.2652 47.457 49.0049 47.3381 48.7784 47.1676C48.552 46.9972 48.3648 46.7792 48.2297 46.5287C47.8962 45.34 47.8962 44.081 48.2297 42.8922C48.396 42.2395 48.4762 41.5674 48.4682 40.8934C48.4682 40.4358 48.3489 39.7374 48.2535 39.0149C48.1581 38.2924 48.1343 38.1239 48.0866 37.6904C47.422 38.0301 46.7165 38.2811 45.9878 38.4369H45.4392L43.8889 38.5333C44.2918 39.2962 44.604 40.1046 44.8191 40.9415C44.8596 41.2557 44.8383 41.5748 44.7564 41.8806C44.6745 42.1864 44.5337 42.4729 44.3421 42.7237V42.8441ZM62.9455 52.7662L60.5604 53.4646C54.8363 55.2949 54.4785 56.1137 54.4547 56.2582C55.1755 56.4045 55.9233 56.329 56.6012 56.0415C57.8354 55.6623 59.0329 55.1706 60.1788 54.5724C60.9181 54.1892 61.6207 53.7377 62.2776 53.2238C62.5212 53.0572 62.7452 52.8633 62.9455 52.6458V52.7662ZM42.3386 24.7338L42.4817 24.8542C43.4677 25.5506 44.577 26.0493 45.7492 26.3233H45.9639C49.6936 26.9851 53.0722 28.9553 55.5041 31.8864C56.6236 33.3074 57.5686 34.86 58.3185 36.5103C59.2009 38.2924 60.1311 40.4358 61.0136 42.7477C62.1894 45.6255 63.1229 48.5982 63.8041 51.6343C66.3799 50.9118 68.9558 50.2375 70.9592 49.7318L73.1058 49.1779C73.4756 49.076 73.8349 48.9389 74.1791 48.7685C72.9865 47.7811 71.794 44.6021 70.1006 39.8337C69.2306 37.2145 68.1208 34.6829 66.7854 32.2717C65.6053 30.5627 64.1262 29.0855 62.4207 27.9127C61.4739 27.0922 60.331 26.536 59.1055 26.2992H58.8909L59.5825 26.6123C60.6797 27.118 61.7768 27.6237 62.1584 28.7797C62.3015 29.1891 62.4207 29.719 62.1584 30.0079C61.896 30.2969 61.2521 30.0079 60.6558 29.8634C60.4576 29.7624 60.2499 29.6817 60.0357 29.6226L60.4889 30.2006C61.2998 31.2362 62.3969 32.6089 61.7052 33.5481C61.5383 33.7889 61.1567 34.0539 60.3935 33.8853C58.541 33.2624 56.9357 32.0552 55.8142 30.4414C56.0059 29.302 56.5005 28.2366 57.2452 27.3588C57.4311 27.0567 57.6469 26.7743 57.8892 26.5159C57.4333 26.236 57.0296 25.8773 56.6966 25.4563C55.9773 24.2727 55.4083 23.0024 55.0032 21.6753C54.8601 21.2418 54.6932 20.7602 54.5024 20.2785C54.0954 20.1777 53.6804 20.1133 53.2622 20.0858H50.6386C50.0185 20.0858 49.9231 20.2544 49.9231 20.2544C49.9231 20.2544 49.9231 20.5916 50.4478 22.157C50.7746 22.9935 51.1737 23.7993 51.6403 24.5652C51.8073 24.8061 52.5705 24.4448 53.1191 24.204C53.6676 23.9632 54.5262 23.5778 55.0271 23.7946C55.1363 23.8306 55.2349 23.8934 55.314 23.9775C55.3931 24.0616 55.4503 24.1643 55.4803 24.2762C55.5334 24.4018 55.5608 24.537 55.5608 24.6736C55.5608 24.8102 55.5334 24.9454 55.4803 25.071C55.2417 25.6008 54.5501 25.8416 53.8823 26.0584C53.5038 26.1581 53.1476 26.3297 52.8328 26.5641C52.8328 26.5641 52.8328 26.7327 53.1668 27.3107C53.5209 27.7985 53.9032 28.2649 54.3116 28.7075C54.9078 29.4059 55.2417 29.7671 55.2894 30.0561C55.3125 30.1612 55.2959 30.2713 55.243 30.3648C55.1901 30.4582 55.1046 30.5285 55.0032 30.5618C54.3116 30.8027 51.9742 29.2373 50.7101 26.6123C50.4478 26.0102 50.1616 25.4322 49.8754 24.8542C48.659 22.4459 47.6096 20.3267 48.1104 19.1707C48.6113 18.0147 51.6642 17.6535 52.8805 17.7016L51.3303 16.8587C49.4714 15.7754 47.9065 14.2449 46.7748 12.4034L46.4171 11.8736H46.2978C46.3151 12.9964 45.972 14.0947 45.3199 15.0044C45.1907 15.1439 45.0299 15.2497 44.8512 15.3126C44.6726 15.3755 44.4815 15.3937 44.2944 15.3656C44.1404 15.3533 43.9972 15.2811 43.8949 15.1643C43.7926 15.0475 43.7391 14.8952 43.7458 14.7395C43.9321 13.9053 44.3547 13.1438 44.9622 12.5479C45.1768 12.283 45.4392 11.994 45.6777 11.7532L45.3199 11.8014C44.9383 11.8014 44.2944 12.4757 43.2211 14.4264L43.4119 14.8358C43.6504 15.4221 43.6504 16.0798 43.4119 16.6661C42.2485 18.6846 40.9662 20.6307 39.572 22.4941L38.8564 24.1799C38.0932 26.0584 37.497 27.5033 37.02 28.5389C37.524 28.6477 38.0336 28.7281 38.5464 28.7797C39.6135 27.5236 40.6165 26.2134 41.5516 24.8542C41.264 24.6079 41.0274 24.3067 40.8555 23.9678C40.6836 23.6289 40.5797 23.259 40.5498 22.8794C40.5498 22.3737 40.6929 22.0606 40.9553 21.9161C41.0758 21.8364 41.2167 21.7939 41.3607 21.7939C41.5048 21.7939 41.6457 21.8364 41.7662 21.9161C42.0503 22.104 42.2868 22.3566 42.4567 22.6536C42.6265 22.9505 42.7249 23.2836 42.7441 23.626C42.6948 24.0218 42.5561 24.4008 42.3386 24.7338ZM26.2634 34.3669C25.0078 34.3685 23.7549 34.4813 22.5188 34.7041C15.7214 35.836 14.0042 36.9438 13.7419 37.6422C13.7419 37.6422 13.7419 38.0034 14.0281 38.461C15.0972 39.244 16.3288 39.771 17.6295 40.0023C20.1898 40.4069 22.5728 41.5723 24.4746 43.3498L25.4525 44.554C26.3982 45.6867 27.2516 46.8947 28.0045 48.1664C28.5512 47.9597 29.1085 47.7828 29.674 47.6366C31.2832 47.2477 32.9326 47.0537 34.5872 47.0586C36.3251 47.0137 38.03 46.5689 39.572 45.7581C40.7434 45.1837 41.8341 44.4549 42.8156 43.5906C42.1754 42.0255 41.418 40.5119 40.5498 39.0631C39.9694 39.3154 39.4176 39.6303 38.9041 40.0023C38.893 40.6759 38.7721 41.3431 38.5464 41.9771C38.1073 43.4059 37.2812 44.6822 36.1613 45.6618C34.9927 46.6251 34.0625 46.4083 33.6093 45.9508C33.1562 45.4932 33.0846 44.1686 34.134 43.0367C35.2249 41.935 36.4057 40.928 37.6639 40.0264L38.1886 39.6651C38.194 39.2719 38.1039 38.8833 37.9263 38.5333C36.6197 37.1153 34.9786 36.0548 33.1562 35.4507C30.9403 34.6381 28.5968 34.2382 26.2395 34.2706L26.2634 34.3669ZM72.6526 23.5778C69.3608 23.5545 66.0756 23.8773 62.8501 24.5411C62.3969 24.6616 62.2776 24.782 62.2776 24.8301C62.2776 24.8783 62.2776 24.9987 62.8024 25.4804C63.3271 25.962 63.8518 26.3233 64.5673 26.8531C66.8308 28.3441 68.8303 30.2083 70.4822 32.3681C72.2393 35.2247 73.6184 38.3014 74.5845 41.5195C75.293 43.5432 75.7028 45.6611 75.8009 47.8051C77.2135 46.7807 78.5022 45.5925 79.6408 44.265C81.6696 42.0209 83.1914 39.3586 84.1009 36.4621C84.5653 34.6792 84.9237 32.8697 85.1741 31.0435C84.9152 30.8059 84.7046 30.5196 84.554 30.2006C84.1724 29.3818 84.3155 28.563 84.8641 28.2981C84.9651 28.2255 85.0859 28.1865 85.2099 28.1865C85.3339 28.1865 85.4548 28.2255 85.5557 28.2981C85.8181 28.4907 86.0566 28.9483 85.8658 30.7063C86.2795 30.9667 86.7623 31.0927 87.2491 31.0676C87.2117 29.6954 86.7253 28.3743 85.8658 27.3107C83.4807 24.4448 77.9713 23.7223 73.9406 23.6019L72.6526 23.5778ZM48.4205 37.0883C48.4205 37.6422 48.5636 38.172 48.6113 38.6537C48.659 39.1353 48.8021 40.0746 48.8498 40.5562C48.8504 41.2854 48.7704 42.0124 48.6113 42.7237C48.3012 43.793 48.3012 44.9296 48.6113 45.9989C48.6113 46.2398 49.0168 46.4324 49.4938 46.5769C51.057 46.9454 52.6742 47.0189 54.2639 46.7937C55.5864 46.6784 56.8783 46.3278 58.08 45.7581C58.3423 45.5654 58.4854 45.3969 58.4854 45.2283C58.4854 45.0597 57.2452 43.8796 55.9334 43.0127L54.8601 42.3624C54.5711 42.1569 54.2682 41.9718 53.9538 41.8085C53.1846 42.0876 52.383 42.2656 51.5688 42.3383C49.4222 42.531 49.1837 42.1698 49.1837 42.0253C49.1837 41.8808 48.9214 41.6159 49.3984 41.2546C50.0816 40.7427 50.9007 40.4485 51.7506 40.4099C52.6005 40.3713 53.4425 40.59 54.1685 41.0379C54.7854 40.1201 55.1927 39.0754 55.361 37.9794C55.7673 36.3671 55.5985 34.6619 54.884 33.1628C54.0128 31.7534 52.7527 30.6317 51.2587 29.9357C49.6297 29.1403 47.7975 28.8712 46.0116 29.165C43.9663 29.4591 41.8978 29.5558 39.8343 29.454H39.0473C38.5464 30.032 38.1171 30.4896 37.8309 30.7786C37.5678 31.0561 37.3643 31.3854 37.233 31.7459C37.1017 32.1064 37.0454 32.4903 37.0677 32.8738C37.0838 33.5937 37.2419 34.303 37.5326 34.9605C37.8234 35.618 38.241 36.2103 38.761 36.703C39.7783 37.5641 41.0856 37.9954 42.4102 37.9071C42.4102 37.6904 42.4102 37.016 42.8156 36.9438C43.2211 36.8715 43.2688 36.9438 43.8412 37.8589L45.3438 37.6181H45.8923C46.6235 37.459 47.3296 37.1997 47.9912 36.8475C47.7893 35.7765 47.8301 34.6732 48.1104 33.6204C48.4414 33.0608 48.9143 32.6005 49.4804 32.2873C50.0464 31.974 50.685 31.8189 51.3303 31.8382C51.6354 31.8952 51.9107 32.0595 52.1072 32.302C52.3037 32.5445 52.4087 32.8495 52.4035 33.1628C52.4035 34.4874 51.0679 35.7397 49.8515 36.5585L48.4205 37.0883ZM38.1648 40.484C36.8885 41.3715 35.6986 42.3795 34.6111 43.4943C33.8478 44.3131 33.7763 45.1319 34.1102 45.4932C34.4441 45.8544 35.0642 45.7099 35.7559 45.1319C36.7595 44.2385 37.4949 43.0787 37.8786 41.7844C38.0142 41.361 38.1101 40.9256 38.1648 40.484ZM40.9553 38.5333C41.1559 38.7395 41.3247 38.9749 41.4562 39.2317C41.6947 39.6652 42.0047 40.2431 42.3863 41.0138L43.3165 43.0127L43.5073 42.7718C43.0183 41.3827 42.6043 39.9677 42.2671 38.5333C41.8311 38.5806 41.3913 38.5806 40.9553 38.5333ZM42.9349 38.5333C43.1495 39.2798 43.5311 40.4599 44.032 41.9049C44.147 41.6743 44.1886 41.4136 44.1513 41.1583C43.9496 40.2368 43.6289 39.3462 43.1972 38.5092L42.9349 38.5333ZM49.7323 41.6881C50.3266 41.7565 50.9267 41.7565 51.5211 41.6881C52.0349 41.6445 52.545 41.5641 53.0475 41.4473C52.5216 41.194 51.9395 41.083 51.3584 41.1252C50.7772 41.1674 50.2169 41.3614 49.7323 41.6881ZM50.734 32.3199C50.2543 32.3637 49.7906 32.5164 49.3776 32.7667C48.9646 33.0169 48.613 33.3581 48.349 33.7649C48.1658 34.622 48.1658 35.5087 48.349 36.3658L49.2076 35.8601C50.7101 34.8486 51.5926 33.8371 51.4495 33.0905C51.3064 32.344 51.1156 32.3921 50.9248 32.344L50.734 32.3199ZM58.4139 26.8531C58.2231 27.0698 57.9846 27.3588 57.7222 27.7201C57.1223 28.5102 56.6992 29.4222 56.482 30.3933C56.9007 30.9987 57.4263 31.5212 58.0323 31.9346C58.7909 32.5676 59.6665 33.0424 60.6081 33.3314C60.8228 33.3314 61.109 33.3314 61.2044 33.3314C61.2998 33.3314 60.5843 31.5733 59.988 30.8027C59.3917 30.032 59.1055 29.6708 59.2725 29.3336C59.2711 29.2301 59.3063 29.1296 59.3719 29.0501C59.4376 28.9706 59.5292 28.9174 59.6302 28.9001C60.0542 28.9279 60.4681 29.0426 60.8466 29.2373C61.1013 29.3472 61.3646 29.4358 61.6337 29.5022C61.6626 29.3349 61.6626 29.1638 61.6337 28.9965C61.3475 28.1054 60.4412 27.696 59.4156 27.2384L58.4139 26.8531ZM38.3079 9.99514C37.0258 9.94606 35.755 10.2543 34.6349 10.8862C32.6282 12.9858 31.0123 15.4331 29.8648 18.111C28.4437 20.4558 27.5483 23.0862 27.2412 25.8175C27.4797 26.9494 29.3878 28.4666 32.0113 29.4781C33.7763 30.2006 35.0642 30.3451 35.422 30.0802C35.6935 29.7289 35.8959 29.3283 36.0182 28.9001C35.7097 28.7936 35.437 28.6017 35.2312 28.3462C35.1501 28.2209 35.1069 28.0745 35.1069 27.9248C35.1069 27.7751 35.1501 27.6287 35.2312 27.5033C35.5889 26.829 36.8292 25.0951 38.284 23.0239L38.928 22.0847C40.2159 19.0021 41.313 16.3048 42.4579 14.3782C42.3099 14.1696 42.1422 13.976 41.957 13.8002C41.3369 13.2704 40.6452 13.0537 40.2636 13.3186C39.882 13.5835 39.8582 13.7039 38.9041 15.5101C38.2602 16.7624 37.4731 18.3519 36.6622 20.0377C35.8513 21.7235 34.8496 23.7946 34.0625 25.2396C32.8223 27.6478 32.4407 27.8646 32.1544 27.9368C32.058 27.9644 31.9555 27.9607 31.8613 27.9261C31.7671 27.8915 31.6861 27.8279 31.6297 27.7442C31.4628 27.5274 31.3674 27.0939 31.7967 25.6008C32.1516 24.3425 32.5736 23.1044 33.0608 21.892C34.2441 18.9397 35.7057 16.109 37.4254 13.439C38.2999 12.1867 39.095 11.1511 39.8105 10.3323C39.8105 10.3323 39.8105 10.1396 39.8105 10.0674C39.3108 10.0244 38.8087 10.0163 38.3079 10.0433V9.99514ZM85.1741 28.9001C84.9833 28.9001 84.9356 29.4059 85.1741 29.9116V30.1284C85.2532 29.7228 85.2532 29.3057 85.1741 28.9001ZM52.2127 18.1833C50.7101 18.1833 48.9929 18.4723 48.659 19.267C48.3251 20.0618 49.3745 22.3015 50.4001 24.3967C50.6863 24.9746 50.9964 25.5526 51.2587 26.1547C51.9045 27.5551 52.9405 28.7351 54.24 29.5504C54.0939 29.3548 53.9345 29.1697 53.763 28.9965C52.7374 27.8164 51.6642 26.5882 52.3081 25.938C52.6972 25.6143 53.1538 25.3837 53.6438 25.2636C54.1208 25.0951 54.6932 24.9024 54.8124 24.6375C54.8321 24.5919 54.8423 24.5427 54.8423 24.493C54.8423 24.4433 54.8321 24.3941 54.8124 24.3485C54.5501 24.3485 53.9061 24.5412 53.4291 24.7579C52.5705 25.1432 51.5926 25.5767 51.0441 24.7579C50.5566 23.9923 50.1337 23.1867 49.78 22.3496C49.0168 20.4712 49.2076 20.0617 49.303 19.9413C49.613 19.3393 50.6863 19.3633 52.1889 19.5078H53.1906C53.5354 19.5163 53.8787 19.5566 54.2162 19.6283C53.8823 18.8817 53.5484 18.3037 53.2383 18.2796L52.2127 18.1833ZM37.7832 24.9265C36.8292 26.2751 36.0421 27.3348 35.7797 27.8887C35.7797 27.8887 35.7797 28.0091 35.7797 28.0332C35.9188 28.1943 36.101 28.3114 36.3044 28.3703V28.1536C36.8053 27.2625 37.2823 26.1306 37.7832 24.9265ZM41.2892 22.5182C41.2621 22.6452 41.2621 22.7765 41.2892 22.9035C41.3143 23.4266 41.5261 23.9227 41.8855 24.3003C42.0081 24.114 42.1044 23.9114 42.1717 23.6983C42.1164 23.3486 41.9488 23.0271 41.6947 22.7831C41.5879 22.6515 41.4478 22.5516 41.2892 22.4941V22.5182ZM54.9794 19.7487C55.3022 19.8129 55.6344 19.8129 55.9573 19.7487C56.1254 19.5108 56.2769 19.2614 56.4104 19.0021C55.9811 18.8335 55.194 18.5445 54.1685 18.087C54.5065 18.6045 54.7789 19.1627 54.9794 19.7487ZM42.7918 15.1729C42.6248 15.4619 42.4817 15.775 42.3148 16.1122C41.7901 17.1718 41.2415 18.376 40.7168 19.5801C41.4705 18.5648 42.1482 17.4942 42.7441 16.3771C42.902 15.9944 42.919 15.5672 42.7918 15.1729ZM52.9044 9.6339C52.6614 10.9914 52.9523 12.391 53.7153 13.5353C54.367 14.5609 55.1715 15.4788 56.1004 16.2567C56.4406 16.6709 56.867 17.0042 57.3493 17.233C57.8316 17.4618 58.358 17.5805 58.8909 17.5805C59.4238 17.5805 59.9501 17.4618 60.4324 17.233C60.9148 17.0042 61.3412 16.6709 61.6814 16.2567C62.9397 14.8487 63.5993 12.9977 63.5179 11.1029C63.5841 9.63684 63.3985 8.17022 62.9693 6.76804C62.9816 6.82355 62.9816 6.88112 62.9693 6.93662C62.9325 7.00224 62.881 7.05822 62.8188 7.10005C62.7567 7.14188 62.6857 7.16839 62.6116 7.17745C62.1345 7.17745 61.5621 6.81621 60.465 5.97331C59.8502 5.55337 59.2132 5.16748 58.557 4.81734H57.746C56.8508 4.90886 55.9954 5.23774 55.2666 5.77063C54.5378 6.30352 53.9615 7.02149 53.5961 7.85177C53.5436 8.50145 53.303 9.1212 52.9044 9.6339ZM49.6846 12.9573C50.0185 13.4631 50.4239 14.041 50.8055 14.5468C51.2745 15.2772 51.8728 15.914 52.5705 16.4252V16.3048C52.3836 15.6809 52.0768 15.1003 51.6675 14.5961C51.2583 14.092 50.7547 13.6742 50.1854 13.3667C50.027 13.22 49.8597 13.0833 49.6846 12.9573ZM47.2995 11.8736C48.2483 13.4693 49.5252 14.8408 51.0441 15.8954L50.3762 15.0766C49.705 14.2032 49.0915 13.2861 48.5398 12.3312C48.1264 12.1361 47.695 11.9829 47.2518 11.8736H47.2995ZM44.2944 14.7154C44.3853 14.7108 44.4739 14.6844 44.5527 14.6383C44.6315 14.5922 44.6983 14.5278 44.7475 14.4505C45.1394 13.9447 45.4015 13.3491 45.5107 12.7165L45.3199 13.15C44.8508 13.5744 44.4976 14.1134 44.2944 14.7154ZM40.5498 10.4768C40.647 10.6621 40.7587 10.8392 40.8837 11.0066C41.313 11.5605 41.647 11.705 41.7424 11.6809C41.8378 11.6569 41.7424 11.6809 41.8855 11.416C42.0286 11.1511 41.8855 11.0548 41.5038 10.7417C41.2112 10.5567 40.8881 10.4262 40.5498 10.3564V10.4768ZM46.3932 11.0548C46.9301 11.082 47.4603 11.1875 47.9673 11.3679H48.2774C48.1587 10.8611 48.1587 10.3333 48.2774 9.82656C47.6965 9.15298 47.3453 8.30871 47.2757 7.41828C47.2411 6.78396 47.3474 6.14985 47.5867 5.56234C47.826 4.97482 48.1924 4.44875 48.659 4.0226C49.0276 3.68264 49.4694 3.43387 49.9496 3.29594C50.4297 3.15801 50.9351 3.13471 51.4257 3.22787C51.8128 3.29831 52.1807 3.45059 52.5055 3.67471C52.8302 3.89883 53.1043 4.18973 53.3099 4.52834C54.2433 3.67556 55.4618 3.21097 56.7205 3.22787C57.4805 3.34903 58.205 3.63673 58.8432 4.07077C59.5137 4.19238 60.1693 4.38614 60.7989 4.64876C61.3612 4.89257 61.8903 5.20823 62.3731 5.58799C61.5412 4.3454 60.4902 3.26784 59.2725 2.40906C58.3747 1.65338 57.3108 1.1257 56.1698 0.870128C55.0287 0.614554 53.8436 0.638515 52.7136 0.940006C50.7743 1.49056 49.0791 2.69281 47.9082 4.34804C46.7373 6.00328 46.1608 8.0124 46.274 10.0433C46.2978 10.3805 46.3217 10.7176 46.3217 11.0548H46.3932ZM49.0645 9.75431C49.2181 9.88573 49.3861 9.99886 49.5653 10.0915C49.8445 10.2542 50.1612 10.3399 50.4836 10.3399C50.8059 10.3399 51.1226 10.2542 51.4018 10.0915C51.7717 9.88688 52.0963 9.60826 52.3558 9.27265C52.5004 8.69266 52.7001 8.12812 52.9521 7.58686C52.9293 7.47857 52.8684 7.38229 52.7807 7.31586C52.693 7.24944 52.5844 7.21738 52.4751 7.22562C51.9796 7.09126 51.4545 7.12179 50.9776 7.31267C50.5007 7.50356 50.0974 7.84463 49.8277 8.28526C49.4627 8.71919 49.1797 9.21714 48.9929 9.75431H49.0645ZM40.1205 9.6339H40.3352L41.1938 8.59834C42.1478 7.46645 42.6725 6.84029 42.6725 6.35864C42.2291 6.5652 41.8316 6.8601 41.5038 7.22562C40.971 7.70777 40.5127 8.26791 40.1444 8.88733C40.0491 9.12547 40.0406 9.39005 40.1205 9.6339ZM50.7817 3.97444C50.1364 3.98518 49.5173 4.23354 49.0406 4.67284C48.6462 5.03095 48.3381 5.47529 48.1397 5.97197C47.9413 6.46864 47.8579 7.00451 47.8958 7.53869C47.9455 8.15843 48.1507 8.75518 48.4921 9.27265C48.7216 8.7906 49.0188 8.34449 49.3745 7.9481C49.6999 7.48217 50.1451 7.11479 50.6621 6.88561C51.1791 6.65643 51.7482 6.57414 52.3081 6.64763C52.2547 6.61295 52.213 6.5625 52.1889 6.50313C51.9981 6.19006 52.1889 5.80473 52.332 5.68432C52.4516 5.48955 52.5959 5.31142 52.7613 5.1545C52.6196 4.85763 52.409 4.59971 52.1474 4.40265C51.8858 4.20558 51.5809 4.07521 51.2587 4.0226L50.7817 3.97444ZM52.809 6.74396C52.9947 6.78585 53.162 6.88722 53.286 7.03296C53.6858 6.27735 54.2495 5.62278 54.9351 5.11817C55.6207 4.61356 56.4104 4.27197 57.2452 4.11894C57.0387 4.03487 56.8222 3.97821 56.6012 3.95036C55.6782 3.9412 54.7791 4.24665 54.0492 4.81734C53.8604 4.94375 53.6846 5.08897 53.5245 5.25083C53.5364 5.41116 53.5364 5.57216 53.5245 5.73248C53.5259 5.94716 53.4563 6.15617 53.3267 6.32633C53.1971 6.49649 53.0149 6.61805 52.809 6.67171V6.74396ZM60.465 5.39532L60.7035 5.58799C61.1721 6.00823 61.6933 6.3645 62.2538 6.64763L62.0153 6.35864C61.5553 5.93374 61.0322 5.58431 60.465 5.32308V5.39532Z" fill="#F59B09"></path><path d="M100.533 32.071V11.3035H109.603C111.162 11.3035 112.526 11.584 113.696 12.1451C114.865 12.7062 115.775 13.5141 116.425 14.5687C117.075 15.6233 117.399 16.8874 117.399 18.3612C117.399 19.8484 117.064 21.1025 116.394 22.1233C115.731 23.1441 114.797 23.9147 113.593 24.4353C112.396 24.9558 110.998 25.2161 109.397 25.2161H103.981V20.8354H108.248C108.919 20.8354 109.49 20.7543 109.962 20.5921C110.44 20.4231 110.806 20.156 111.059 19.791C111.319 19.4259 111.449 18.9493 111.449 18.3612C111.449 17.7663 111.319 17.2829 111.059 16.9111C110.806 16.5325 110.44 16.2554 109.962 16.0796C109.49 15.8971 108.919 15.8058 108.248 15.8058H106.238V32.071H100.533ZM112.844 22.539L118.097 32.071H111.901L106.771 22.539H112.844Z" fill="black"></path><path d="M140.185 21.6872C140.185 23.9992 139.73 25.9496 138.82 27.5382C137.911 29.1201 136.683 30.3201 135.137 31.1381C133.592 31.9493 131.868 32.3549 129.967 32.3549C128.052 32.3549 126.321 31.9459 124.776 31.1279C123.237 30.3032 122.013 29.0998 121.103 27.5179C120.2 25.9293 119.749 23.9857 119.749 21.6872C119.749 19.3752 120.2 17.4283 121.103 15.8464C122.013 14.2577 123.237 13.0577 124.776 12.2465C126.321 11.4285 128.052 11.0195 129.967 11.0195C131.868 11.0195 133.592 11.4285 135.137 12.2465C136.683 13.0577 137.911 14.2577 138.82 15.8464C139.73 17.4283 140.185 19.3752 140.185 21.6872ZM134.317 21.6872C134.317 20.4433 134.149 19.3955 133.814 18.5437C133.486 17.6851 132.997 17.0362 132.347 16.5967C131.704 16.1506 130.911 15.9275 129.967 15.9275C129.023 15.9275 128.226 16.1506 127.576 16.5967C126.934 17.0362 126.445 17.6851 126.109 18.5437C125.781 19.3955 125.617 20.4433 125.617 21.6872C125.617 22.9311 125.781 23.9823 126.109 24.8409C126.445 25.6927 126.934 26.3417 127.576 26.7878C128.226 27.2273 129.023 27.447 129.967 27.447C130.911 27.447 131.704 27.2273 132.347 26.7878C132.997 26.3417 133.486 25.6927 133.814 24.8409C134.149 23.9823 134.317 22.9311 134.317 21.6872Z" fill="black"></path><path d="M162.439 19.0913H156.653C156.612 18.6181 156.503 18.1888 156.325 17.8035C156.154 17.4181 155.915 17.0869 155.607 16.8097C155.306 16.5258 154.94 16.3094 154.509 16.1607C154.078 16.0052 153.589 15.9275 153.042 15.9275C152.085 15.9275 151.274 16.1573 150.611 16.617C149.954 17.0767 149.455 17.7358 149.113 18.5944C148.778 19.453 148.61 20.4839 148.61 21.6872C148.61 22.9582 148.781 24.0229 149.123 24.8814C149.472 25.7332 149.975 26.3755 150.631 26.8081C151.288 27.234 152.078 27.447 153.001 27.447C153.528 27.447 154 27.3827 154.417 27.2543C154.834 27.1191 155.196 26.9264 155.504 26.6763C155.812 26.4262 156.062 26.1253 156.253 25.7738C156.452 25.4155 156.585 25.0133 156.653 24.5671L162.439 24.6077C162.371 25.4865 162.121 26.3822 161.69 27.2949C161.26 28.2007 160.647 29.039 159.854 29.8097C159.068 30.5736 158.093 31.1888 156.93 31.6552C155.768 32.1217 154.417 32.3549 152.878 32.3549C150.949 32.3549 149.219 31.9459 147.687 31.1279C146.162 30.3099 144.954 29.1066 144.065 27.5179C143.183 25.9293 142.742 23.9857 142.742 21.6872C142.742 19.3752 143.193 17.4283 144.096 15.8464C144.999 14.2577 146.216 13.0577 147.748 12.2465C149.28 11.4285 150.99 11.0195 152.878 11.0195C154.205 11.0195 155.426 11.1987 156.54 11.557C157.655 11.9153 158.633 12.4392 159.475 13.1287C160.316 13.8115 160.993 14.6532 161.506 15.6537C162.019 16.6542 162.33 17.8001 162.439 19.0913Z" fill="black"></path><path d="M165.027 32.071V11.3035H170.731V19.6997H171.019L177.338 11.3035H183.986L176.887 20.5515L184.15 32.071H177.338L172.619 24.2832L170.731 26.7169V32.071H165.027Z" fill="black"></path><path d="M185.679 32.071V11.3035H200.821V15.8464H191.383V19.4158H200.042V23.9587H191.383V27.5281H200.78V32.071H185.679Z" fill="black"></path><path d="M203.076 15.8464V11.3035H221.337V15.8464H215.017V32.071H209.395V15.8464H203.076Z" fill="black"></path><path d="M111.86 43.8118C111.805 43.1358 111.548 42.6085 111.09 42.2299C110.639 41.8514 109.951 41.6621 109.028 41.6621C108.44 41.6621 107.958 41.7331 107.581 41.875C107.212 42.0102 106.939 42.1961 106.761 42.4327C106.583 42.6694 106.491 42.9398 106.484 43.244C106.47 43.4941 106.515 43.7206 106.617 43.9234C106.727 44.1194 106.898 44.2986 107.13 44.4608C107.363 44.6163 107.66 44.7583 108.023 44.8867C108.385 45.0152 108.816 45.1301 109.315 45.2315L111.039 45.5965C112.201 45.8399 113.197 46.161 114.024 46.5599C114.852 46.9587 115.529 47.4286 116.055 47.9694C116.582 48.5035 116.969 49.1051 117.215 49.7744C117.468 50.4437 117.598 51.1738 117.605 51.9647C117.598 53.3303 117.252 54.4863 116.568 55.4327C115.884 56.3792 114.906 57.0991 113.634 57.5926C112.369 58.0861 110.847 58.3329 109.069 58.3329C107.243 58.3329 105.649 58.0658 104.288 57.5318C102.934 56.9977 101.881 56.1764 101.128 55.0677C100.383 53.9522 100.007 52.5258 100 50.7884H105.417C105.451 51.4239 105.612 51.958 105.899 52.3906C106.186 52.8233 106.59 53.1511 107.11 53.3742C107.636 53.5973 108.262 53.7089 108.987 53.7089C109.596 53.7089 110.105 53.6345 110.516 53.4858C110.926 53.337 111.237 53.1309 111.449 52.8672C111.661 52.6036 111.771 52.3027 111.777 51.9647C111.771 51.647 111.665 51.3698 111.459 51.1332C111.261 50.8898 110.933 50.6735 110.475 50.4842C110.016 50.2882 109.397 50.1056 108.618 49.9366L106.525 49.4905C104.664 49.0916 103.197 48.4257 102.124 47.4928C101.057 46.5531 100.527 45.2721 100.533 43.6496C100.527 42.3313 100.882 41.1787 101.6 40.1917C102.325 39.198 103.327 38.4239 104.606 37.8696C105.892 37.3152 107.366 37.0381 109.028 37.0381C110.724 37.0381 112.191 37.3186 113.429 37.8797C114.667 38.4408 115.621 39.2318 116.291 40.2526C116.969 41.2666 117.311 42.453 117.317 43.8118H111.86Z" fill="black"></path><path d="M140.128 47.7057C140.128 50.0178 139.674 51.9681 138.764 53.5568C137.854 55.1387 136.627 56.3386 135.081 57.1566C133.535 57.9678 131.812 58.3734 129.91 58.3734C127.995 58.3734 126.265 57.9644 124.719 57.1465C123.18 56.3217 121.956 55.1184 121.047 53.5365C120.144 51.9478 119.692 50.0042 119.692 47.7057C119.692 45.3937 120.144 43.4468 121.047 41.8649C121.956 40.2762 123.18 39.0763 124.719 38.265C126.265 37.4471 127.995 37.0381 129.91 37.0381C131.812 37.0381 133.535 37.4471 135.081 38.265C136.627 39.0763 137.854 40.2762 138.764 41.8649C139.674 43.4468 140.128 45.3937 140.128 47.7057ZM134.26 47.7057C134.26 46.4619 134.093 45.414 133.758 44.5622C133.429 43.7037 132.94 43.0547 132.29 42.6153C131.648 42.1691 130.854 41.946 129.91 41.946C128.967 41.946 128.17 42.1691 127.52 42.6153C126.877 43.0547 126.388 43.7037 126.053 44.5622C125.725 45.414 125.561 46.4619 125.561 47.7057C125.561 48.9496 125.725 50.0009 126.053 50.8594C126.388 51.7112 126.877 52.3602 127.52 52.8064C128.17 53.2458 128.967 53.4655 129.91 53.4655C130.854 53.4655 131.648 53.2458 132.29 52.8064C132.94 52.3602 133.429 51.7112 133.758 50.8594C134.093 50.0009 134.26 48.9496 134.26 47.7057Z" fill="black"></path><path d="M155.202 37.322H160.906V50.6262C160.906 52.2081 160.523 53.577 159.757 54.733C158.997 55.8823 157.937 56.7713 156.576 57.4C155.215 58.0219 153.635 58.3329 151.837 58.3329C150.024 58.3329 148.437 58.0219 147.076 57.4C145.715 56.7713 144.655 55.8823 143.896 54.733C143.144 53.577 142.768 52.2081 142.768 50.6262V37.322H148.472V50.1394C148.472 50.7817 148.615 51.3563 148.903 51.8633C149.19 52.3636 149.586 52.7557 150.093 53.0396C150.606 53.3235 151.187 53.4655 151.837 53.4655C152.493 53.4655 153.075 53.3235 153.581 53.0396C154.087 52.7557 154.483 52.3636 154.771 51.8633C155.058 51.3563 155.202 50.7817 155.202 50.1394V37.322Z" fill="black"></path><path d="M163.617 58.0895V37.322H172.686C174.245 37.322 175.609 37.6025 176.779 38.1636C177.949 38.7247 178.858 39.5326 179.508 40.5872C180.158 41.6418 180.483 42.906 180.483 44.3797C180.483 45.867 180.147 47.121 179.477 48.1418C178.814 49.1626 177.88 49.9333 176.676 50.4538C175.48 50.9743 174.081 51.2346 172.48 51.2346H167.064V46.854H171.331C172.002 46.854 172.573 46.7728 173.045 46.6106C173.523 46.4416 173.889 46.1745 174.142 45.8095C174.402 45.4444 174.532 44.9678 174.532 44.3797C174.532 43.7848 174.402 43.3014 174.142 42.9296C173.889 42.551 173.523 42.2739 173.045 42.0981C172.573 41.9156 172.002 41.8243 171.331 41.8243H169.321V58.0895H163.617ZM175.928 48.5575L181.18 58.0895H174.984L169.854 48.5575H175.928Z" fill="black"></path><path d="M202.529 45.1098H196.743C196.702 44.6366 196.593 44.2073 196.415 43.822C196.244 43.4366 196.005 43.1054 195.697 42.8282C195.396 42.5443 195.03 42.328 194.599 42.1792C194.168 42.0237 193.679 41.946 193.132 41.946C192.175 41.946 191.364 42.1759 190.701 42.6356C190.044 43.0952 189.545 43.7544 189.203 44.6129C188.868 45.4715 188.7 46.5024 188.7 47.7057C188.7 48.9767 188.871 50.0414 189.213 50.9C189.562 51.7518 190.065 52.394 190.721 52.8266C191.378 53.2525 192.168 53.4655 193.091 53.4655C193.618 53.4655 194.09 53.4013 194.507 53.2728C194.924 53.1376 195.286 52.945 195.594 52.6948C195.902 52.4447 196.152 52.1439 196.343 51.7923C196.541 51.434 196.675 51.0318 196.743 50.5856L202.529 50.6262C202.461 51.505 202.211 52.4007 201.78 53.3134C201.35 54.2193 200.737 55.0575 199.944 55.8282C199.158 56.5921 198.183 57.2073 197.02 57.6737C195.858 58.1402 194.507 58.3734 192.968 58.3734C191.039 58.3734 189.309 57.9644 187.777 57.1465C186.252 56.3285 185.044 55.1251 184.155 53.5365C183.273 51.9478 182.832 50.0042 182.832 47.7057C182.832 45.3937 183.283 43.4468 184.186 41.8649C185.089 40.2762 186.306 39.0763 187.838 38.265C189.37 37.4471 191.08 37.0381 192.968 37.0381C194.295 37.0381 195.516 37.2172 196.63 37.5755C197.745 37.9338 198.723 38.4577 199.564 39.1473C200.406 39.83 201.083 40.6717 201.596 41.6722C202.109 42.6727 202.42 43.8186 202.529 45.1098Z" fill="black"></path><path d="M205.117 58.0895V37.322H220.26V41.8649H210.821V45.4343H219.48V49.9772H210.821V53.5466H220.219V58.0895H205.117Z" fill="black"></path><path d="M223.089 58.0895V37.322H232.158C233.717 37.322 235.081 37.6025 236.251 38.1636C237.421 38.7247 238.33 39.5326 238.98 40.5872C239.63 41.6418 239.954 42.906 239.954 44.3797C239.954 45.867 239.619 47.121 238.949 48.1418C238.286 49.1626 237.352 49.9333 236.148 50.4538C234.951 50.9743 233.553 51.2346 231.952 51.2346H226.536V46.854H230.803C231.474 46.854 232.045 46.7728 232.517 46.6106C232.995 46.4416 233.361 46.1745 233.614 45.8095C233.874 45.4444 234.004 44.9678 234.004 44.3797C234.004 43.7848 233.874 43.3014 233.614 42.9296C233.361 42.551 232.995 42.2739 232.517 42.0981C232.045 41.9156 231.474 41.8243 230.803 41.8243H228.793V58.0895H223.089ZM235.399 48.5575L240.652 58.0895H234.456L229.326 48.5575H235.399Z" fill="black"></path><path d="M253.712 43.8118C253.657 43.1358 253.401 42.6085 252.943 42.2299C252.491 41.8514 251.804 41.6621 250.88 41.6621C250.292 41.6621 249.81 41.7331 249.434 41.875C249.065 42.0102 248.791 42.1961 248.613 42.4327C248.435 42.6694 248.343 42.9398 248.336 43.244C248.323 43.4941 248.367 43.7206 248.47 43.9234C248.579 44.1194 248.75 44.2986 248.983 44.4608C249.215 44.6163 249.513 44.7583 249.875 44.8867C250.238 45.0152 250.668 45.1301 251.168 45.2315L252.891 45.5965C254.054 45.8399 255.049 46.161 255.877 46.5599C256.704 46.9587 257.381 47.4286 257.908 47.9694C258.435 48.5035 258.821 49.1051 259.067 49.7744C259.32 50.4437 259.45 51.1738 259.457 51.9647C259.45 53.3303 259.105 54.4863 258.421 55.4327C257.737 56.3792 256.759 57.0991 255.487 57.5926C254.221 58.0861 252.7 58.3329 250.921 58.3329C249.095 58.3329 247.502 58.0658 246.141 57.5318C244.787 56.9977 243.733 56.1764 242.981 55.0677C242.235 53.9522 241.859 52.5258 241.852 50.7884H247.269C247.303 51.4239 247.464 51.958 247.751 52.3906C248.039 52.8233 248.442 53.1511 248.962 53.3742C249.489 53.5973 250.114 53.7089 250.839 53.7089C251.448 53.7089 251.958 53.6345 252.368 53.4858C252.778 53.337 253.09 53.1309 253.302 52.8672C253.514 52.6036 253.623 52.3027 253.63 51.9647C253.623 51.647 253.517 51.3698 253.312 51.1332C253.113 50.8898 252.785 50.6735 252.327 50.4842C251.869 50.2882 251.25 50.1056 250.47 49.9366L248.377 49.4905C246.517 49.0916 245.05 48.4257 243.976 47.4928C242.909 46.5531 242.379 45.2721 242.386 43.6496C242.379 42.3313 242.735 41.1787 243.453 40.1917C244.178 39.198 245.18 38.4239 246.459 37.8696C247.745 37.3152 249.218 37.0381 250.88 37.0381C252.577 37.0381 254.044 37.3186 255.282 37.8797C256.52 38.4408 257.474 39.2318 258.144 40.2526C258.821 41.2666 259.163 42.453 259.17 43.8118H253.712Z" fill="black"></path><path d="M100.516 66.3404V60.3062H104.197V60.9544H101.254V62.9933H104.007V63.6415H101.254V65.6922H104.245V66.3404H100.516Z" fill="#F89A03"></path><path d="M106.78 66.4465C106.49 66.4465 106.227 66.3924 105.991 66.2844C105.754 66.1744 105.567 66.0163 105.428 65.81C105.289 65.6018 105.219 65.3504 105.219 65.0558C105.219 64.7965 105.271 64.5863 105.374 64.4253C105.477 64.2622 105.615 64.1345 105.788 64.0422C105.961 63.9499 106.151 63.8812 106.36 63.836C106.57 63.7888 106.782 63.7515 106.994 63.724C107.272 63.6887 107.498 63.6621 107.671 63.6445C107.845 63.6248 107.972 63.5924 108.052 63.5472C108.133 63.5021 108.174 63.4235 108.174 63.3115V63.288C108.174 62.9973 108.094 62.7714 107.933 62.6103C107.774 62.4492 107.533 62.3687 107.209 62.3687C106.873 62.3687 106.61 62.4414 106.42 62.5867C106.229 62.7321 106.095 62.8873 106.017 63.0523L105.35 62.8165C105.469 62.5415 105.628 62.3274 105.827 62.1742C106.027 62.0191 106.246 61.911 106.482 61.8501C106.72 61.7873 106.955 61.7559 107.185 61.7559C107.332 61.7559 107.501 61.7735 107.691 61.8089C107.884 61.8423 108.07 61.912 108.248 62.0181C108.429 62.1241 108.579 62.2842 108.698 62.4983C108.817 62.7124 108.877 62.9992 108.877 63.3587V66.3404H108.174V65.7275H108.138C108.091 65.8258 108.011 65.9308 107.9 66.0428C107.789 66.1548 107.641 66.25 107.456 66.3286C107.271 66.4072 107.046 66.4465 106.78 66.4465ZM106.887 65.8218C107.165 65.8218 107.4 65.7678 107.59 65.6598C107.783 65.5517 107.928 65.4123 108.025 65.2414C108.124 65.0705 108.174 64.8908 108.174 64.7022V64.0658C108.144 64.1012 108.079 64.1336 107.977 64.163C107.878 64.1905 107.763 64.2151 107.632 64.2367C107.503 64.2563 107.377 64.274 107.254 64.2897C107.132 64.3035 107.034 64.3153 106.959 64.3251C106.776 64.3487 106.605 64.387 106.446 64.44C106.289 64.4911 106.162 64.5686 106.065 64.6728C105.97 64.7749 105.922 64.9144 105.922 65.0911C105.922 65.3327 106.012 65.5154 106.193 65.6392C106.376 65.7609 106.607 65.8218 106.887 65.8218Z" fill="#F89A03"></path><path d="M112.15 61.8148V62.4041H109.779V61.8148H112.15ZM110.47 60.7305H111.173V65.044C111.173 65.2404 111.202 65.3877 111.259 65.4859C111.319 65.5822 111.394 65.647 111.486 65.6804C111.579 65.7118 111.677 65.7275 111.781 65.7275C111.858 65.7275 111.922 65.7236 111.971 65.7158C112.021 65.7059 112.061 65.6981 112.09 65.6922L112.233 66.3168C112.186 66.3345 112.119 66.3522 112.034 66.3699C111.948 66.3895 111.84 66.3993 111.709 66.3993C111.51 66.3993 111.316 66.3571 111.125 66.2726C110.937 66.1882 110.78 66.0595 110.655 65.8867C110.531 65.7138 110.47 65.4958 110.47 65.2326V60.7305Z" fill="#F89A03"></path><path d="M114.256 65.5154L114.208 65.8336C114.174 66.0575 114.123 66.2972 114.053 66.5525C113.986 66.8079 113.915 67.0485 113.842 67.2744C113.768 67.5003 113.708 67.68 113.66 67.8136H113.124C113.15 67.6879 113.184 67.5219 113.225 67.3156C113.267 67.1094 113.309 66.8786 113.35 66.6232C113.394 66.3699 113.43 66.1106 113.458 65.8454L113.493 65.5154H114.256Z" fill="#F89A03"></path><path d="M121.158 62.8283L120.527 63.0051C120.487 62.901 120.429 62.7998 120.351 62.7016C120.276 62.6015 120.172 62.519 120.041 62.4541C119.91 62.3893 119.743 62.3569 119.538 62.3569C119.258 62.3569 119.025 62.4207 118.838 62.5484C118.653 62.6741 118.561 62.8342 118.561 63.0287C118.561 63.2015 118.625 63.338 118.752 63.4382C118.879 63.5384 119.077 63.6219 119.347 63.6887L120.027 63.8537C120.436 63.9519 120.74 64.1021 120.941 64.3045C121.142 64.5048 121.242 64.7631 121.242 65.0793C121.242 65.3386 121.166 65.5704 121.015 65.7747C120.867 65.979 120.658 66.14 120.39 66.2579C120.122 66.3757 119.81 66.4347 119.455 66.4347C118.988 66.4347 118.602 66.3345 118.296 66.1341C117.99 65.9338 117.796 65.6411 117.715 65.2561L118.382 65.0911C118.446 65.3347 118.566 65.5174 118.743 65.6392C118.921 65.7609 119.155 65.8218 119.443 65.8218C119.77 65.8218 120.03 65.7531 120.223 65.6156C120.418 65.4761 120.515 65.3092 120.515 65.1147C120.515 64.9576 120.459 64.826 120.348 64.7199C120.237 64.6119 120.066 64.5313 119.836 64.4783L119.073 64.3015C118.654 64.2033 118.347 64.0511 118.15 63.8448C117.955 63.6366 117.858 63.3764 117.858 63.064C117.858 62.8087 117.93 62.5828 118.075 62.3864C118.222 62.19 118.422 62.0358 118.674 61.9238C118.928 61.8118 119.216 61.7559 119.538 61.7559C119.991 61.7559 120.346 61.8541 120.604 62.0505C120.865 62.2469 121.049 62.5062 121.158 62.8283Z" fill="#F89A03"></path><path d="M123.003 60.3062V66.3404H122.3V60.3062H123.003Z" fill="#F89A03"></path><path d="M126.209 66.4347C125.768 66.4347 125.388 66.3384 125.068 66.1459C124.75 65.9515 124.505 65.6804 124.332 65.3327C124.162 64.9831 124.076 64.5765 124.076 64.1129C124.076 63.6494 124.162 63.2408 124.332 62.8873C124.505 62.5317 124.745 62.2548 125.053 62.0564C125.363 61.856 125.724 61.7559 126.137 61.7559C126.376 61.7559 126.611 61.7951 126.843 61.8737C127.076 61.9523 127.287 62.08 127.478 62.2567C127.669 62.4316 127.82 62.6633 127.934 62.9521C128.047 63.2408 128.103 63.5963 128.103 64.0187V64.3133H124.577V63.7122H127.389C127.389 63.4569 127.337 63.229 127.234 63.0287C127.132 62.8283 126.987 62.6702 126.799 62.5543C126.612 62.4384 126.392 62.3805 126.137 62.3805C125.857 62.3805 125.615 62.4492 125.411 62.5867C125.208 62.7223 125.052 62.899 124.943 63.1171C124.834 63.3351 124.779 63.5688 124.779 63.8183V64.219C124.779 64.5608 124.839 64.8505 124.958 65.0882C125.079 65.3239 125.247 65.5036 125.461 65.6274C125.676 65.7492 125.925 65.81 126.209 65.81C126.394 65.81 126.56 65.7845 126.709 65.7334C126.86 65.6804 126.99 65.6018 127.1 65.4977C127.209 65.3917 127.293 65.2601 127.353 65.1029L128.032 65.2915C127.96 65.5193 127.84 65.7197 127.672 65.8925C127.503 66.0634 127.294 66.197 127.046 66.2932C126.798 66.3875 126.519 66.4347 126.209 66.4347Z" fill="#F89A03"></path><path d="M131.091 66.4347C130.65 66.4347 130.27 66.3384 129.95 66.1459C129.633 65.9515 129.387 65.6804 129.215 65.3327C129.044 64.9831 128.958 64.5765 128.958 64.1129C128.958 63.6494 129.044 63.2408 129.215 62.8873C129.387 62.5317 129.628 62.2548 129.935 62.0564C130.245 61.856 130.607 61.7559 131.02 61.7559C131.258 61.7559 131.493 61.7951 131.726 61.8737C131.958 61.9523 132.169 62.08 132.36 62.2567C132.551 62.4316 132.703 62.6633 132.816 62.9521C132.929 63.2408 132.986 63.5963 132.986 64.0187V64.3133H129.459V63.7122H132.271C132.271 63.4569 132.219 63.229 132.116 63.0287C132.015 62.8283 131.87 62.6702 131.681 62.5543C131.494 62.4384 131.274 62.3805 131.02 62.3805C130.74 62.3805 130.497 62.4492 130.293 62.5867C130.09 62.7223 129.934 62.899 129.825 63.1171C129.716 63.3351 129.661 63.5688 129.661 63.8183V64.219C129.661 64.5608 129.721 64.8505 129.84 65.0882C129.961 65.3239 130.129 65.5036 130.343 65.6274C130.558 65.7492 130.807 65.81 131.091 65.81C131.276 65.81 131.443 65.7845 131.592 65.7334C131.742 65.6804 131.873 65.6018 131.982 65.4977C132.091 65.3917 132.175 65.2601 132.235 65.1029L132.914 65.2915C132.843 65.5193 132.723 65.7197 132.554 65.8925C132.385 66.0634 132.176 66.197 131.928 66.2932C131.68 66.3875 131.401 66.4347 131.091 66.4347Z" fill="#F89A03"></path><path d="M134.055 68.0375V61.8148H134.734V62.5337H134.818C134.869 62.4551 134.941 62.3549 135.032 62.2332C135.125 62.1094 135.258 61.9994 135.431 61.9032C135.606 61.805 135.842 61.7559 136.14 61.7559C136.525 61.7559 136.865 61.8511 137.159 62.0417C137.453 62.2322 137.682 62.5023 137.847 62.8519C138.012 63.2015 138.094 63.614 138.094 64.0894C138.094 64.5686 138.012 64.9841 137.847 65.3357C137.682 65.6853 137.454 65.9564 137.162 66.1489C136.87 66.3394 136.533 66.4347 136.152 66.4347C135.858 66.4347 135.623 66.3866 135.446 66.2903C135.269 66.1921 135.133 66.0811 135.038 65.9574C134.943 65.8317 134.869 65.7275 134.818 65.645H134.758V68.0375H134.055ZM134.746 64.0776C134.746 64.4194 134.797 64.7209 134.898 64.9821C134.999 65.2414 135.147 65.4447 135.342 65.592C135.536 65.7374 135.775 65.81 136.057 65.81C136.351 65.81 136.596 65.7334 136.792 65.5802C136.991 65.4251 137.14 65.2168 137.239 64.9556C137.341 64.6924 137.391 64.3997 137.391 64.0776C137.391 63.7594 137.342 63.4726 137.242 63.2172C137.145 62.9599 136.997 62.7566 136.798 62.6074C136.602 62.4561 136.355 62.3805 136.057 62.3805C135.771 62.3805 135.53 62.4522 135.336 62.5956C135.141 62.737 134.994 62.9354 134.895 63.1907C134.796 63.4441 134.746 63.7397 134.746 64.0776Z" fill="#F89A03"></path><path d="M140.215 65.5154L140.167 65.8336C140.134 66.0575 140.082 66.2972 140.013 66.5525C139.945 66.8079 139.875 67.0485 139.801 67.2744C139.728 67.5003 139.667 67.68 139.619 67.8136H139.083C139.109 67.6879 139.143 67.5219 139.184 67.3156C139.226 67.1094 139.268 66.8786 139.31 66.6232C139.353 66.3699 139.389 66.1106 139.417 65.8454L139.453 65.5154H140.215Z" fill="#F89A03"></path><path d="M147.118 62.8283L146.486 63.0051C146.446 62.901 146.388 62.7998 146.31 62.7016C146.235 62.6015 146.132 62.519 146.001 62.4541C145.87 62.3893 145.702 62.3569 145.497 62.3569C145.217 62.3569 144.984 62.4207 144.797 62.5484C144.612 62.6741 144.52 62.8342 144.52 63.0287C144.52 63.2015 144.584 63.338 144.711 63.4382C144.838 63.5384 145.036 63.6219 145.307 63.6887L145.986 63.8537C146.395 63.9519 146.7 64.1021 146.9 64.3045C147.101 64.5048 147.201 64.7631 147.201 65.0793C147.201 65.3386 147.126 65.5704 146.975 65.7747C146.826 65.979 146.617 66.14 146.349 66.2579C146.081 66.3757 145.769 66.4347 145.414 66.4347C144.947 66.4347 144.561 66.3345 144.255 66.1341C143.949 65.9338 143.756 65.6411 143.674 65.2561L144.341 65.0911C144.405 65.3347 144.525 65.5174 144.702 65.6392C144.881 65.7609 145.114 65.8218 145.402 65.8218C145.73 65.8218 145.99 65.7531 146.182 65.6156C146.377 65.4761 146.474 65.3092 146.474 65.1147C146.474 64.9576 146.419 64.826 146.307 64.7199C146.196 64.6119 146.025 64.5313 145.795 64.4783L145.033 64.3015C144.613 64.2033 144.306 64.0511 144.109 63.8448C143.914 63.6366 143.817 63.3764 143.817 63.064C143.817 62.8087 143.89 62.5828 144.035 62.3864C144.182 62.19 144.381 62.0358 144.633 61.9238C144.888 61.8118 145.175 61.7559 145.497 61.7559C145.95 61.7559 146.305 61.8541 146.564 62.0505C146.824 62.2469 147.008 62.5062 147.118 62.8283Z" fill="#F89A03"></path><path d="M150.118 66.4347C149.705 66.4347 149.343 66.3374 149.031 66.143C148.721 65.9485 148.479 65.6765 148.304 65.3268C148.131 64.9772 148.045 64.5686 148.045 64.1012C148.045 63.6297 148.131 63.2182 148.304 62.8666C148.479 62.515 148.721 62.242 149.031 62.0475C149.343 61.8531 149.705 61.7559 150.118 61.7559C150.531 61.7559 150.892 61.8531 151.202 62.0475C151.514 62.242 151.756 62.515 151.929 62.8666C152.104 63.2182 152.191 63.6297 152.191 64.1012C152.191 64.5686 152.104 64.9772 151.929 65.3268C151.756 65.6765 151.514 65.9485 151.202 66.143C150.892 66.3374 150.531 66.4347 150.118 66.4347ZM150.118 65.81C150.432 65.81 150.69 65.7305 150.892 65.5714C151.095 65.4123 151.245 65.2031 151.342 64.9438C151.44 64.6845 151.488 64.4036 151.488 64.1012C151.488 63.7987 151.44 63.5168 151.342 63.2556C151.245 62.9943 151.095 62.7832 150.892 62.6221C150.69 62.461 150.432 62.3805 150.118 62.3805C149.804 62.3805 149.546 62.461 149.344 62.6221C149.141 62.7832 148.991 62.9943 148.894 63.2556C148.796 63.5168 148.748 63.7987 148.748 64.1012C148.748 64.4036 148.796 64.6845 148.894 64.9438C148.991 65.2031 149.141 65.4123 149.344 65.5714C149.546 65.7305 149.804 65.81 150.118 65.81Z" fill="#F89A03"></path><path d="M156.148 64.4901V61.8148H156.851V66.3404H156.148V65.5743H156.1C155.993 65.8042 155.826 65.9996 155.6 66.1607C155.373 66.3198 155.087 66.3993 154.742 66.3993C154.456 66.3993 154.202 66.3374 153.979 66.2137C153.757 66.088 153.582 65.8994 153.455 65.648C153.328 65.3946 153.264 65.0754 153.264 64.6904V61.8148H153.967V64.6433C153.967 64.9733 154.061 65.2365 154.247 65.4329C154.436 65.6293 154.676 65.7275 154.968 65.7275C155.143 65.7275 155.321 65.6834 155.501 65.595C155.684 65.5066 155.837 65.371 155.96 65.1884C156.085 65.0057 156.148 64.7729 156.148 64.4901Z" fill="#F89A03"></path><path d="M158.138 66.3404V61.8148H158.817V62.4983H158.865C158.949 62.2744 159.099 62.0927 159.318 61.9533C159.536 61.8138 159.783 61.7441 160.057 61.7441C160.108 61.7441 160.173 61.745 160.25 61.747C160.328 61.749 160.386 61.7519 160.426 61.7559V62.463C160.402 62.4571 160.348 62.4482 160.262 62.4365C160.179 62.4227 160.09 62.4158 159.997 62.4158C159.775 62.4158 159.576 62.462 159.401 62.5543C159.229 62.6447 159.092 62.7704 158.99 62.9315C158.891 63.0906 158.841 63.2722 158.841 63.4765V66.3404H158.138Z" fill="#F89A03"></path><path d="M162.979 66.4347C162.55 66.4347 162.18 66.3345 161.871 66.1341C161.561 65.9338 161.323 65.6578 161.156 65.3062C160.989 64.9546 160.906 64.5529 160.906 64.1012C160.906 63.6415 160.991 63.2359 161.162 62.8843C161.335 62.5307 161.575 62.2548 161.883 62.0564C162.192 61.856 162.554 61.7559 162.967 61.7559C163.289 61.7559 163.579 61.8148 163.837 61.9326C164.095 62.0505 164.306 62.2155 164.471 62.4276C164.636 62.6398 164.738 62.8873 164.778 63.1701H164.075C164.021 62.9639 163.902 62.7812 163.718 62.6221C163.535 62.461 163.289 62.3805 162.979 62.3805C162.705 62.3805 162.464 62.4512 162.258 62.5926C162.053 62.7321 161.894 62.9295 161.778 63.1848C161.665 63.4382 161.609 63.7358 161.609 64.0776C161.609 64.4272 161.664 64.7317 161.775 64.991C161.889 65.2502 162.047 65.4516 162.252 65.595C162.459 65.7384 162.701 65.81 162.979 65.81C163.162 65.81 163.327 65.7786 163.476 65.7158C163.625 65.6529 163.751 65.5626 163.855 65.4447C163.958 65.3268 164.031 65.1854 164.075 65.0204H164.778C164.738 65.2876 164.64 65.5282 164.483 65.7423C164.328 65.9544 164.123 66.1233 163.866 66.2491C163.612 66.3728 163.316 66.4347 162.979 66.4347Z" fill="#F89A03"></path><path d="M167.724 66.4347C167.283 66.4347 166.903 66.3384 166.583 66.1459C166.265 65.9515 166.02 65.6804 165.847 65.3327C165.677 64.9831 165.591 64.5765 165.591 64.1129C165.591 63.6494 165.677 63.2408 165.847 62.8873C166.02 62.5317 166.26 62.2548 166.568 62.0564C166.878 61.856 167.239 61.7559 167.652 61.7559C167.891 61.7559 168.126 61.7951 168.358 61.8737C168.591 61.9523 168.802 62.08 168.993 62.2567C169.184 62.4316 169.335 62.6633 169.449 62.9521C169.562 63.2408 169.618 63.5963 169.618 64.0187V64.3133H166.092V63.7122H168.904C168.904 63.4569 168.852 63.229 168.749 63.0287C168.647 62.8283 168.502 62.6702 168.314 62.5543C168.127 62.4384 167.907 62.3805 167.652 62.3805C167.372 62.3805 167.13 62.4492 166.926 62.5867C166.723 62.7223 166.567 62.899 166.458 63.1171C166.349 63.3351 166.294 63.5688 166.294 63.8183V64.219C166.294 64.5608 166.354 64.8505 166.473 65.0882C166.594 65.3239 166.762 65.5036 166.976 65.6274C167.191 65.7492 167.44 65.81 167.724 65.81C167.909 65.81 168.075 65.7845 168.224 65.7334C168.375 65.6804 168.505 65.6018 168.615 65.4977C168.724 65.3917 168.808 65.2601 168.868 65.1029L169.547 65.2915C169.475 65.5193 169.355 65.7197 169.187 65.8925C169.018 66.0634 168.809 66.197 168.561 66.2932C168.313 66.3875 168.034 66.4347 167.724 66.4347Z" fill="#F89A03"></path><path d="M171.736 65.5154L171.689 65.8336C171.655 66.0575 171.603 66.2972 171.534 66.5525C171.466 66.8079 171.396 67.0485 171.322 67.2744C171.249 67.5003 171.188 67.68 171.141 67.8136H170.604C170.63 67.6879 170.664 67.5219 170.706 67.3156C170.747 67.1094 170.789 66.8786 170.831 66.6232C170.875 66.3699 170.91 66.1106 170.938 65.8454L170.974 65.5154H171.736Z" fill="#F89A03"></path><path d="M175.398 66.3404V61.8148H176.077V62.4983H176.125C176.208 62.2744 176.359 62.0927 176.578 61.9533C176.796 61.8138 177.042 61.7441 177.316 61.7441C177.368 61.7441 177.433 61.745 177.51 61.747C177.587 61.749 177.646 61.7519 177.686 61.7559V62.463C177.662 62.4571 177.607 62.4482 177.522 62.4365C177.438 62.4227 177.35 62.4158 177.257 62.4158C177.034 62.4158 176.836 62.462 176.661 62.5543C176.488 62.6447 176.351 62.7704 176.25 62.9315C176.151 63.0906 176.101 63.2722 176.101 63.4765V66.3404H175.398Z" fill="#F89A03"></path><path d="M180.298 66.4347C179.857 66.4347 179.477 66.3384 179.157 66.1459C178.839 65.9515 178.594 65.6804 178.421 65.3327C178.251 64.9831 178.165 64.5765 178.165 64.1129C178.165 63.6494 178.251 63.2408 178.421 62.8873C178.594 62.5317 178.835 62.2548 179.142 62.0564C179.452 61.856 179.814 61.7559 180.227 61.7559C180.465 61.7559 180.7 61.7951 180.933 61.8737C181.165 61.9523 181.376 62.08 181.567 62.2567C181.758 62.4316 181.91 62.6633 182.023 62.9521C182.136 63.2408 182.193 63.5963 182.193 64.0187V64.3133H178.666V63.7122H181.478C181.478 63.4569 181.426 63.229 181.323 63.0287C181.222 62.8283 181.077 62.6702 180.888 62.5543C180.701 62.4384 180.481 62.3805 180.227 62.3805C179.947 62.3805 179.704 62.4492 179.5 62.5867C179.297 62.7223 179.141 62.899 179.032 63.1171C178.923 63.3351 178.868 63.5688 178.868 63.8183V64.219C178.868 64.5608 178.928 64.8505 179.047 65.0882C179.168 65.3239 179.336 65.5036 179.55 65.6274C179.765 65.7492 180.014 65.81 180.298 65.81C180.483 65.81 180.65 65.7845 180.799 65.7334C180.949 65.6804 181.08 65.6018 181.189 65.4977C181.298 65.3917 181.382 65.2601 181.442 65.1029L182.121 65.2915C182.05 65.5193 181.929 65.7197 181.761 65.8925C181.592 66.0634 181.383 66.197 181.135 66.2932C180.887 66.3875 180.608 66.4347 180.298 66.4347Z" fill="#F89A03"></path><path d="M183.262 68.0375V61.8148H183.941V62.5337H184.025C184.076 62.4551 184.148 62.3549 184.239 62.2332C184.332 62.1094 184.465 61.9994 184.638 61.9032C184.813 61.805 185.049 61.7559 185.347 61.7559C185.732 61.7559 186.072 61.8511 186.366 62.0417C186.66 62.2322 186.889 62.5023 187.054 62.8519C187.219 63.2015 187.301 63.614 187.301 64.0894C187.301 64.5686 187.219 64.9841 187.054 65.3357C186.889 65.6853 186.661 65.9564 186.369 66.1489C186.077 66.3394 185.74 66.4347 185.359 66.4347C185.065 66.4347 184.83 66.3866 184.653 66.2903C184.476 66.1921 184.34 66.0811 184.245 65.9574C184.15 65.8317 184.076 65.7275 184.025 65.645H183.965V68.0375H183.262ZM183.953 64.0776C183.953 64.4194 184.004 64.7209 184.105 64.9821C184.206 65.2414 184.354 65.4447 184.549 65.592C184.743 65.7374 184.982 65.81 185.264 65.81C185.558 65.81 185.803 65.7334 185.999 65.5802C186.198 65.4251 186.347 65.2168 186.446 64.9556C186.548 64.6924 186.598 64.3997 186.598 64.0776C186.598 63.7594 186.549 63.4726 186.449 63.2172C186.352 62.9599 186.204 62.7566 186.005 62.6074C185.809 62.4561 185.562 62.3805 185.264 62.3805C184.978 62.3805 184.737 62.4522 184.543 62.5956C184.348 62.737 184.201 62.9354 184.102 63.1907C184.003 63.4441 183.953 63.7397 183.953 64.0776Z" fill="#F89A03"></path><path d="M190.292 66.4347C189.851 66.4347 189.471 66.3384 189.151 66.1459C188.833 65.9515 188.588 65.6804 188.415 65.3327C188.244 64.9831 188.159 64.5765 188.159 64.1129C188.159 63.6494 188.244 63.2408 188.415 62.8873C188.588 62.5317 188.828 62.2548 189.136 62.0564C189.446 61.856 189.807 61.7559 190.22 61.7559C190.459 61.7559 190.694 61.7951 190.926 61.8737C191.159 61.9523 191.37 62.08 191.561 62.2567C191.751 62.4316 191.903 62.6633 192.017 62.9521C192.13 63.2408 192.186 63.5963 192.186 64.0187V64.3133H188.659V63.7122H191.471C191.471 63.4569 191.42 63.229 191.317 63.0287C191.215 62.8283 191.07 62.6702 190.882 62.5543C190.695 62.4384 190.475 62.3805 190.22 62.3805C189.94 62.3805 189.698 62.4492 189.494 62.5867C189.291 62.7223 189.135 62.899 189.026 63.1171C188.917 63.3351 188.862 63.5688 188.862 63.8183V64.219C188.862 64.5608 188.922 64.8505 189.041 65.0882C189.162 65.3239 189.33 65.5036 189.544 65.6274C189.759 65.7492 190.008 65.81 190.292 65.81C190.477 65.81 190.643 65.7845 190.792 65.7334C190.943 65.6804 191.073 65.6018 191.182 65.4977C191.292 65.3917 191.376 65.2601 191.436 65.1029L192.115 65.2915C192.043 65.5193 191.923 65.7197 191.754 65.8925C191.586 66.0634 191.377 66.197 191.129 66.2932C190.881 66.3875 190.602 66.4347 190.292 66.4347Z" fill="#F89A03"></path><path d="M194.602 66.4465C194.312 66.4465 194.049 66.3924 193.813 66.2844C193.576 66.1744 193.389 66.0163 193.25 65.81C193.111 65.6018 193.041 65.3504 193.041 65.0558C193.041 64.7965 193.093 64.5863 193.196 64.4253C193.299 64.2622 193.437 64.1345 193.61 64.0422C193.783 63.9499 193.974 63.8812 194.182 63.836C194.393 63.7888 194.604 63.7515 194.817 63.724C195.095 63.6887 195.32 63.6621 195.493 63.6445C195.668 63.6248 195.795 63.5924 195.874 63.5472C195.955 63.5021 195.996 63.4235 195.996 63.3115V63.288C195.996 62.9973 195.916 62.7714 195.755 62.6103C195.596 62.4492 195.355 62.3687 195.031 62.3687C194.695 62.3687 194.432 62.4414 194.242 62.5867C194.051 62.7321 193.917 62.8873 193.84 63.0523L193.172 62.8165C193.291 62.5415 193.45 62.3274 193.649 62.1742C193.849 62.0191 194.068 61.911 194.304 61.8501C194.543 61.7873 194.777 61.7559 195.007 61.7559C195.154 61.7559 195.323 61.7735 195.514 61.8089C195.706 61.8423 195.892 61.912 196.071 62.0181C196.251 62.1241 196.401 62.2842 196.52 62.4983C196.64 62.7124 196.699 62.9992 196.699 63.3587V66.3404H195.996V65.7275H195.96C195.913 65.8258 195.833 65.9308 195.722 66.0428C195.611 66.1548 195.463 66.25 195.278 66.3286C195.094 66.4072 194.868 66.4465 194.602 66.4465ZM194.709 65.8218C194.987 65.8218 195.222 65.7678 195.412 65.6598C195.605 65.5517 195.75 65.4123 195.847 65.2414C195.947 65.0705 195.996 64.8908 195.996 64.7022V64.0658C195.966 64.1012 195.901 64.1336 195.8 64.163C195.7 64.1905 195.585 64.2151 195.454 64.2367C195.325 64.2563 195.199 64.274 195.076 64.2897C194.955 64.3035 194.856 64.3153 194.781 64.3251C194.598 64.3487 194.427 64.387 194.268 64.44C194.112 64.4911 193.985 64.5686 193.887 64.6728C193.792 64.7749 193.744 64.9144 193.744 65.0911C193.744 65.3327 193.835 65.5154 194.015 65.6392C194.198 65.7609 194.429 65.8218 194.709 65.8218Z" fill="#F89A03"></path><path d="M199.972 61.8148V62.4041H197.601V61.8148H199.972ZM198.292 60.7305H198.995V65.044C198.995 65.2404 199.024 65.3877 199.081 65.4859C199.141 65.5822 199.216 65.647 199.308 65.6804C199.401 65.7118 199.499 65.7275 199.603 65.7275C199.68 65.7275 199.744 65.7236 199.793 65.7158C199.843 65.7059 199.883 65.6981 199.912 65.6922L200.055 66.3168C200.008 66.3345 199.941 66.3522 199.856 66.3699C199.771 66.3895 199.662 66.3993 199.531 66.3993C199.333 66.3993 199.138 66.3571 198.947 66.2726C198.759 66.1882 198.602 66.0595 198.477 65.8867C198.354 65.7138 198.292 65.4958 198.292 65.2326V60.7305Z" fill="#F89A03"></path></svg>