<svg width="37" height="27" viewBox="0 0 37 27" fill="none" xmlns="http://www.w3.org/2000/svg">
<g clip-path="url(#clip0_3356_1039)">
<path d="M5.34586 12.2816C6.88418 12.2816 8.13312 11.0326 8.13312 9.4943C8.13312 7.95597 6.87911 6.70703 5.34586 6.70703C3.81261 6.70703 2.55859 7.95597 2.55859 9.4943C2.55859 11.0326 3.81261 12.2816 5.34586 12.2816ZM5.34586 7.44827C6.47295 7.44827 7.3868 8.36213 7.3868 9.48922C7.3868 10.6163 6.47295 11.5302 5.34586 11.5302C4.21877 11.5302 3.30491 10.6163 3.30491 9.48922C3.30491 8.36213 4.21877 7.44827 5.34586 7.44827Z" fill="#F89A03"/>
<path d="M9.94073 16.2047V18.9717C9.94073 19.1798 10.1083 19.3474 10.3164 19.3474C10.5246 19.3474 10.6921 19.1798 10.6921 18.9717V16.2047C10.6921 14.3516 9.18426 12.8438 7.33116 12.8438H3.36096C1.50786 12.8438 0 14.3516 0 16.2047V18.9717C0 19.1798 0.16754 19.3474 0.375697 19.3474C0.583853 19.3474 0.751393 19.1798 0.751393 18.9717V16.2047C0.751393 14.7628 1.92418 13.5951 3.36096 13.5951H7.33116C8.77303 13.5951 9.94073 14.7679 9.94073 16.2047Z" fill="#F89A03"/>
<path d="M2.47726 16.0234C2.2691 16.0234 2.10156 16.191 2.10156 16.3991V18.9732C2.10156 19.1813 2.2691 19.3489 2.47726 19.3489C2.68542 19.3489 2.85296 19.1813 2.85296 18.9732V16.3991C2.85296 16.191 2.68542 16.0234 2.47726 16.0234Z" fill="#F89A03"/>
<path d="M7.83398 16.3952V18.9693C7.83398 19.1774 8.00152 19.345 8.20968 19.345C8.41784 19.345 8.58538 19.1774 8.58538 18.9693V16.3952C8.58538 16.1871 8.41784 16.0195 8.20968 16.0195C8.00152 16.0195 7.83398 16.1871 7.83398 16.3952Z" fill="#F89A03"/>
<path d="M27.1719 10.0736C27.1719 11.6119 28.4259 12.8659 29.9642 12.8659C31.5025 12.8659 32.7566 11.6119 32.7566 10.0736C32.7566 8.53526 31.5025 7.28125 29.9642 7.28125C28.4259 7.28125 27.1719 8.53526 27.1719 10.0736ZM29.9642 8.02757C31.0913 8.02757 32.0102 8.9465 32.0102 10.0736C32.0102 11.2007 31.0913 12.1196 29.9642 12.1196C28.8371 12.1196 27.9182 11.2007 27.9182 10.0736C27.9182 8.9465 28.8371 8.02757 29.9642 8.02757Z" fill="#F89A03"/>
<path d="M27.0954 16.6133C26.8873 16.6133 26.7197 16.7808 26.7197 16.989V19.4869C26.7197 19.695 26.8923 19.8625 27.0954 19.8625C27.3036 19.8625 27.4711 19.695 27.4711 19.4869V16.989C27.4711 16.7808 27.2985 16.6133 27.0954 16.6133Z" fill="#F89A03"/>
<path d="M34.7469 6.18359C33.96 6.18359 33.3203 6.82329 33.3203 7.6153L33.3305 11.3621C33.3305 12.4994 32.4115 13.4284 31.2743 13.4335H30.2487H27.9793C26.1211 13.4335 24.6133 14.9414 24.6133 16.7996V19.4954C24.6133 19.7036 24.7808 19.8711 24.989 19.8711C25.1971 19.8711 25.3647 19.7036 25.3647 19.4954V16.7996C25.3647 15.3577 26.5375 14.1798 27.9844 14.1798H31.2794C32.8278 14.1697 34.0819 12.9055 34.0768 11.357L34.0666 7.61023C34.0666 7.23453 34.3712 6.92991 34.7469 6.92991C35.1226 6.92991 35.4273 7.23453 35.4273 7.61023V12.2252C35.4273 13.6772 34.6048 15.0531 33.2848 15.8146C32.7923 16.0989 32.4826 16.6371 32.4826 17.221V19.3482C32.4826 19.5564 32.6451 19.7239 32.8532 19.7239C33.0614 19.7239 33.2289 19.5564 33.2289 19.3482V17.221C33.2289 16.9062 33.3965 16.6117 33.6605 16.4594C35.214 15.5608 36.1736 13.9412 36.1736 12.2252V7.61023C36.1736 6.82329 35.5339 6.18359 34.7469 6.18359Z" fill="#F89A03"/>
<path d="M26.6292 21.6883C24.309 24.0187 21.2222 25.2981 17.9323 25.2981C14.3734 25.2981 11.0073 23.7598 8.67193 21.0791L9.87517 21.3939C10.0732 21.4447 10.2813 21.3279 10.3321 21.1248C10.3829 20.9217 10.2661 20.7186 10.063 20.6679L7.91038 20.1094C7.80884 20.084 7.69715 20.0993 7.60576 20.1602C7.51437 20.2211 7.45853 20.3176 7.4433 20.4242L7.16406 22.5717C7.13868 22.7748 7.28083 22.9627 7.48899 22.9931C7.50422 22.9931 7.51945 22.9931 7.53976 22.9931C7.72253 22.9931 7.88499 22.8561 7.91038 22.6682L8.06269 21.5157C10.5403 24.3944 14.1348 26.0444 17.9323 26.0444C21.4202 26.0444 24.6949 24.6838 27.1572 22.2113C27.3045 22.064 27.3045 21.8305 27.1572 21.6833C27.01 21.536 26.7764 21.536 26.6292 21.6833V21.6883Z" fill="#F89A03"/>
<path d="M7.22933 6.2607C7.40195 6.37747 7.63041 6.33177 7.74718 6.15916C10.042 2.77281 13.8446 0.747093 17.9316 0.747093C22.0186 0.747093 25.8822 2.82866 28.1465 6.215L26.8214 6.02208C26.6183 5.99162 26.4254 6.13377 26.4 6.33685C26.3696 6.53993 26.5117 6.73286 26.7148 6.75824L28.9131 7.07301C28.9131 7.07301 28.9487 7.07301 28.969 7.07301C29.0553 7.07301 29.1416 7.04255 29.2127 6.98163C29.2939 6.91055 29.3447 6.80901 29.3447 6.70239L29.3853 4.53452C29.3853 4.32637 29.2228 4.15883 29.0197 4.15375C28.8167 4.15375 28.644 4.31621 28.639 4.51929L28.6187 5.555C27.5322 4.00144 26.1106 2.69158 24.4657 1.73203C22.4907 0.58463 20.2315 -0.0195312 17.9367 -0.0195312C13.6009 -0.0195312 9.56474 2.12803 7.13794 5.72254C7.02117 5.89515 7.06687 6.1287 7.23948 6.24039L7.22933 6.2607Z" fill="#F89A03"/>
</g>
<defs>
<clipPath id="clip0_3356_1039">
<rect width="36.1735" height="26.05" fill="white"/>
</clipPath>
</defs>
</svg>
