<svg width="27" height="27" viewBox="0 0 27 27" fill="none" xmlns="http://www.w3.org/2000/svg">
<g clip-path="url(#clip0_3356_991)">
<path d="M25.9096 0.482106C25.8888 0.30088 25.7487 0.161077 25.5671 0.140365C22.6611 -0.185842 19.7655 0.0575188 16.9633 0.860093C14.1196 1.67302 11.5146 3.02963 9.21577 4.8885C8.63977 4.96099 8.06895 5.06454 7.5137 5.19917C4.82567 5.83087 2.52165 7.07357 0.663902 8.88065C0.549739 8.99457 0.513414 9.16544 0.580874 9.3156L2.59949 13.8048C2.4957 14.0637 2.39192 14.3278 2.29851 14.5971C2.24662 14.7369 2.28295 14.8974 2.39192 15.0009L3.39344 16.0003L1.56683 17.8229C1.41634 17.973 1.41634 18.2216 1.56683 18.3717L3.10285 19.9044L0.113843 22.8817C-0.0366454 23.0318 -0.0366454 23.2804 0.113843 23.4305C0.191681 23.5082 0.290277 23.5445 0.388872 23.5445C0.487468 23.5445 0.586064 23.5082 0.663902 23.4305L3.64772 20.4533L4.35345 21.1574L1.92489 23.5807C1.7744 23.7309 1.7744 23.9794 1.92489 24.1296C2.00273 24.2072 2.10132 24.2435 2.19992 24.2435C2.29851 24.2435 2.39711 24.2072 2.47495 24.1296L4.90351 21.7063L5.60925 22.4105L2.62544 25.3878C2.47495 25.5379 2.47495 25.7865 2.62544 25.9366C2.70327 26.0143 2.80187 26.0506 2.90047 26.0506C2.99906 26.0506 3.09766 26.0143 3.1755 25.9366L6.15931 22.9594L7.64343 24.4402C7.71608 24.5127 7.81468 24.5541 7.91846 24.5541C8.02225 24.5541 8.12084 24.5127 8.19349 24.4402L10.0201 22.6176L11.0216 23.6169C11.0943 23.6894 11.1929 23.7309 11.2967 23.7309C11.3382 23.7309 11.3849 23.7257 11.4264 23.7101C11.6962 23.6169 11.9557 23.5134 12.2203 23.4098L16.7194 25.424C16.7713 25.4447 16.8232 25.4603 16.8803 25.4603C16.9841 25.4603 17.0827 25.4189 17.1553 25.3412C18.9715 23.4875 20.2118 21.1885 20.8449 18.5064C20.9746 17.9523 21.0784 17.3828 21.1562 16.808C21.8723 15.9226 22.521 14.9854 23.0918 14.0068C23.5225 13.2663 23.9169 12.4845 24.2594 11.6923C25.7746 8.18164 26.3455 4.30857 25.9148 0.492462L25.9096 0.482106ZM7.69533 5.94997C7.82506 5.9189 7.9496 5.89301 8.07933 5.86194C7.87176 6.05352 7.66938 6.25028 7.467 6.44704C5.59368 8.31626 4.09918 10.4599 3.00944 12.8262L1.40077 9.24311C3.1236 7.63278 5.23563 6.52471 7.69533 5.94479V5.94997ZM9.47005 22.0688L7.91846 23.6169L3.92275 19.63L2.38673 18.0973L3.93831 16.5491L9.47005 22.0688ZM20.0872 18.32C19.506 20.7691 18.3955 22.8817 16.7817 24.6007L13.1907 22.9956C15.5674 21.9082 17.7158 20.417 19.5839 18.5478C19.7811 18.351 19.9783 18.1439 20.1703 17.9368C20.1443 18.0662 20.1132 18.1957 20.082 18.32H20.0872ZM23.5381 11.3764C23.206 12.1427 22.8272 12.8935 22.412 13.6081C21.4883 15.2029 20.3519 16.6734 19.0338 17.9938C16.844 20.1788 14.2701 21.8306 11.3901 22.892L3.10804 14.6281C3.19625 14.3951 3.28447 14.1673 3.37788 13.9395C4.44686 11.3402 6.00882 9.00492 8.01706 7.00108C8.5256 6.49364 9.0601 6.0121 9.61016 5.56162C13.938 2.0303 19.5943 0.331947 25.1727 0.880804C25.5256 4.46391 24.9599 8.08326 23.5433 11.3764H23.5381Z" fill="#F89A03"/>
<path d="M17.5294 4.19922C16.3774 4.19922 15.2928 4.6497 14.4781 5.46263C13.6634 6.27556 13.2119 7.35774 13.2119 8.50723C13.2119 9.65672 13.6634 10.7389 14.4781 11.5518C15.2928 12.3648 16.3774 12.8152 17.5294 12.8152C18.6814 12.8152 19.7659 12.3648 20.5806 11.5518C21.3953 10.7389 21.8468 9.65672 21.8468 8.50723C21.8468 7.35774 21.3953 6.27556 20.5806 5.46263C19.7659 4.6497 18.6814 4.19922 17.5294 4.19922ZM20.0306 11.003C19.3612 11.6709 18.4738 12.0386 17.5294 12.0386C16.5849 12.0386 15.6924 11.6709 15.0281 11.003C14.3587 10.335 13.9903 9.44961 13.9903 8.50205C13.9903 7.5545 14.3587 6.66908 15.0281 6.00631C15.6976 5.33836 16.5849 4.97073 17.5294 4.97073C18.4738 4.97073 19.3664 5.33836 20.0306 6.00631C20.7 6.67425 21.0684 7.55967 21.0684 8.50205C21.0684 9.44443 20.7 10.335 20.0306 11.003Z" fill="#F89A03"/>
<path d="M15.0073 4.15289C15.0644 4.15289 15.1267 4.13736 15.1838 4.11147C15.6664 3.86811 16.1697 3.64546 16.6886 3.45388C16.891 3.38139 16.9948 3.15874 16.917 2.9568C16.8443 2.75486 16.6212 2.6513 16.4188 2.72897C15.8739 2.93091 15.3394 3.16391 14.8309 3.42281C14.6389 3.52119 14.5662 3.7542 14.6597 3.94578C14.7271 4.0804 14.862 4.15807 15.0073 4.15807V4.15289Z" fill="#F89A03"/>
<path d="M23.7983 1.83777C23.6893 1.82224 21.0376 1.42354 17.7684 2.30378C17.5608 2.36074 17.4363 2.57303 17.4934 2.78015C17.5401 2.95102 17.6957 3.06493 17.867 3.06493C17.8981 3.06493 17.9344 3.06493 17.9656 3.0494C21.0584 2.22094 23.6374 2.59374 23.6737 2.6041C23.8865 2.63517 24.0837 2.49019 24.1148 2.28307C24.146 2.07078 24.0007 1.87402 23.7931 1.84295L23.7983 1.83777Z" fill="#F89A03"/>
</g>
<defs>
<clipPath id="clip0_3356_991">
<rect width="26.05" height="26.05" fill="white"/>
</clipPath>
</defs>
</svg>
