<svg width="200" height="60" viewBox="0 0 200 60" fill="none" xmlns="http://www.w3.org/2000/svg">
<path d="M24.6205 59.4054C24.4479 59.4045 24.2784 59.3598 24.1274 59.2755C23.9764 59.1912 23.8488 59.0698 23.7564 58.9227C23.4471 57.9788 23.4996 56.9521 23.9035 56.0453C24.3353 54.7742 24.8513 53.5338 25.4478 52.3325C25.9956 50.7823 26.0787 49.1035 25.6868 47.5059C25.5344 46.6618 25.3004 45.8348 24.9882 45.0369L24.5653 45.1854C23.4806 45.5752 22.4327 45.8537 22.4327 45.8537C22.381 45.8662 22.3267 45.8621 22.2773 45.8422C22.2279 45.8223 22.1858 45.7873 22.1569 45.7423C22.1269 45.6987 22.1107 45.6469 22.1107 45.5938C22.1107 45.5407 22.1269 45.4888 22.1569 45.4453C22.304 45.2782 23.499 43.7188 24.3631 43.5889C24.4601 43.5769 24.5585 43.5874 24.6509 43.6196C24.7433 43.6517 24.8272 43.7047 24.8963 43.7745C25.0462 43.9294 25.1648 44.1122 25.2456 44.3129C26.4406 43.8302 26.6244 43.5703 26.6428 43.5146C26.6406 42.7919 26.4706 42.0798 26.1464 41.4354C25.7769 40.4133 25.2959 39.4358 24.7124 38.5209C24.2528 37.8526 24.0506 37.834 24.0506 37.834C23.0781 38.136 22.1261 38.5019 21.2009 38.9293C19.2337 39.8575 19.105 40.2473 19.105 40.2845C19.105 40.3216 19.105 40.7857 19.2337 41.157C19.325 41.1695 19.4126 41.2011 19.4911 41.2498C20.2643 42.5472 20.7533 43.9967 20.9251 45.501C20.9251 46.3363 19.5462 48.0442 18.3328 49.3066C17.1906 50.584 15.9005 51.7184 14.4904 52.6852C14.0491 52.9451 13.7182 52.9637 13.4792 52.6852C13.2402 52.4068 13.1299 51.9984 13.2586 51.2558C11.8955 52.9622 10.3268 54.49 8.58882 55.804C8.45191 55.8935 8.29229 55.9411 8.1292 55.9411C7.9661 55.9411 7.80648 55.8935 7.66957 55.804C7.11803 55.4141 7.30188 54.1703 7.55926 52.7223C7.56806 52.543 7.56806 52.3633 7.55926 52.184C7.24672 52.3696 6.71356 52.7409 6.25393 53.0565C5.2595 53.9619 4.14586 54.724 2.94464 55.3213C2.68725 55.3213 2.30117 55.4513 2.09894 55.2099C1.8967 54.9686 2.09894 54.4488 2.33794 53.8548C2.57694 53.2607 2.85272 52.7409 2.74241 52.4253C2.71839 52.3613 2.72037 52.2903 2.74791 52.2277C2.77545 52.1651 2.82632 52.1161 2.88949 52.0912C2.95535 52.0727 3.02567 52.0795 3.08682 52.1104C3.14797 52.1412 3.19558 52.1939 3.22042 52.2582C3.30701 52.9059 3.16372 53.5635 2.81595 54.1146C2.6798 54.3668 2.57484 54.6349 2.50341 54.9129H2.81595C3.97443 54.4364 5.06797 53.8125 6.07008 53.0565C7.43057 52.0912 7.74311 51.9055 7.90858 51.9984C7.95513 52.0222 7.9958 52.0562 8.02762 52.098C8.05943 52.1397 8.08158 52.1881 8.09243 52.2397C8.1007 52.5712 8.06358 52.9023 7.98212 53.2236C7.8742 53.7635 7.79442 54.3088 7.74311 54.8572C7.74311 55.5998 7.74311 55.7668 7.87181 55.804C8.0005 55.8411 8.07404 55.804 8.25789 55.804C10.1859 54.2538 11.9372 52.4917 13.4792 50.5504C13.527 50.5142 13.585 50.4947 13.6447 50.4947C13.7043 50.4947 13.7624 50.5142 13.8101 50.5504C13.8584 50.5806 13.8954 50.6262 13.9154 50.6799C13.9353 50.7336 13.9371 50.7925 13.9205 50.8474C13.9205 50.8474 13.7734 51.3115 13.6814 51.7942C13.5895 52.2768 13.6814 52.7595 13.6814 52.8152C13.6814 52.8709 13.8653 52.8152 14.1227 52.6852C15.4677 51.7341 16.7012 50.6318 17.7997 49.3994C19.6382 47.4502 20.2633 46.3363 20.2449 45.9836C20.0749 44.6947 19.7026 43.4414 19.1418 42.2708C19.2807 43.3147 19.2056 44.3762 18.9212 45.3896C17.7674 46.7422 16.4084 47.9014 14.8949 48.8239C13.3093 49.9725 11.6011 50.9377 9.80223 51.7013C9.3426 51.8313 8.88298 51.9241 8.69913 51.7013C8.51528 51.4786 8.90137 50.8288 9.89415 49.6964L10.9237 48.267C10.345 48.2784 9.77027 48.3658 9.21391 48.5269C8.22112 48.7311 6.93418 49.0652 5.70238 49.3994C4.47059 49.7335 3.20203 50.0677 2.22763 50.2719C0.793606 50.5875 0.389137 50.5504 0.186902 50.3833C0.121728 50.3348 0.070401 50.2697 0.0381167 50.1948C0.0058325 50.1198 -0.00626353 50.0375 0.00305283 49.9563C0.00305283 49.4737 0.81199 49.0467 2.54017 48.2299C2.98141 48.0257 3.49619 47.7843 3.71681 47.6544C3.42152 47.4406 3.1077 47.2542 2.77918 47.0975C2.04378 46.7076 1.54739 46.4292 1.6577 46.0579C1.76801 45.6866 1.8967 45.7423 2.88949 45.501C3.42265 45.371 4.15805 45.2039 5.09568 45.0369L7.70634 44.5542C7.48572 44.3686 7.17318 44.1087 6.89741 43.8488C5.64723 42.7164 5.59208 42.4008 5.62885 42.178C5.66562 41.9552 6.32747 41.751 10.0412 42.178C11.0708 42.2894 12.321 42.4379 12.799 42.4379H12.8725L12.4313 41.9738C11.9717 41.5283 11.5856 41.1384 11.6591 40.7671C11.6693 40.7078 11.6951 40.6523 11.734 40.6065C11.7728 40.5607 11.8232 40.5264 11.8797 40.5072C13.2059 40.4541 14.5335 40.5663 15.8325 40.8414C16.6598 40.9342 17.5239 41.0456 18.2041 41.157L18.7005 41.2498C18.7005 40.9899 18.6638 40.7671 18.5902 40.5815C18.5902 40.2473 18.7373 39.7276 20.9067 38.7251C21.8758 38.2354 22.8771 37.8136 23.9035 37.4627C24.1793 37.4627 24.4918 37.5741 24.8595 38.0011C25.5414 38.9549 26.0918 39.9979 26.4958 41.1013C26.8267 41.9181 27.3231 43.3475 27.0841 43.8488C26.9921 44.0715 26.698 44.3871 25.4478 44.9069C25.7675 45.7309 26.0136 46.582 26.1832 47.4502C26.5815 49.163 26.4793 50.9556 25.8891 52.611C25.3061 53.7755 24.8024 54.9787 24.3815 56.2124C24.0251 56.9961 23.9283 57.8749 24.1057 58.7185C24.1544 58.7962 24.2225 58.8594 24.3033 58.9018C24.384 58.9442 24.4744 58.9642 24.5653 58.9599C26.3196 58.5779 27.9738 57.825 29.419 56.7507C31.5591 55.4706 33.4883 53.8609 35.1367 51.9798C36.6075 50.1234 37.9128 47.3945 37.5819 45.7794C37.5462 45.6068 37.4775 45.4428 37.3796 45.2967C36.0927 46.4106 32.6915 46.1878 31.2942 45.6309C31.092 45.6309 30.853 45.4267 30.8162 45.1854C30.8161 45.1159 30.8328 45.0475 30.8649 44.986C30.8969 44.9246 30.9433 44.8719 31.0001 44.8326C32.0159 44.5072 33.0786 44.3566 34.1439 44.3871C35.1916 44.3387 36.2412 44.4197 37.2693 44.6284C37.3204 44.5082 37.3468 44.3787 37.3468 44.2479C37.3468 44.117 37.3204 43.9876 37.2693 43.8673C36.92 42.7535 35.6147 39.4862 34.2174 36.2561C33.8497 35.4021 33.5188 34.6225 33.2063 33.9356C31.3901 35.5148 29.1238 36.4704 26.7348 36.6645H26.6612C24.9761 36.6371 23.3002 36.9202 21.7157 37.4999C21.6842 37.5745 21.6295 37.6366 21.5598 37.6769C21.49 37.7171 21.4092 37.7332 21.3296 37.7226C21.2713 37.7331 21.2112 37.7243 21.1582 37.6975C21.1052 37.6708 21.0622 37.6275 21.0354 37.5741C21.0093 37.5325 20.9954 37.4842 20.9954 37.4349C20.9954 37.3856 21.0093 37.3373 21.0354 37.2957C21.0712 37.2391 21.1222 37.194 21.1825 37.1657C20.5908 36.285 19.9461 35.4419 19.2521 34.641C19.0131 34.344 18.7741 34.0284 18.4983 33.7128C17.1209 32.3722 15.3806 31.4741 13.4976 31.1324C12.4023 30.9441 11.368 30.492 10.4825 29.8144C10.3244 29.6743 10.2093 29.4916 10.1506 29.2877C10.092 29.0837 10.0923 28.8672 10.1515 28.6634C10.5009 27.6424 12.7254 26.807 17.3217 26.0459C20.1351 25.5324 23.0328 25.7757 25.7236 26.7513C27.2453 27.2423 28.614 28.1253 29.6947 29.3132C29.8501 29.5625 29.9563 29.8399 30.0073 30.13C30.4056 29.9376 30.8253 29.7943 31.2575 29.703C30.5696 29.5653 29.9332 29.2376 29.419 28.7562C28.9688 28.3277 28.6071 27.8135 28.3546 27.2432C28.1022 26.6729 27.9641 26.0578 27.9482 25.4333C27.9347 25.068 27.9945 24.7037 28.124 24.3623C28.2535 24.021 28.4501 23.7096 28.7019 23.4469C28.8858 23.2613 29.1248 23.02 29.3638 22.7415C29.0289 22.7132 28.6969 22.6573 28.371 22.5744C28.2101 22.9914 27.966 23.3705 27.654 23.6883C27.4386 23.8207 27.189 23.8854 26.937 23.8739C26.1192 23.8108 25.3175 23.61 24.5653 23.2799C22.9291 22.6115 20.8883 21.4235 20.6677 20.0683C20.8456 17.8328 21.5111 15.6647 22.6165 13.7194C23.5293 11.6052 24.8123 9.67454 26.4038 8.02025C27.6182 7.34101 29.0189 7.0803 30.3934 7.27769C30.327 7.04732 30.327 6.80262 30.3934 6.57225C30.7145 6.02417 31.1176 5.52948 31.5884 5.1057C32.1951 4.54878 32.6731 4.28888 32.9673 4.36314C33.0759 4.38955 33.1712 4.455 33.2355 4.54725C33.2998 4.63949 33.3286 4.75223 33.3166 4.86437C33.3166 5.43985 32.8753 5.95964 32.048 6.94353L31.5332 7.55615C31.7455 7.63264 31.949 7.73223 32.1399 7.85317C32.324 7.95259 32.4716 8.10907 32.561 8.29957C32.6503 8.49007 32.6768 8.70452 32.6363 8.91132C32.526 9.33829 32.3054 9.46824 32.1399 9.50537C31.6619 9.61675 31.2023 9.09696 30.9633 8.79993C30.7243 8.50291 30.8346 8.61429 30.7794 8.50291C30.3014 9.11552 29.7683 9.83952 29.1616 10.712C27.8663 12.7012 26.7701 14.8156 25.8891 17.0238C25.3135 18.2755 24.9054 19.599 24.6756 20.9594C25.0956 20.3807 25.4531 19.7584 25.742 19.103C26.3303 18.0077 27.0289 16.5782 27.6908 15.2045C28.4494 13.2857 29.4438 11.4707 30.6508 9.80239C30.9656 9.67815 31.3105 9.65424 31.6392 9.73389C31.9679 9.81355 32.2646 9.99294 32.4893 10.2479L32.8018 10.5635C33.482 9.41255 34.0704 8.70711 34.6403 8.54004H35.0815C35.0815 8.31727 35.0815 8.05737 35.0815 7.81604C35.0113 6.3778 35.363 4.95062 36.0927 3.7134C36.5538 2.86924 37.1765 2.12601 37.9245 1.52688C38.6725 0.92775 39.5309 0.484667 40.4499 0.223367C41.3939 -0.0384158 42.386 -0.0705942 43.3447 0.129469C44.3034 0.329532 45.2015 0.756143 45.9654 1.37433C47.1383 2.22651 48.0957 3.34588 48.7599 4.6416C49.2752 5.90478 49.5014 7.2691 49.4218 8.63286C49.4593 9.43281 49.3352 10.2321 49.057 10.9821C48.7789 11.7321 48.3525 12.4171 47.8039 12.9954C47.4917 13.3514 47.1082 13.6364 46.6787 13.8316C46.2493 14.0268 45.7837 14.1277 45.3127 14.1277C44.8418 14.1277 44.3762 14.0268 43.9468 13.8316C43.5173 13.6364 43.1338 13.3514 42.8216 12.9954C42.0672 12.4118 41.4409 11.6766 40.982 10.8363C40.5232 9.99595 40.2419 9.06871 40.1558 8.11307L39.7697 8.37296C39.485 8.51964 39.17 8.59611 38.8504 8.59611C38.5309 8.59611 38.2158 8.51964 37.9312 8.37296L37.6554 8.18732C37.6161 8.52872 37.6668 8.87456 37.8025 9.18978C38.2413 9.42231 38.665 9.68273 39.0711 9.96947C39.5597 10.2547 39.986 10.6369 40.3241 11.0932C40.6622 11.5495 40.9052 12.0703 41.0382 12.6241C41.0535 12.715 41.0499 12.8082 41.0277 12.8976C41.0056 12.9871 40.9654 13.0709 40.9096 13.1439C42.748 13.9793 43.8879 14.3691 43.9063 14.3877C43.9404 14.3932 43.9723 14.4083 43.9984 14.4313C44.0244 14.4543 44.0434 14.4842 44.0534 14.5176C44.067 14.5499 44.0741 14.5847 44.0741 14.6197C44.0741 14.6548 44.067 14.6896 44.0534 14.7218C43.9075 15.0682 43.7158 15.3929 43.4834 15.6872C43.3569 15.7846 43.2094 15.8506 43.0528 15.8796C42.8963 15.9086 42.7352 15.9 42.5826 15.8543L42.8584 16.6525C43.1706 17.5871 43.5967 18.4788 44.1269 19.3072C44.3721 19.6137 44.6712 19.8717 45.0094 20.0683C45.1762 19.9188 45.3792 19.8163 45.5977 19.7713C46.0227 19.7665 46.4413 19.8754 46.8111 20.0868C47.4045 20.3673 47.9708 20.7029 48.5025 21.0893C49.875 22.033 51.0651 23.2221 52.0141 24.5979C53.0293 26.5055 53.8604 28.5072 54.496 30.5755C55.0843 32.2277 55.691 33.9541 56.3345 35.2351C57.0699 36.9058 57.5295 37.2957 57.7502 37.3514L57.9524 37.24C58.0519 35.4909 57.7236 33.744 56.9964 32.1534C56.2761 29.7229 55.2373 27.4004 53.9077 25.2476C52.6766 23.6215 51.1779 22.2212 49.4769 21.1079C48.19 20.1611 47.3994 19.6042 47.5097 19.0287C47.6201 18.4532 48.0061 18.5089 48.3187 18.4161C51.173 17.83 54.0851 17.5808 56.9964 17.6735C60.2873 17.7663 64.6445 18.379 66.6485 20.718C67.3663 21.6324 67.761 22.7628 67.77 23.9296L68.3215 23.744C68.3528 23.7285 68.3868 23.7196 68.4215 23.7178C68.4563 23.716 68.491 23.7213 68.5237 23.7335C68.5563 23.7456 68.5862 23.7643 68.6115 23.7885C68.6368 23.8126 68.657 23.8417 68.6708 23.8739C68.6948 23.9379 68.6929 24.0089 68.6653 24.0715C68.6378 24.1341 68.5869 24.1831 68.5237 24.208C68.2853 24.3081 68.0394 24.3888 67.7883 24.4494C67.7657 25.0723 67.6982 25.6928 67.5861 26.3058C66.9108 29.1517 65.6588 31.8254 63.9091 34.1584C62.2186 36.5755 60.0136 38.5799 57.456 40.0246C54.1952 41.5169 50.8273 42.7581 47.3811 43.7374C44.8912 44.6482 42.2844 45.1921 39.641 45.3524C39.3468 45.3524 38.8688 44.9069 37.8025 42.772C37.1406 41.4726 36.3501 39.709 35.5044 37.6298C34.9161 36.2004 34.3461 34.7338 33.8865 33.4344L33.6843 33.6386C33.9968 34.3069 34.3277 35.068 34.6771 35.8662C36.1111 39.2078 37.4716 42.605 37.8577 43.7931C37.9267 43.9864 37.9542 44.1923 37.9383 44.3971C37.9225 44.602 37.8637 44.8011 37.7657 44.9812C37.9621 45.1936 38.0959 45.4572 38.1518 45.7423C38.1892 48.2035 37.2721 50.5819 35.5963 52.3696C33.9452 54.2831 32.0027 55.9186 29.8418 57.2148C28.273 58.3071 26.494 59.0535 24.6205 59.4054ZM10.8318 47.7472C11.2179 47.7472 11.3649 47.84 11.4569 47.97C11.5488 48.0999 11.5672 48.2856 11.3466 48.5454C11.1259 48.8053 10.7399 49.2694 10.4457 49.6222C10.0477 50.0362 9.68485 50.4833 9.36099 50.9588L9.82061 50.8659C11.7878 50.2719 18.2041 45.8908 18.6086 44.8512C18.8842 43.8039 18.9405 42.7101 18.7741 41.6396C18.1674 41.5283 16.9356 41.3612 15.6303 41.1941C14.4677 41.0241 13.2929 40.9558 12.1187 40.9899C12.3 41.2197 12.4966 41.4368 12.707 41.6396C13.1667 42.0852 13.4241 42.3636 13.3873 42.6421C13.3779 42.699 13.3566 42.7532 13.3249 42.8012C13.2932 42.8492 13.2518 42.8899 13.2034 42.9206C12.9828 43.0505 12.3577 42.9206 9.98608 42.7164C8.72459 42.5373 7.45391 42.4319 6.18039 42.4008C6.86106 43.1996 7.62543 43.9216 8.46013 44.5542C8.50363 44.5839 8.53622 44.6274 8.55283 44.6777C8.56945 44.728 8.56918 44.7825 8.55205 44.8326C8.53901 44.8796 8.51312 44.922 8.47735 44.9548C8.44159 44.9876 8.39739 45.0096 8.34982 45.0183C6.30028 45.3034 4.26851 45.7063 2.2644 46.225C2.44825 46.3549 2.79756 46.5405 3.01818 46.6705C3.7352 47.0418 4.17643 47.2831 4.24997 47.5987C4.27293 47.6481 4.28483 47.7019 4.28483 47.7565C4.28483 47.811 4.27293 47.8649 4.24997 47.9143C4.12128 48.0999 3.75358 48.2856 2.81595 48.7125C2.31956 48.9539 1.73124 49.2323 1.29 49.4737C0.993188 49.6297 0.735424 49.8519 0.536216 50.1234C1.10854 50.1486 1.68086 50.0732 2.22763 49.9006C3.18365 49.6779 4.39705 49.3623 5.57369 49.0467C6.75033 48.7311 8.23951 48.3412 9.25068 48.1185C9.76768 47.9673 10.2967 47.8617 10.8318 47.8029V47.7472ZM31.5148 45.3153C33.238 45.8647 35.0967 45.7925 36.7729 45.1111C35.8608 44.9697 34.937 44.9199 34.0152 44.9626C33.1748 44.9547 32.3361 45.0418 31.5148 45.2225V45.3153ZM24.4183 44.3129C23.909 44.5081 23.4635 44.8423 23.1313 45.2782L24.4183 44.8512L24.786 44.7213C24.7368 44.5899 24.6617 44.4699 24.5653 44.3686C24.5653 44.3686 24.4918 44.22 24.4183 44.22V44.3129ZM34.1807 33.026C34.6587 34.3626 35.247 35.9219 35.9089 37.5184C36.7362 39.5605 37.5267 41.3241 38.1702 42.605C39.2549 44.7213 39.6594 44.9255 39.7145 44.944C42.2677 44.7664 44.7819 44.2161 47.1788 43.3104C50.5974 42.3379 53.9353 41.0965 57.1618 39.5976C59.6557 38.1998 61.805 36.2517 63.4495 33.8985C65.1953 31.6322 66.4482 29.0198 67.1265 26.2315C67.2448 25.7009 67.3125 25.1601 67.3287 24.6165C66.94 24.6419 66.5519 24.5583 66.2072 24.3751C66.0039 25.7061 65.7339 27.0258 65.3983 28.3293C64.6841 30.6466 63.4726 32.7763 61.85 34.5668C60.8208 35.7827 59.6262 36.8452 58.3017 37.7226C58.2475 37.8019 58.1764 37.8681 58.0938 37.9162C58.0111 37.9644 57.9188 37.9934 57.8237 38.0011C57.3976 38.2353 56.9476 38.422 56.4816 38.558L54.827 38.985C53.3194 39.3748 51.2787 39.9132 49.3115 40.4887C49.1276 41.2684 47.8958 42.0666 46.8479 42.605C45.9395 43.091 44.9848 43.4828 43.9982 43.7745C42.9442 44.0963 42.2455 44.1334 41.9023 43.8859C41.8181 43.8263 41.7514 43.7448 41.7093 43.65C41.6672 43.5552 41.6514 43.4507 41.6633 43.3475C41.6633 42.8463 42.3436 42.1409 46.7008 40.7486L48.8151 40.0988C48.3253 37.7632 47.6111 35.4814 46.6824 33.2858C45.6906 30.3595 44.2916 27.5905 42.5274 25.062C40.7271 22.8837 38.2182 21.4229 35.4492 20.9408H35.2654C34.3047 20.7184 33.3941 20.3153 32.5812 19.7527C32.3054 20.1425 31.9561 20.6252 31.5332 21.1821C31.1104 21.739 30.8346 22.0546 30.5037 22.463H30.7243C32.2844 22.532 33.8474 22.4574 35.3941 22.2403C36.8703 22.0004 38.3838 22.2206 39.7329 22.8714C40.9733 23.4499 42.0162 24.3866 42.7297 25.5632C43.3537 26.8148 43.5103 28.2515 43.1709 29.6102C43.0163 30.4945 42.6915 31.3396 42.2149 32.0978C42.4068 32.2019 42.5911 32.3198 42.7664 32.4505L43.6121 33.026C44.9359 33.8985 45.7999 34.4925 45.7999 35.1608C45.7876 35.3316 45.7321 35.4964 45.6387 35.6393C45.5454 35.7823 45.4174 35.8988 45.2668 35.9776C43.0193 36.8811 40.5606 37.1068 38.1886 36.6274C37.9756 36.5817 37.7749 36.4901 37.6004 36.3587C37.4258 36.2273 37.2815 36.0593 37.1774 35.8662C36.9203 34.9499 36.9203 33.9794 37.1774 33.0631C37.3056 32.5599 37.3674 32.0418 37.3613 31.5223C37.3613 31.1695 37.2693 30.6312 37.1958 30.0743C37.1223 29.5174 37.1039 29.3874 37.0671 29.0533C36.5548 29.3151 36.011 29.5086 35.4492 29.6287H35.0264L33.8313 29.703C34.1419 30.2911 34.3826 30.9142 34.5484 31.5594C34.5796 31.8015 34.5631 32.0475 34.5 32.2833C34.437 32.519 34.3284 32.7398 34.1807 32.9331V33.026ZM48.5209 40.6743L46.6824 41.2127C42.27 42.6235 41.9943 43.2547 41.9759 43.3661C42.5316 43.4789 43.108 43.4207 43.6305 43.199C44.5819 42.9068 45.5049 42.5277 46.3883 42.0666C46.9581 41.7712 47.4997 41.4232 48.0061 41.027C48.1939 40.8987 48.3666 40.7492 48.5209 40.5815V40.6743ZM32.6363 19.0658L32.7466 19.1586C33.5067 19.6955 34.3617 20.0799 35.2654 20.291H35.4308C38.3059 20.8012 40.9102 22.3199 42.7848 24.5793C43.6478 25.6747 44.3762 26.8715 44.9542 28.1436C45.6345 29.5174 46.3515 31.1695 47.0317 32.9517C47.9381 35.17 48.6577 37.4615 49.1828 39.8018C51.1684 39.2449 53.1539 38.7251 54.6983 38.3353L56.3529 37.9083C56.6379 37.8298 56.915 37.7241 57.1802 37.5927C56.261 36.8316 55.3417 34.3811 54.0364 30.7055C53.3658 28.6865 52.5102 26.735 51.4809 24.8764C50.5712 23.559 49.431 22.4203 48.1165 21.5163C47.3866 20.8838 46.5056 20.455 45.5609 20.2725H45.3955L45.9286 20.5138C46.7743 20.9037 47.6201 21.2935 47.9142 22.1846C48.0245 22.5002 48.1165 22.9086 47.9142 23.1313C47.712 23.3541 47.2156 23.1313 46.756 23.02C46.6032 22.9421 46.443 22.8799 46.278 22.8343L46.6273 23.2799C47.2524 24.0781 48.0981 25.1363 47.5649 25.8602C47.4362 26.0459 47.142 26.2501 46.5537 26.1201C45.1258 25.64 43.8884 24.7094 43.0238 23.4655C43.1716 22.5872 43.5529 21.7659 44.1269 21.0893C44.2703 20.8564 44.4366 20.6387 44.6233 20.4396C44.2719 20.2238 43.9607 19.9473 43.7041 19.6227C43.1495 18.7104 42.711 17.7312 42.3987 16.7082C42.2884 16.374 42.1597 16.0028 42.0126 15.6315C41.6989 15.5538 41.379 15.5041 41.0566 15.483H39.0343C38.5563 15.483 38.4827 15.6129 38.4827 15.6129C38.4827 15.6129 38.4827 15.8728 38.8872 17.0795C39.1391 17.7243 39.4467 18.3455 39.8065 18.9359C39.9352 19.1215 40.5235 18.8431 40.9463 18.6574C41.3692 18.4718 42.031 18.1748 42.4171 18.3418C42.5013 18.3696 42.5773 18.418 42.6383 18.4828C42.6993 18.5477 42.7433 18.6268 42.7664 18.7131C42.8074 18.8099 42.8285 18.9141 42.8285 19.0194C42.8285 19.1247 42.8074 19.2289 42.7664 19.3257C42.5826 19.7341 42.0494 19.9198 41.5346 20.0868C41.2429 20.1637 40.9684 20.296 40.7257 20.4767C40.7257 20.4767 40.7257 20.6066 40.9831 21.0522C41.2561 21.4282 41.5508 21.7877 41.8656 22.1289C42.3252 22.6672 42.5826 22.9457 42.6194 23.1685C42.6371 23.2495 42.6243 23.3343 42.5835 23.4064C42.5428 23.4784 42.4769 23.5326 42.3987 23.5583C41.8656 23.7439 40.0638 22.5373 39.0894 20.5138C38.8872 20.0497 38.6666 19.6042 38.446 19.1586C37.5083 17.3022 36.6994 15.6686 37.0855 14.7775C37.4716 13.8865 39.8248 13.608 40.7625 13.6451L39.5675 12.9954C38.1345 12.1603 36.9283 10.9805 36.0559 9.56106L35.7802 9.15265H35.6882C35.7015 10.0182 35.4371 10.8648 34.9344 11.566C34.8348 11.6735 34.7109 11.7551 34.5732 11.8036C34.4355 11.8521 34.2881 11.8661 34.1439 11.8444C34.0252 11.8349 33.9148 11.7793 33.836 11.6893C33.7571 11.5993 33.7159 11.4818 33.721 11.3618C33.8647 10.7187 34.1904 10.1318 34.6587 9.67244C34.8241 9.46824 35.0264 9.24547 35.2102 9.05983L34.9344 9.09696C34.6403 9.09696 34.1439 9.61675 33.3166 11.1204L33.4637 11.436C33.6475 11.888 33.6475 12.3949 33.4637 12.8469C32.5669 14.4028 31.5784 15.903 30.5037 17.3394L29.9521 18.6389C29.3638 20.0868 28.9042 21.2007 28.5365 21.9989C28.925 22.0828 29.3178 22.1448 29.7131 22.1846C30.5357 21.2163 31.3089 20.2064 32.0296 19.1586C31.8079 18.9688 31.6256 18.7366 31.4931 18.4753C31.3606 18.2141 31.2805 17.929 31.2575 17.6364C31.2575 17.2466 31.3678 17.0052 31.57 16.8938C31.6629 16.8323 31.7715 16.7996 31.8825 16.7996C31.9936 16.7996 32.1022 16.8323 32.1951 16.8938C32.4141 17.0387 32.5964 17.2334 32.7273 17.4623C32.8582 17.6912 32.9341 17.948 32.9489 18.2119C32.9109 18.517 32.804 18.8091 32.6363 19.0658ZM20.2449 26.4914C19.2771 26.4927 18.3112 26.5796 17.3584 26.7513C12.1187 27.6238 10.795 28.4778 10.5928 29.0161C10.5928 29.0161 10.5928 29.2946 10.8134 29.6473C11.6375 30.2508 12.5869 30.6571 13.5895 30.8354C15.5631 31.1473 17.4 32.0456 18.866 33.4158L19.6198 34.344C20.3488 35.2171 21.0067 36.1484 21.587 37.1286C22.0084 36.9693 22.438 36.8329 22.8739 36.7202C24.1144 36.4204 25.3857 36.2709 26.6612 36.2747C28.0009 36.2401 29.3151 35.8972 30.5037 35.2722C31.4067 34.8294 32.2475 34.2676 33.004 33.6014C32.5106 32.3949 31.9267 31.2282 31.2575 30.1114C30.81 30.3059 30.3847 30.5487 29.9889 30.8354C29.9803 31.3547 29.8871 31.8689 29.7131 32.3576C29.3747 33.459 28.7378 34.4429 27.8746 35.1979C26.9738 35.9405 26.2568 35.7734 25.9074 35.4207C25.5581 35.068 25.503 34.047 26.3119 33.1745C27.1528 32.3252 28.063 31.549 29.0329 30.854L29.4373 30.5755C29.4415 30.2724 29.3721 29.9728 29.2351 29.703C28.2279 28.61 26.9629 27.7925 25.5581 27.3268C23.85 26.7004 22.0436 26.3922 20.2265 26.4172L20.2449 26.4914ZM56.0036 18.1748C53.4662 18.1567 50.9338 18.4056 48.4474 18.9173C48.0981 19.0101 48.0061 19.103 48.0061 19.1401C48.0061 19.1772 48.0061 19.27 48.4106 19.6413C48.8151 20.0126 49.2195 20.291 49.7711 20.6995C51.5159 21.8488 53.0572 23.2858 54.3306 24.9506C55.685 27.1526 56.7481 29.5242 57.4928 32.0049C58.0389 33.5648 58.3548 35.1974 58.4304 36.8501C59.5193 36.0604 60.5127 35.1445 61.3904 34.1212C62.9543 32.3914 64.1273 30.3392 64.8284 28.1065C65.1864 26.7321 65.4627 25.3373 65.6557 23.9296C65.4561 23.7464 65.2937 23.5257 65.1777 23.2799C64.8835 22.6487 64.9938 22.0175 65.4167 21.8133C65.4945 21.7573 65.5877 21.7273 65.6833 21.7273C65.7788 21.7273 65.872 21.7573 65.9498 21.8133C66.1521 21.9618 66.3359 22.3145 66.1888 23.6697C66.5078 23.8704 66.8799 23.9675 67.2552 23.9482C67.2263 22.8904 66.8513 21.8721 66.1888 21.0522C64.3503 18.8431 60.1034 18.2861 56.9964 18.1933L56.0036 18.1748ZM37.3245 28.5892C37.3245 29.0161 37.4348 29.4245 37.4716 29.7958C37.5083 30.1671 37.6186 30.8911 37.6554 31.2624C37.6559 31.8245 37.5942 32.3848 37.4716 32.9331C37.2326 33.7574 37.2326 34.6336 37.4716 35.4578C37.4716 35.6435 37.7841 35.792 38.1518 35.9034C39.3568 36.1874 40.6034 36.2441 41.8288 36.0704C42.8483 35.9816 43.8441 35.7113 44.7704 35.2722C44.9726 35.1237 45.0829 34.9937 45.0829 34.8638C45.0829 34.7338 44.1269 33.8242 43.1157 33.1559L42.2884 32.6547C42.0656 32.4962 41.8322 32.3536 41.5898 32.2277C40.9968 32.4428 40.3789 32.5801 39.7513 32.6361C38.0967 32.7846 37.9128 32.5062 37.9128 32.3948C37.9128 32.2834 37.7106 32.0792 38.0783 31.8007C38.6049 31.4061 39.2363 31.1794 39.8915 31.1496C40.5466 31.1198 41.1956 31.2884 41.7553 31.6337C42.2308 30.9262 42.5448 30.1209 42.6745 29.276C42.9877 28.0332 42.8576 26.7188 42.3068 25.5632C41.6353 24.4768 40.6639 23.6122 39.5123 23.0756C38.2566 22.4625 36.8443 22.2551 35.4676 22.4816C33.891 22.7082 32.2966 22.7828 30.7059 22.7044H30.0992C29.7131 23.1499 29.3822 23.5026 29.1616 23.7254C28.9588 23.9393 28.8019 24.1931 28.7007 24.471C28.5995 24.7489 28.5561 25.0449 28.5733 25.3405C28.5857 25.8953 28.7075 26.4422 28.9317 26.949C29.1558 27.4558 29.4777 27.9124 29.8786 28.2921C30.6628 28.9559 31.6704 29.2884 32.6915 29.2203C32.6915 29.0533 32.6915 28.5335 33.004 28.4778C33.3166 28.4221 33.3533 28.4778 33.7946 29.1832L34.9528 28.9976H35.3757C35.9393 28.8749 36.4836 28.6751 36.9936 28.4035C36.8379 27.5779 36.8694 26.7275 37.0855 25.9159C37.3406 25.4846 37.7052 25.1298 38.1415 24.8883C38.5778 24.6468 39.0701 24.5273 39.5675 24.5422C39.8027 24.5861 40.0149 24.7127 40.1663 24.8997C40.3178 25.0866 40.3988 25.3217 40.3948 25.5632C40.3948 26.5842 39.3652 27.5496 38.4276 28.1807L37.3245 28.5892ZM29.419 31.2067C28.4351 31.8908 27.5179 32.6678 26.6796 33.5272C26.0913 34.1584 26.0361 34.7895 26.2935 35.068C26.5509 35.3465 27.0289 35.2351 27.5621 34.7895C28.3357 34.1008 28.9026 33.2068 29.1983 32.2091C29.3029 31.8827 29.3768 31.5471 29.419 31.2067ZM31.57 29.703C31.7246 29.8619 31.8548 30.0434 31.9561 30.2414C32.1399 30.5755 32.3789 31.021 32.6731 31.6151L33.3901 33.1559L33.5372 32.9703C33.1602 31.8994 32.8411 30.8087 32.5812 29.703C32.2451 29.7395 31.9061 29.7395 31.57 29.703ZM33.096 29.703C33.2614 30.2785 33.5556 31.1881 33.9417 32.302C34.0303 32.1243 34.0624 31.9233 34.0336 31.7265C33.8782 31.0162 33.6309 30.3296 33.2982 29.6844L33.096 29.703ZM38.3357 32.1349C38.7938 32.1876 39.2564 32.1876 39.7145 32.1349C40.1106 32.1013 40.5038 32.0393 40.8912 31.9492C40.4858 31.754 40.0371 31.6684 39.5891 31.701C39.1411 31.7335 38.7092 31.883 38.3357 32.1349ZM39.1078 24.9135C38.7381 24.9473 38.3806 25.065 38.0623 25.2579C37.7439 25.4507 37.4729 25.7138 37.2693 26.0273C37.1281 26.688 37.1281 27.3715 37.2693 28.0322L37.9312 27.6424C39.0894 26.8627 39.7697 26.083 39.6594 25.5075C39.5491 24.932 39.402 24.9692 39.2549 24.932L39.1078 24.9135ZM45.0278 20.6995C44.8807 20.8665 44.6969 21.0893 44.4946 21.3678C44.0322 21.9768 43.706 22.6798 43.5386 23.4284C43.8614 23.895 44.2665 24.2978 44.7336 24.6165C45.3184 25.1044 45.9933 25.4704 46.7192 25.6932C46.8847 25.6932 47.1053 25.6932 47.1788 25.6932C47.2524 25.6932 46.7008 24.338 46.2412 23.744C45.7816 23.1499 45.5609 22.8714 45.6896 22.6115C45.6885 22.5318 45.7157 22.4542 45.7663 22.393C45.8169 22.3317 45.8875 22.2907 45.9654 22.2774C46.2922 22.2988 46.6112 22.3872 46.903 22.5373C47.0994 22.622 47.3023 22.6903 47.5097 22.7415C47.5321 22.6125 47.5321 22.4806 47.5097 22.3517C47.2891 21.6648 46.5905 21.3492 45.7999 20.9965L45.0278 20.6995ZM29.5293 7.70466C28.541 7.66683 27.5614 7.90447 26.698 8.39153C25.1511 10.01 23.9056 11.8965 23.021 13.9607C21.9256 15.7681 21.2353 17.7957 20.9987 19.9012C21.1825 20.7737 22.6533 21.9432 24.6756 22.7229C26.0361 23.2799 27.0289 23.3912 27.3047 23.187C27.514 22.9162 27.67 22.6074 27.7643 22.2774C27.5265 22.1952 27.3163 22.0473 27.1576 21.8504C27.0951 21.7538 27.0618 21.6409 27.0618 21.5256C27.0618 21.4102 27.0951 21.2973 27.1576 21.2007C27.4334 20.6809 28.3894 19.3443 29.5109 17.7478L30.0073 17.0238C31.0001 14.6476 31.8458 12.5684 32.7283 11.0833C32.6142 10.9225 32.4849 10.7733 32.3422 10.6378C31.8642 10.2294 31.331 10.0623 31.0368 10.2665C30.7427 10.4707 30.7243 10.5635 29.9889 11.9558C29.4925 12.9211 28.8858 14.1464 28.2607 15.4458C27.6356 16.7453 26.8635 18.3418 26.2568 19.4557C25.3007 21.3121 25.0066 21.4791 24.786 21.5348C24.7116 21.5561 24.6326 21.5532 24.56 21.5266C24.4874 21.4999 24.4249 21.4508 24.3815 21.3863C24.2528 21.2192 24.1793 20.8851 24.5102 19.7341C24.7838 18.7642 25.1091 17.8098 25.4846 16.8753C26.3967 14.5995 27.5234 12.4174 28.849 10.3593C29.5231 9.39398 30.136 8.59573 30.6875 7.96455C30.6875 7.96455 30.6875 7.81604 30.6875 7.76035C30.3023 7.7272 29.9153 7.721 29.5293 7.74179V7.70466ZM65.6557 22.2774C65.5086 22.2774 65.4718 22.6672 65.6557 23.0571V23.2242C65.7166 22.9116 65.7166 22.59 65.6557 22.2774ZM40.2477 14.0164C39.0894 14.0164 37.7657 14.2392 37.5083 14.8518C37.2509 15.4644 38.0599 17.1909 38.8504 18.8059C39.0711 19.2515 39.3101 19.697 39.5123 20.1611C40.0101 21.2406 40.8087 22.1502 41.8104 22.7786C41.6978 22.6279 41.5749 22.4852 41.4427 22.3517C40.6522 21.442 39.8248 20.4953 40.3212 19.994C40.6212 19.7445 40.9731 19.5668 41.3508 19.4742C41.7185 19.3443 42.1597 19.1958 42.2517 18.9916C42.2668 18.9564 42.2747 18.9185 42.2747 18.8802C42.2747 18.8419 42.2668 18.8039 42.2517 18.7688C42.0494 18.7688 41.553 18.9173 41.1853 19.0844C40.5235 19.3814 39.7697 19.7156 39.3468 19.0844C38.9711 18.4943 38.6451 17.8733 38.3724 17.228C37.7841 15.78 37.9312 15.4644 38.0047 15.3716C38.2437 14.9075 39.0711 14.9261 40.2293 15.0374H41.0015C41.2672 15.044 41.5319 15.075 41.792 15.1303C41.5346 14.5548 41.2772 14.1092 41.0382 14.0907L40.2477 14.0164ZM29.1248 19.2143C28.3894 20.2539 27.7827 21.0707 27.5805 21.4977C27.5805 21.4977 27.5805 21.5905 27.5805 21.6091C27.6876 21.7333 27.8281 21.8236 27.9849 21.869V21.7019C28.371 21.015 28.7387 20.1425 29.1248 19.2143ZM31.8274 17.3579C31.8065 17.4558 31.8065 17.5571 31.8274 17.655C31.8468 18.0581 32.01 18.4406 32.287 18.7317C32.3815 18.5881 32.4558 18.4319 32.5076 18.2676C32.465 17.9981 32.3358 17.7502 32.1399 17.5621C32.0577 17.4607 31.9496 17.3837 31.8274 17.3394V17.3579ZM42.3803 15.2231C42.6292 15.2726 42.8853 15.2726 43.1341 15.2231C43.2638 15.0397 43.3805 14.8474 43.4834 14.6476C43.1525 14.5176 42.5458 14.2949 41.7553 13.9422C42.0158 14.3411 42.2258 14.7714 42.3803 15.2231ZM32.9856 11.6959C32.8569 11.9187 32.7466 12.16 32.6179 12.4199C32.2135 13.2367 31.7906 14.1649 31.3862 15.0931C31.9672 14.3105 32.4895 13.4852 32.9489 12.6241C33.0706 12.3291 33.0837 11.9998 32.9856 11.6959ZM40.7809 7.4262C40.5935 8.4726 40.8178 9.5515 41.4059 10.4336C41.9083 11.2241 42.5284 11.9317 43.2444 12.5313C43.5067 12.8506 43.8354 13.1075 44.2072 13.2839C44.579 13.4603 44.9847 13.5517 45.3955 13.5517C45.8063 13.5517 46.212 13.4603 46.5838 13.2839C46.9556 13.1075 47.2843 12.8506 47.5465 12.5313C48.5165 11.446 49.0249 10.0191 48.9622 8.5586C49.0132 7.42847 48.8702 6.29794 48.5393 5.21708C48.5488 5.25987 48.5488 5.30424 48.5393 5.34703C48.5109 5.39761 48.4712 5.44076 48.4233 5.473C48.3754 5.50525 48.3207 5.52569 48.2635 5.53267C47.8958 5.53267 47.4546 5.25421 46.6089 4.60447C46.135 4.28076 45.644 3.9833 45.1381 3.7134H44.513C43.8229 3.78395 43.1636 4.03746 42.6018 4.44823C42.04 4.85901 41.5957 5.41245 41.314 6.05246C41.2736 6.55326 41.0882 7.03099 40.7809 7.4262ZM38.2989 9.98803C38.5563 10.3779 38.8688 10.8234 39.163 11.2133C39.5245 11.7763 39.9857 12.2671 40.5235 12.6612V12.5684C40.3794 12.0875 40.1429 11.6399 39.8274 11.2513C39.512 10.8627 39.1238 10.5407 38.685 10.3036C38.5628 10.1905 38.4339 10.0851 38.2989 9.98803ZM36.4604 9.15265C37.1917 10.3827 38.1761 11.4399 39.3468 12.2528L38.8321 11.6217C38.3146 10.9484 37.8417 10.2415 37.4164 9.50537C37.0978 9.35502 36.7653 9.23687 36.4236 9.15265H36.4604ZM34.1439 11.3432C34.214 11.3397 34.2823 11.3193 34.343 11.2838C34.4038 11.2483 34.4553 11.1986 34.4932 11.139C34.7953 10.7491 34.9973 10.29 35.0815 9.80239L34.9344 10.1365C34.5728 10.4637 34.3006 10.8792 34.1439 11.3432ZM31.2575 8.07594C31.3324 8.21876 31.4184 8.35532 31.5148 8.48435C31.8458 8.91132 32.1032 9.0227 32.1767 9.00414C32.2502 8.98557 32.1767 9.00414 32.287 8.79993C32.3973 8.59573 32.287 8.52147 31.9929 8.28014C31.7673 8.13751 31.5182 8.03691 31.2575 7.98312V8.07594ZM35.7618 8.52147C36.1756 8.54249 36.5843 8.62377 36.9752 8.76281H37.2142C37.1227 8.37217 37.1227 7.96535 37.2142 7.57471C36.7664 7.05548 36.4957 6.40469 36.442 5.71831C36.4153 5.22935 36.4973 4.74056 36.6818 4.28768C36.8663 3.83479 37.1487 3.42928 37.5083 3.10079C37.7925 2.83873 38.133 2.64696 38.5031 2.54064C38.8733 2.43433 39.2628 2.41636 39.641 2.48817C39.9394 2.54247 40.223 2.65985 40.4733 2.83261C40.7236 3.00538 40.9349 3.22962 41.0934 3.49063C41.813 2.83327 42.7522 2.47514 43.7225 2.48817C44.3083 2.58157 44.8668 2.80334 45.3587 3.13791C45.8755 3.23165 46.3809 3.38102 46.8663 3.58345C47.2997 3.77139 47.7075 4.01471 48.0797 4.30745C47.4385 3.34961 46.6283 2.51898 45.6896 1.857C44.9976 1.27449 44.1775 0.867736 43.2979 0.67073C42.4183 0.473723 41.5048 0.492193 40.6338 0.724595C39.1389 1.14898 37.8321 2.07573 36.9296 3.35165C36.027 4.62757 35.5826 6.17628 35.6698 7.74179C35.6882 8.00168 35.7066 8.26158 35.7066 8.52147H35.7618ZM37.8209 7.51902C37.9393 7.62032 38.0688 7.70753 38.207 7.77891C38.4222 7.90437 38.6663 7.97042 38.9148 7.97042C39.1633 7.97042 39.4074 7.90437 39.6226 7.77891C39.9077 7.62121 40.1579 7.40644 40.358 7.14774C40.4695 6.70066 40.6234 6.26548 40.8176 5.84826C40.8001 5.76478 40.7531 5.69057 40.6855 5.63936C40.6179 5.58816 40.5342 5.56344 40.4499 5.5698C40.068 5.46623 39.6632 5.48976 39.2956 5.6369C38.928 5.78405 38.6171 6.04696 38.4092 6.38661C38.1278 6.7211 37.9097 7.10494 37.7657 7.51902H37.8209ZM30.9265 7.4262H31.092L31.7539 6.62795C32.4893 5.75544 32.8937 5.27277 32.8937 4.90149C32.5519 5.06072 32.2455 5.28804 31.9929 5.5698C31.5821 5.94146 31.2288 6.37324 30.9449 6.85071C30.8714 7.03428 30.8649 7.23823 30.9265 7.4262ZM39.1446 3.06366C38.6472 3.07194 38.1699 3.26339 37.8025 3.60201C37.4985 3.87806 37.261 4.22058 37.108 4.60343C36.9551 4.98629 36.8908 5.39936 36.92 5.81113C36.9583 6.28885 37.1165 6.74885 37.3796 7.14774C37.5566 6.77615 37.7857 6.43227 38.0599 6.12672C38.3107 5.76756 38.6539 5.48437 39.0524 5.30771C39.4509 5.13105 39.8896 5.06762 40.3212 5.12426C40.28 5.09753 40.2479 5.05864 40.2293 5.01288C40.0822 4.77155 40.2293 4.47452 40.3396 4.3817C40.4318 4.23156 40.5431 4.09426 40.6706 3.97329C40.5613 3.74446 40.399 3.54564 40.1973 3.39374C39.9956 3.24183 39.7607 3.14134 39.5123 3.10079L39.1446 3.06366ZM40.7073 5.19852C40.8505 5.2308 40.9794 5.30894 41.075 5.42129C41.3832 4.83884 41.8177 4.33426 42.3462 3.94529C42.8747 3.55632 43.4835 3.293 44.1269 3.17504C43.9677 3.11024 43.8009 3.06656 43.6305 3.04509C42.919 3.03804 42.2259 3.27349 41.6633 3.7134C41.5178 3.81084 41.3823 3.92279 41.2589 4.04755C41.268 4.17114 41.268 4.29524 41.2589 4.41883C41.26 4.58431 41.2063 4.74542 41.1064 4.87659C41.0065 5.00775 40.866 5.10146 40.7073 5.14283V5.19852ZM46.6089 4.15893L46.7927 4.30745C47.1539 4.63139 47.5557 4.90601 47.9878 5.12426L47.8039 4.90149C47.4493 4.57397 47.0461 4.30461 46.6089 4.10324V4.15893Z" fill="#F59B09"/>
<path d="M77.4952 24.7234V8.71496H84.486C85.688 8.71496 86.7398 8.93122 87.6413 9.36374C88.5429 9.79626 89.244 10.419 89.7449 11.2319C90.2457 12.0448 90.4962 13.0193 90.4962 14.1553C90.4962 15.3018 90.2378 16.2684 89.7212 17.0553C89.2098 17.8422 88.4901 18.4362 87.5622 18.8375C86.6396 19.2387 85.5615 19.4394 84.3278 19.4394H80.1523V16.0626H83.4421C83.9588 16.0626 84.399 16.0001 84.7628 15.875C85.1318 15.7447 85.4139 15.5389 85.6089 15.2575C85.8093 14.9761 85.9094 14.6087 85.9094 14.1553C85.9094 13.6968 85.8093 13.3242 85.6089 13.0376C85.4139 12.7457 85.1318 12.5321 84.7628 12.3966C84.399 12.2559 83.9588 12.1855 83.4421 12.1855H81.8921V24.7234H77.4952ZM86.985 17.3758L91.0339 24.7234H86.2574L82.3033 17.3758H86.985Z" fill="black"/>
<path d="M108.06 16.7192C108.06 18.5014 107.71 20.0048 107.008 21.2294C106.307 22.4488 105.361 23.3737 104.169 24.0043C102.978 24.6296 101.649 24.9423 100.184 24.9423C98.7074 24.9423 97.3736 24.627 96.1821 23.9965C94.9959 23.3607 94.0522 22.4331 93.351 21.2137C92.6551 19.9891 92.3071 18.491 92.3071 16.7192C92.3071 14.937 92.6551 13.4362 93.351 12.2168C94.0522 10.9922 94.9959 10.0672 96.1821 9.44191C97.3736 8.81136 98.7074 8.49609 100.184 8.49609C101.649 8.49609 102.978 8.81136 104.169 9.44191C105.361 10.0672 106.307 10.9922 107.008 12.2168C107.71 13.4362 108.06 14.937 108.06 16.7192ZM103.537 16.7192C103.537 15.7603 103.407 14.9526 103.149 14.296C102.896 13.6342 102.519 13.134 102.018 12.7952C101.523 12.4513 100.911 12.2793 100.184 12.2793C99.4561 12.2793 98.8419 12.4513 98.341 12.7952C97.8454 13.134 97.4685 13.6342 97.2102 14.296C96.9571 14.9526 96.8306 15.7603 96.8306 16.7192C96.8306 17.678 96.9571 18.4883 97.2102 19.1502C97.4685 19.8067 97.8454 20.307 98.341 20.6509C98.8419 20.9897 99.4561 21.159 100.184 21.159C100.911 21.159 101.523 20.9897 102.018 20.6509C102.519 20.307 102.896 19.8067 103.149 19.1502C103.407 18.4883 103.537 17.678 103.537 16.7192Z" fill="black"/>
<path d="M125.215 14.7181H120.755C120.723 14.3534 120.639 14.0224 120.502 13.7254C120.37 13.4284 120.185 13.173 119.948 12.9594C119.716 12.7405 119.434 12.5738 119.102 12.4591C118.77 12.3393 118.393 12.2793 117.971 12.2793C117.233 12.2793 116.608 12.4565 116.097 12.8109C115.591 13.1652 115.206 13.6733 114.942 14.3351C114.684 14.9969 114.555 15.7916 114.555 16.7192C114.555 17.6989 114.686 18.5196 114.95 19.1814C115.219 19.838 115.606 20.3331 116.113 20.6666C116.619 20.9949 117.228 21.159 117.939 21.159C118.345 21.159 118.709 21.1095 119.031 21.0105C119.352 20.9063 119.632 20.7578 119.869 20.565C120.106 20.3722 120.299 20.1403 120.446 19.8693C120.599 19.5931 120.702 19.283 120.755 18.9391L125.215 18.9704C125.162 19.6478 124.97 20.3383 124.638 21.0418C124.305 21.7401 123.834 22.3862 123.222 22.9803C122.616 23.5692 121.864 24.0434 120.968 24.4029C120.072 24.7625 119.031 24.9423 117.844 24.9423C116.358 24.9423 115.024 24.627 113.843 23.9965C112.667 23.3659 111.737 22.4383 111.051 21.2137C110.371 19.9891 110.031 18.491 110.031 16.7192C110.031 14.937 110.379 13.4362 111.075 12.2168C111.771 10.9922 112.709 10.0672 113.89 9.44191C115.071 8.81136 116.389 8.49609 117.844 8.49609C118.867 8.49609 119.808 8.63419 120.668 8.91037C121.527 9.18656 122.281 9.59042 122.929 10.122C123.578 10.6483 124.1 11.2971 124.495 12.0683C124.891 12.8395 125.13 13.7228 125.215 14.7181Z" fill="black"/>
<path d="M127.21 24.7234V8.71496H131.607V15.1871H131.828L136.699 8.71496H141.824L136.351 15.8437L141.95 24.7234H136.699L133.062 18.7202L131.607 20.5962V24.7234H127.21Z" fill="black"/>
<path d="M143.129 24.7234V8.71496H154.801V12.2168H147.526V14.9683H154.2V18.4701H147.526V21.2216H154.769V24.7234H143.129Z" fill="black"/>
<path d="M156.539 12.2168V8.71496H170.615V12.2168H165.744V24.7234H161.41V12.2168H156.539Z" fill="black"/>
<path d="M86.2258 33.7737C86.1836 33.2526 85.9859 32.8462 85.6327 32.5543C85.2847 32.2625 84.7549 32.1166 84.0431 32.1166C83.5897 32.1166 83.2181 32.1713 82.9281 32.2808C82.6434 32.385 82.4325 32.5283 82.2954 32.7107C82.1584 32.8931 82.0872 33.1015 82.0819 33.336C82.0714 33.5288 82.1056 33.7034 82.1847 33.8597C82.2691 34.0108 82.4009 34.1489 82.5801 34.274C82.7594 34.3939 82.9887 34.5033 83.2681 34.6023C83.5476 34.7013 83.8797 34.7899 84.2646 34.8681L85.5931 35.1495C86.4894 35.3371 87.2565 35.5846 87.8944 35.892C88.5323 36.1995 89.0542 36.5617 89.4602 36.9785C89.8661 37.3902 90.164 37.854 90.3538 38.3699C90.5489 38.8858 90.649 39.4486 90.6543 40.0583C90.649 41.1109 90.3828 42.002 89.8556 42.7316C89.3284 43.4611 88.5745 44.0161 87.5939 44.3965C86.6185 44.7769 85.4455 44.9671 84.0748 44.9671C82.6671 44.9671 81.4387 44.7613 80.3896 44.3496C79.3457 43.938 78.5338 43.3048 77.9539 42.4502C77.3792 41.5904 77.0893 40.4908 77.084 39.1516H81.2595C81.2858 39.6414 81.4097 40.0531 81.6312 40.3866C81.8526 40.7201 82.1636 40.9728 82.5643 41.1448C82.9703 41.3168 83.4527 41.4028 84.0115 41.4028C84.4807 41.4028 84.8735 41.3454 85.1898 41.2308C85.5061 41.1161 85.746 40.9572 85.9094 40.754C86.0729 40.5507 86.1572 40.3189 86.1625 40.0583C86.1572 39.8134 86.0755 39.5997 85.9174 39.4173C85.7645 39.2297 85.5114 39.063 85.1582 38.9171C84.8049 38.7659 84.3278 38.6253 83.7268 38.495L82.1136 38.151C80.6795 37.8436 79.5487 37.3303 78.721 36.6112C77.8985 35.8868 77.4899 34.8993 77.4952 33.6487C77.4899 32.6325 77.7641 31.744 78.3177 30.9832C78.8765 30.2172 79.6489 29.6205 80.6347 29.1932C81.6259 28.7659 82.762 28.5522 84.0431 28.5522C85.3506 28.5522 86.4815 28.7685 87.4357 29.201C88.39 29.6335 89.1254 30.2432 89.6421 31.0301C90.164 31.8118 90.4276 32.7263 90.4329 33.7737H86.2258Z" fill="black"/>
<path d="M108.017 36.7753C108.017 38.5575 107.666 40.0609 106.965 41.2855C106.264 42.5049 105.317 43.4299 104.126 44.0604C102.934 44.6857 101.606 44.9984 100.14 44.9984C98.6639 44.9984 97.3301 44.6831 96.1386 44.0526C94.9524 43.4168 94.0087 42.4893 93.3075 41.2699C92.6116 40.0453 92.2636 38.5471 92.2636 36.7753C92.2636 34.9931 92.6116 33.4923 93.3075 32.2729C94.0087 31.0483 94.9524 30.1234 96.1386 29.498C97.3301 28.8675 98.6639 28.5522 100.14 28.5522C101.606 28.5522 102.934 28.8675 104.126 29.498C105.317 30.1234 106.264 31.0483 106.965 32.2729C107.666 33.4923 108.017 34.9931 108.017 36.7753ZM103.493 36.7753C103.493 35.8165 103.364 35.0088 103.106 34.3522C102.853 33.6904 102.476 33.1901 101.975 32.8514C101.479 32.5074 100.868 32.3355 100.14 32.3355C99.4126 32.3355 98.7984 32.5074 98.2975 32.8514C97.8019 33.1901 97.425 33.6904 97.1667 34.3522C96.9136 35.0088 96.7871 35.8165 96.7871 36.7753C96.7871 37.7342 96.9136 38.5445 97.1667 39.2063C97.425 39.8629 97.8019 40.3631 98.2975 40.7071C98.7984 41.0458 99.4126 41.2152 100.14 41.2152C100.868 41.2152 101.479 41.0458 101.975 40.7071C102.476 40.3631 102.853 39.8629 103.106 39.2063C103.364 38.5445 103.493 37.7342 103.493 36.7753Z" fill="black"/>
<path d="M119.636 28.7711H124.033V39.0265C124.033 40.2459 123.737 41.3011 123.147 42.1922C122.562 43.0781 121.744 43.7634 120.695 44.248C119.646 44.7274 118.428 44.9671 117.042 44.9671C115.645 44.9671 114.422 44.7274 113.372 44.248C112.323 43.7634 111.506 43.0781 110.921 42.1922C110.341 41.3011 110.051 40.2459 110.051 39.0265V28.7711H114.448V38.6513C114.448 39.1464 114.559 39.5893 114.78 39.9801C115.001 40.3658 115.307 40.668 115.697 40.8869C116.093 41.1057 116.541 41.2152 117.042 41.2152C117.548 41.2152 117.996 41.1057 118.386 40.8869C118.776 40.668 119.082 40.3658 119.303 39.9801C119.525 39.5893 119.636 39.1464 119.636 38.6513V28.7711Z" fill="black"/>
<path d="M126.122 44.7795V28.7711H133.113C134.315 28.7711 135.367 28.9874 136.268 29.4199C137.17 29.8524 137.871 30.4751 138.372 31.288C138.873 32.101 139.123 33.0754 139.123 34.2115C139.123 35.3579 138.865 36.3246 138.348 37.1114C137.837 37.8983 137.117 38.4924 136.189 38.8936C135.267 39.2949 134.189 39.4955 132.955 39.4955H128.779V36.1187H132.069C132.586 36.1187 133.026 36.0562 133.39 35.9311C133.759 35.8008 134.041 35.595 134.236 35.3136C134.436 35.0322 134.536 34.6648 134.536 34.2115C134.536 33.7529 134.436 33.3803 134.236 33.0937C134.041 32.8019 133.759 32.5882 133.39 32.4527C133.026 32.312 132.586 32.2417 132.069 32.2417H130.519V44.7795H126.122ZM135.612 37.4319L139.661 44.7795H134.884L130.93 37.4319H135.612Z" fill="black"/>
<path d="M156.118 34.7743H151.658C151.626 34.4095 151.542 34.0786 151.405 33.7815C151.273 33.4845 151.088 33.2292 150.851 33.0155C150.619 32.7967 150.337 32.6299 150.005 32.5153C149.673 32.3954 149.296 32.3355 148.874 32.3355C148.136 32.3355 147.511 32.5126 147 32.867C146.494 33.2214 146.109 33.7294 145.845 34.3912C145.587 35.0531 145.458 35.8477 145.458 36.7753C145.458 37.755 145.589 38.5757 145.853 39.2376C146.122 39.8941 146.509 40.3892 147.016 40.7227C147.522 41.051 148.131 41.2152 148.842 41.2152C149.248 41.2152 149.612 41.1656 149.934 41.0666C150.255 40.9624 150.535 40.8139 150.772 40.6211C151.009 40.4283 151.202 40.1964 151.349 39.9254C151.502 39.6492 151.605 39.3392 151.658 38.9952L156.118 39.0265C156.065 39.7039 155.873 40.3944 155.54 41.0979C155.208 41.7962 154.736 42.4424 154.125 43.0364C153.519 43.6253 152.767 44.0995 151.871 44.4591C150.975 44.8186 149.934 44.9984 148.747 44.9984C147.261 44.9984 145.927 44.6831 144.746 44.0526C143.57 43.4221 142.64 42.4945 141.954 41.2699C141.274 40.0453 140.934 38.5471 140.934 36.7753C140.934 34.9931 141.282 33.4923 141.978 32.2729C142.674 31.0483 143.612 30.1234 144.793 29.498C145.974 28.8675 147.292 28.5522 148.747 28.5522C149.77 28.5522 150.711 28.6903 151.571 28.9665C152.43 29.2427 153.184 29.6466 153.832 30.1781C154.481 30.7044 155.003 31.3532 155.398 32.1244C155.794 32.8957 156.033 33.7789 156.118 34.7743Z" fill="black"/>
<path d="M158.113 44.7795V28.7711H169.785V32.2729H162.509V35.0244H169.184V38.5262H162.509V41.2777H169.753V44.7795H158.113Z" fill="black"/>
<path d="M171.966 44.7795V28.7711H178.956C180.158 28.7711 181.21 28.9874 182.112 29.4199C183.013 29.8524 183.714 30.4751 184.215 31.288C184.716 32.101 184.967 33.0754 184.967 34.2115C184.967 35.3579 184.708 36.3246 184.192 37.1114C183.68 37.8983 182.961 38.4924 182.033 38.8936C181.11 39.2949 180.032 39.4955 178.798 39.4955H174.623V36.1187H177.913C178.429 36.1187 178.869 36.0562 179.233 35.9311C179.602 35.8008 179.884 35.595 180.079 35.3136C180.28 35.0322 180.38 34.6648 180.38 34.2115C180.38 33.7529 180.28 33.3803 180.079 33.0937C179.884 32.8019 179.602 32.5882 179.233 32.4527C178.869 32.312 178.429 32.2417 177.913 32.2417H176.363V44.7795H171.966ZM181.455 37.4319L185.504 44.7795H180.728L176.774 37.4319H181.455Z" fill="black"/>
<path d="M195.571 33.7737C195.529 33.2526 195.331 32.8462 194.978 32.5543C194.63 32.2625 194.1 32.1166 193.389 32.1166C192.935 32.1166 192.564 32.1713 192.274 32.2808C191.989 32.385 191.778 32.5283 191.641 32.7107C191.504 32.8931 191.433 33.1015 191.428 33.336C191.417 33.5288 191.451 33.7034 191.53 33.8597C191.615 34.0108 191.746 34.1489 191.926 34.274C192.105 34.3939 192.334 34.5033 192.614 34.6023C192.893 34.7013 193.225 34.7899 193.61 34.8681L194.939 35.1495C195.835 35.3371 196.602 35.5846 197.24 35.892C197.878 36.1995 198.4 36.5617 198.806 36.9785C199.212 37.3902 199.51 37.854 199.699 38.3699C199.894 38.8858 199.995 39.4486 200 40.0583C199.995 41.1109 199.728 42.002 199.201 42.7316C198.674 43.4611 197.92 44.0161 196.939 44.3965C195.964 44.7769 194.791 44.9671 193.42 44.9671C192.013 44.9671 190.784 44.7613 189.735 44.3496C188.691 43.938 187.879 43.3048 187.299 42.4502C186.725 41.5904 186.435 40.4908 186.43 39.1516H190.605C190.631 39.6414 190.755 40.0531 190.977 40.3866C191.198 40.7201 191.509 40.9728 191.91 41.1448C192.316 41.3168 192.798 41.4028 193.357 41.4028C193.826 41.4028 194.219 41.3454 194.535 41.2308C194.852 41.1161 195.092 40.9572 195.255 40.754C195.418 40.5507 195.503 40.3189 195.508 40.0583C195.503 39.8134 195.421 39.5997 195.263 39.4173C195.11 39.2297 194.857 39.063 194.504 38.9171C194.151 38.7659 193.673 38.6253 193.072 38.495L191.459 38.151C190.025 37.8436 188.894 37.3303 188.067 36.6112C187.244 35.8868 186.836 34.8993 186.841 33.6487C186.836 32.6325 187.11 31.744 187.663 30.9832C188.222 30.2172 188.994 29.6205 189.98 29.1932C190.971 28.7659 192.108 28.5522 193.389 28.5522C194.696 28.5522 195.827 28.7685 196.781 29.201C197.736 29.6335 198.471 30.2432 198.988 31.0301C199.51 31.8118 199.773 32.7263 199.778 33.7737H195.571Z" fill="black"/>
</svg>
