<svg width="94" height="82" viewBox="0 0 94 82" fill="none" xmlns="http://www.w3.org/2000/svg">
<path d="M33.7014 81.2491C33.4654 81.2479 33.2335 81.1868 33.027 81.0715C32.8205 80.9561 32.646 80.7902 32.5196 80.589C32.0966 79.298 32.1684 77.8937 32.7208 76.6535C33.3114 74.915 34.0171 73.2185 34.833 71.5755C35.5822 69.4553 35.6959 67.1592 35.1599 64.9741C34.9514 63.8196 34.6314 62.6886 34.2043 61.5972L33.626 61.8003C32.1424 62.3335 30.7092 62.7144 30.7092 62.7144C30.6384 62.7314 30.5642 62.726 30.4966 62.6987C30.4291 62.6714 30.3716 62.6237 30.332 62.562C30.2909 62.5024 30.2688 62.4315 30.2688 62.3589C30.2688 62.2863 30.2909 62.2154 30.332 62.1558C30.5331 61.9273 32.1676 59.7945 33.3494 59.6168C33.4821 59.6004 33.6167 59.6148 33.743 59.6588C33.8694 59.7028 33.9841 59.7752 34.0786 59.8707C34.2836 60.0825 34.4459 60.3326 34.5564 60.607C36.1908 59.9468 36.4423 59.5914 36.4674 59.5152C36.4644 58.5268 36.2318 57.5528 35.7885 56.6715C35.283 55.2735 34.6252 53.9365 33.8272 52.6853C33.1985 51.7712 32.9219 51.7458 32.9219 51.7458C31.5918 52.1589 30.2899 52.6593 29.0244 53.2439C26.3339 54.5134 26.1579 55.0466 26.1579 55.0973C26.1579 55.1481 26.1579 55.7829 26.3339 56.2907C26.4587 56.3078 26.5786 56.351 26.6859 56.4176C27.7435 58.192 28.4123 60.1746 28.6473 62.232C28.6473 63.3745 26.7614 65.7104 25.1018 67.4369C23.5395 69.1841 21.7751 70.7356 19.8464 72.0579C19.2429 72.4134 18.7903 72.4388 18.4634 72.0579C18.1366 71.6771 17.9857 71.1185 18.1617 70.1029C16.2974 72.4367 14.1518 74.5264 11.7748 76.3235C11.5876 76.4459 11.3693 76.511 11.1462 76.511C10.9231 76.511 10.7048 76.4459 10.5176 76.3235C9.7632 75.7903 10.0147 74.0891 10.3667 72.1087C10.3787 71.8634 10.3787 71.6177 10.3667 71.3724C9.93922 71.6263 9.21001 72.1341 8.58138 72.5657C7.22128 73.804 5.69814 74.8464 4.05524 75.6633C3.70321 75.6633 3.17516 75.841 2.89856 75.511C2.62196 75.1809 2.89856 74.47 3.22545 73.6575C3.55234 72.845 3.92951 72.1341 3.77864 71.7025C3.74579 71.6149 3.74849 71.5178 3.78616 71.4322C3.82383 71.3466 3.89341 71.2795 3.9798 71.2454C4.06988 71.2201 4.16606 71.2295 4.24969 71.2717C4.33333 71.3139 4.39845 71.386 4.43242 71.4739C4.55084 72.3597 4.35487 73.2592 3.87922 74.013C3.69302 74.3578 3.54945 74.7245 3.45176 75.1047H3.87922C5.46369 74.453 6.95933 73.5997 8.32992 72.5657C10.1907 71.2454 10.6181 70.9915 10.8444 71.1185C10.9081 71.151 10.9637 71.1976 11.0073 71.2547C11.0508 71.3118 11.0811 71.3781 11.0959 71.4486C11.1072 71.902 11.0564 72.3548 10.945 72.7942C10.7974 73.5327 10.6883 74.2785 10.6181 75.0286C10.6181 76.0442 10.6181 76.2727 10.7942 76.3235C10.9702 76.3742 11.0708 76.3235 11.3222 76.3235C13.9592 74.2032 16.3544 71.7933 18.4634 69.1381C18.5287 69.0886 18.6081 69.0619 18.6897 69.0619C18.7714 69.0619 18.8508 69.0886 18.9161 69.1381C18.9821 69.1795 19.0327 69.2418 19.06 69.3152C19.0873 69.3887 19.0897 69.4693 19.0669 69.5443C19.0669 69.5443 18.8658 70.1791 18.74 70.8392C18.6143 71.4993 18.74 72.1595 18.74 72.2357C18.74 72.3118 18.9915 72.2356 19.3435 72.0579C21.183 70.7571 22.8702 69.2494 24.3726 67.5639C26.8871 64.8979 27.742 63.3745 27.7169 62.8921C27.4844 61.1292 26.9751 59.415 26.2082 57.8141C26.3981 59.2418 26.2954 60.6937 25.9064 62.0796C24.3284 63.9296 22.4697 65.515 20.3996 66.7768C18.2311 68.3477 15.8947 69.6678 13.4344 70.7122C12.8058 70.89 12.1771 71.0169 11.9257 70.7122C11.6742 70.4076 12.2023 69.5189 13.5601 67.9701L14.9683 66.0151C14.1768 66.0307 13.3907 66.1502 12.6298 66.3705C11.2719 66.6498 9.51175 67.1069 7.82702 67.5639C6.14229 68.0209 4.40727 68.4779 3.07458 68.7572C1.11325 69.1888 0.560057 69.1381 0.283459 68.9095C0.19432 68.8432 0.12412 68.7542 0.0799645 68.6517C0.0358092 68.5492 0.0192654 68.4367 0.0320074 68.3256C0.0320074 67.6654 1.1384 67.0815 3.50205 65.9643C4.10553 65.685 4.8096 65.3549 5.11134 65.1772C4.70747 64.8848 4.27826 64.6299 3.82893 64.4155C2.82313 63.8823 2.1442 63.5015 2.29508 62.9937C2.44595 62.4859 2.62196 62.562 3.9798 62.232C4.70902 62.0542 5.71482 61.8257 6.99723 61.5972L10.5678 60.9371C10.2661 60.6832 9.83864 60.3277 9.46146 59.9722C7.75159 58.4234 7.67615 57.9918 7.72644 57.6871C7.77673 57.3824 8.68196 57.1032 13.7613 57.6871C15.1694 57.8395 16.8793 58.0426 17.5331 58.0426H17.6336L17.0302 57.4078C16.4015 56.7985 15.8735 56.2653 15.9741 55.7575C15.9879 55.6763 16.0233 55.6004 16.0764 55.5378C16.1296 55.4752 16.1984 55.4283 16.2758 55.402C18.0896 55.3294 19.9054 55.4829 21.682 55.859C22.8136 55.986 23.9954 56.1383 24.9258 56.2907L25.6047 56.4176C25.6047 56.0622 25.5544 55.7575 25.4538 55.5036C25.4538 55.0466 25.655 54.3356 28.6221 52.9646C29.9475 52.2948 31.3169 51.7179 32.7208 51.238C33.0979 51.238 33.5254 51.3904 34.0283 51.9743C34.9609 53.2789 35.7138 54.7053 36.2662 56.2145C36.7189 57.3317 37.3978 59.2867 37.0709 59.9722C36.9452 60.2769 36.5428 60.7086 34.833 61.4195C35.2702 62.5464 35.6068 63.7105 35.8388 64.8979C36.3835 67.2405 36.2438 69.6923 35.4365 71.9564C34.6391 73.549 33.9502 75.1948 33.3745 76.882C32.8871 77.9539 32.7548 79.1559 32.9974 80.3097C33.0639 80.4159 33.1571 80.5024 33.2676 80.5604C33.378 80.6184 33.5017 80.6458 33.626 80.6398C36.0253 80.1174 38.2877 79.0876 40.2643 77.6184C43.1915 75.8674 45.83 73.6658 48.0845 71.0931C50.0961 68.5541 51.8814 64.8217 51.4288 62.6128C51.38 62.3767 51.2861 62.1524 51.1522 61.9527C49.392 63.4761 44.7402 63.1714 42.8291 62.4097C42.5526 62.4097 42.2257 62.1304 42.1754 61.8003C42.1753 61.7053 42.1981 61.6117 42.2419 61.5277C42.2857 61.4436 42.3492 61.3716 42.4268 61.3179C43.8161 60.8728 45.2697 60.6668 46.7267 60.7085C48.1595 60.6423 49.5951 60.7531 51.0013 61.0386C51.0712 60.8742 51.1072 60.6971 51.1072 60.5181C51.1072 60.3392 51.0712 60.1621 51.0013 59.9976C50.5236 58.4742 48.7383 54.0056 46.8272 49.5877C46.3243 48.4197 45.8717 47.3534 45.4442 46.4139C42.9602 48.5739 39.8607 49.8809 36.5931 50.1463H36.4926C34.1878 50.1088 31.8956 50.496 29.7285 51.2888C29.6855 51.3909 29.6106 51.4759 29.5152 51.5309C29.4199 51.5859 29.3093 51.6079 29.2004 51.5935C29.1207 51.6078 29.0385 51.5957 28.966 51.5591C28.8936 51.5225 28.8347 51.4634 28.7981 51.3904C28.7623 51.3334 28.7433 51.2674 28.7433 51.2C28.7433 51.1325 28.7623 51.0665 28.7981 51.0095C28.8471 50.9322 28.9168 50.8705 28.9993 50.8318C28.19 49.6273 27.3083 48.4741 26.359 47.3787C26.0321 46.9725 25.7053 46.5409 25.3281 46.1092C23.4442 44.2756 21.064 43.0474 18.4886 42.58C16.9905 42.3225 15.5759 41.7041 14.3648 40.7773C14.1486 40.5858 13.9911 40.3358 13.9109 40.0569C13.8307 39.778 13.8312 39.4818 13.9122 39.2031C14.3899 37.8067 17.4325 36.6641 23.7188 35.6231C27.5667 34.9209 31.5299 35.2536 35.2101 36.588C37.2914 37.2595 39.1633 38.4671 40.6415 40.0918C40.854 40.4328 40.9992 40.8122 41.069 41.209C41.6137 40.9459 42.1878 40.7498 42.7789 40.625C41.8381 40.4367 40.9676 39.9884 40.2643 39.3301C39.6486 38.744 39.1539 38.0407 38.8087 37.2607C38.4634 36.4807 38.2745 35.6394 38.2527 34.7853C38.2342 34.2856 38.316 33.7874 38.4932 33.3205C38.6704 32.8536 38.9393 32.4277 39.2837 32.0685C39.5351 31.8146 39.862 31.4845 40.1889 31.1037C39.7309 31.0649 39.2768 30.9885 38.8311 30.8752C38.6109 31.4454 38.2771 31.964 37.8504 32.3986C37.5558 32.5798 37.2143 32.6682 36.8697 32.6525C35.7512 32.5662 34.6548 32.2916 33.626 31.84C31.3881 30.926 28.597 29.301 28.2952 27.4475C28.5385 24.39 29.4487 21.4246 30.9606 18.7641C32.209 15.8725 33.9637 13.2319 36.1405 10.9693C37.8015 10.0403 39.7172 9.68377 41.597 9.95374C41.5062 9.63867 41.5062 9.30399 41.597 8.98891C42.0363 8.23929 42.5876 7.5627 43.2315 6.9831C44.0613 6.22139 44.715 5.86593 45.1174 5.96749C45.2659 6.00362 45.3963 6.09313 45.4842 6.2193C45.5722 6.34547 45.6116 6.49965 45.5951 6.65303C45.5951 7.44012 44.9916 8.15104 43.8601 9.49672L43.156 10.3346C43.4464 10.4392 43.7246 10.5754 43.9858 10.7408C44.2376 10.8768 44.4395 11.0908 44.5617 11.3514C44.6839 11.6119 44.72 11.9052 44.6647 12.1881C44.5139 12.772 44.2121 12.9498 43.9858 13.0006C43.3321 13.1529 42.7034 12.442 42.3765 12.0357C42.0496 11.6295 42.2005 11.7818 42.1251 11.6295C41.4713 12.4674 40.7421 13.4576 39.9123 14.6509C38.1407 17.3716 36.6414 20.2633 35.4365 23.2835C34.6493 24.9955 34.0912 26.8056 33.7769 28.6662C34.3513 27.8748 34.8402 27.0236 35.2353 26.1272C36.0399 24.6292 36.9955 22.6742 37.9007 20.7953C38.9382 18.1709 40.2983 15.6886 41.9491 13.4068C42.3797 13.2369 42.8515 13.2042 43.301 13.3131C43.7506 13.4221 44.1563 13.6674 44.4636 14.0162L44.8911 14.4478C45.8214 12.8736 46.6261 11.9088 47.4056 11.6803H48.0091C48.0091 11.3756 48.0091 11.0201 48.0091 10.6901C47.913 8.72296 48.3941 6.771 49.392 5.07884C50.0227 3.92427 50.8743 2.90775 51.8974 2.08832C52.9204 1.26889 54.0945 0.662882 55.3515 0.3055C56.6426 -0.0525416 57.9994 -0.0965522 59.3106 0.177076C60.6219 0.450704 61.8502 1.03418 62.895 1.87969C64.4992 3.04522 65.8086 4.57618 66.7171 6.34834C67.4218 8.07601 67.7312 9.942 67.6223 11.8072C67.6736 12.9013 67.5038 13.9945 67.1234 15.0203C66.743 16.046 66.1599 16.9829 65.4095 17.7739C64.9825 18.2608 64.458 18.6506 63.8706 18.9176C63.2833 19.1846 62.6465 19.3226 62.0024 19.3226C61.3582 19.3226 60.7215 19.1846 60.1341 18.9176C59.5468 18.6506 59.0222 18.2608 58.5952 17.7739C57.5634 16.9757 56.7068 15.9702 56.0792 14.8209C55.4517 13.6715 55.0669 12.4033 54.9491 11.0963L54.4211 11.4518C54.0318 11.6524 53.6009 11.757 53.1638 11.757C52.7267 11.757 52.2959 11.6524 51.9066 11.4518L51.5294 11.1979C51.4756 11.6648 51.545 12.1378 51.7305 12.5689C52.3306 12.887 52.9102 13.2431 53.4656 13.6353C54.1339 14.0254 54.7169 14.5482 55.1793 15.1723C55.6418 15.7964 55.9741 16.5086 56.1561 17.2661C56.1769 17.3904 56.172 17.5178 56.1417 17.6401C56.1114 17.7625 56.0564 17.8772 55.9801 17.977C58.4946 19.1196 60.0536 19.6528 60.0788 19.6781C60.1254 19.6857 60.1691 19.7064 60.2047 19.7378C60.2402 19.7692 60.2663 19.8102 60.2799 19.8559C60.2986 19.9 60.3082 19.9475 60.3082 19.9955C60.3082 20.0435 60.2986 20.091 60.2799 20.1352C60.0804 20.6089 59.8182 21.053 59.5004 21.4555C59.3273 21.5888 59.1256 21.6789 58.9115 21.7187C58.6974 21.7584 58.477 21.7465 58.2683 21.684L58.6455 22.7757C59.0726 24.0539 59.6554 25.2735 60.3805 26.4065C60.7158 26.8257 61.125 27.1787 61.5875 27.4475C61.8156 27.243 62.0932 27.1029 62.3921 27.0413C62.9733 27.0348 63.5459 27.1837 64.0517 27.4729C64.8633 27.8564 65.6378 28.3154 66.3651 28.844C68.2422 30.1346 69.8699 31.761 71.1678 33.6427C72.5563 36.2517 73.6931 38.9895 74.5624 41.8183C75.367 44.078 76.1968 46.4393 77.0769 48.1912C78.0827 50.4763 78.7113 51.0095 79.0131 51.0857L79.2897 50.9334C79.4258 48.5412 78.9768 46.152 77.9821 43.9765C76.997 40.6521 75.5763 37.4757 73.7578 34.5314C72.074 32.3073 70.0242 30.3921 67.6978 28.8694C65.9376 27.5745 64.8563 26.8128 65.0072 26.0257C65.1581 25.2386 65.6861 25.3148 66.1136 25.1878C70.0175 24.3862 74.0004 24.0454 77.9821 24.1722C82.4831 24.2991 88.4425 25.137 91.1834 28.3362C92.1652 29.5868 92.705 31.1328 92.7172 32.7287L93.4716 32.4748C93.5143 32.4536 93.5609 32.4415 93.6084 32.439C93.6559 32.4365 93.7034 32.4438 93.7481 32.4605C93.7928 32.4771 93.8336 32.5026 93.8682 32.5357C93.9028 32.5687 93.9304 32.6084 93.9493 32.6525C93.9822 32.7401 93.9795 32.8372 93.9418 32.9228C93.9042 33.0083 93.8346 33.0754 93.7482 33.1095C93.4221 33.2464 93.0858 33.3567 92.7424 33.4396C92.7115 34.2916 92.619 35.1402 92.4658 35.9786C91.5422 39.8709 89.8298 43.5278 87.4367 46.7186C85.1246 50.0246 82.1089 52.766 78.6108 54.7419C74.151 56.783 69.5446 58.4805 64.8312 59.8199C61.4258 61.0656 57.8605 61.8096 54.2451 62.0288C53.8427 62.0288 53.189 61.4195 51.7305 58.4996C50.8253 56.7223 49.7441 54.3102 48.5874 51.4666C47.7827 49.5115 47.0033 47.5057 46.3746 45.7284L46.098 46.0077C46.5255 46.9217 46.9781 47.9627 47.4559 49.0545C49.4172 53.6247 51.2779 58.2711 51.806 59.8961C51.9004 60.1604 51.938 60.442 51.9164 60.7222C51.8947 61.0024 51.8142 61.2747 51.6803 61.521C51.9489 61.8116 52.1318 62.1721 52.2083 62.562C52.2594 65.9282 51.0051 69.1813 48.7131 71.6263C46.4549 74.2433 43.7981 76.4803 40.8427 78.2531C38.697 79.7471 36.2638 80.7679 33.7014 81.2491ZM14.8425 65.3042C15.3706 65.3042 15.5717 65.4311 15.6975 65.6088C15.8232 65.7866 15.8483 66.0405 15.5466 66.3959C15.2449 66.7514 14.7168 67.3861 14.3145 67.8686C13.7701 68.4349 13.2739 69.0464 12.8309 69.6966L13.4595 69.5697C16.1501 68.7572 24.9258 62.7651 25.479 61.3433C25.8559 59.9109 25.9329 58.4149 25.7053 56.9508C24.8755 56.7985 23.1907 56.57 21.4054 56.3415C19.8155 56.109 18.2086 56.0155 16.6027 56.0622C16.8506 56.3765 17.1195 56.6734 17.4073 56.9508C18.036 57.5602 18.388 57.941 18.3377 58.3219C18.3248 58.3997 18.2957 58.4739 18.2524 58.5395C18.2091 58.6052 18.1524 58.6608 18.0863 58.7027C17.7845 58.8805 16.9296 58.7027 13.6859 58.4234C11.9605 58.1785 10.2226 58.0344 8.4808 57.9918C9.41175 59.0844 10.4572 60.0719 11.5988 60.9371C11.6583 60.9778 11.7029 61.0371 11.7256 61.106C11.7483 61.1748 11.7479 61.2493 11.7245 61.3179C11.7067 61.3822 11.6713 61.4401 11.6224 61.485C11.5734 61.5299 11.513 61.56 11.4479 61.5718C8.64476 61.9617 5.8659 62.5127 3.12487 63.2222C3.37632 63.3999 3.85408 63.6538 4.15582 63.8315C5.13648 64.3393 5.73997 64.6694 5.84055 65.101C5.87195 65.1686 5.88823 65.2422 5.88823 65.3168C5.88823 65.3915 5.87195 65.4651 5.84055 65.5327C5.66453 65.7866 5.16163 66.0405 3.87922 66.6244C3.2003 66.9545 2.39566 67.3354 1.79217 67.6654C1.38622 67.8789 1.03368 68.1828 0.761218 68.5541C1.54399 68.5886 2.32675 68.4855 3.07458 68.2494C4.38213 67.9447 6.04171 67.5131 7.651 67.0815C9.2603 66.6498 11.2971 66.1166 12.68 65.812C13.3872 65.6052 14.1107 65.4608 14.8425 65.3803V65.3042ZM43.1309 61.9781C45.4877 62.7294 48.0298 62.6307 50.3224 61.6988C49.0749 61.5053 47.8115 61.4372 46.5506 61.4956C45.4012 61.4848 44.2541 61.604 43.1309 61.8511V61.9781ZM33.4248 60.607C32.7284 60.874 32.119 61.3311 31.6647 61.9273L33.4248 61.3433L33.9277 61.1656C33.8605 60.9858 33.7578 60.8217 33.626 60.6832C33.626 60.6832 33.5254 60.48 33.4248 60.48V60.607ZM46.7769 45.1698C47.4307 46.9979 48.2354 49.1307 49.1406 51.3142C50.2721 54.1071 51.3534 56.5192 52.2335 58.2711C53.717 61.1656 54.2702 61.4449 54.3457 61.4702C57.8377 61.2273 61.2764 60.4747 64.5546 59.2359C69.2302 57.9058 73.7954 56.2079 78.2085 54.1579C81.6193 52.2461 84.5589 49.5816 86.8081 46.3631C89.1959 43.2636 90.9095 39.6905 91.8371 35.877C91.9989 35.1513 92.0916 34.4116 92.1137 33.6681C91.5821 33.7028 91.0513 33.5886 90.5799 33.338C90.3017 35.1584 89.9325 36.9634 89.4735 38.7461C88.4967 41.9155 86.8397 44.8284 84.6205 47.2772C83.2128 48.9402 81.5789 50.3934 79.7674 51.5935C79.6933 51.702 79.5961 51.7924 79.483 51.8583C79.37 51.9242 79.2438 51.9638 79.1137 51.9743C78.531 52.2947 77.9155 52.5501 77.2781 52.7361L75.015 53.32C72.9531 53.8532 70.162 54.5895 67.4714 55.3766C67.22 56.443 65.5353 57.5348 64.102 58.2711C62.8596 58.9358 61.5538 59.4717 60.2045 59.8707C58.7628 60.3108 57.8073 60.3615 57.3379 60.023C57.2227 59.9415 57.1315 59.83 57.0739 59.7004C57.0164 59.5707 56.9946 59.4278 57.011 59.2867C57.011 58.6012 57.9414 57.6363 63.9008 55.7321L66.7925 54.8434C66.1227 51.649 65.1458 48.5281 63.8757 45.5253C62.5191 41.5229 60.6057 37.7357 58.1929 34.2775C55.7305 31.2982 52.2991 29.3003 48.512 28.6409H48.2605C46.9466 28.3367 45.7012 27.7854 44.5893 27.0159C44.2121 27.5491 43.7344 28.2092 43.156 28.9709C42.5777 29.7326 42.2005 30.1643 41.7479 30.7228H42.0496C44.1833 30.8171 46.3211 30.7151 48.4365 30.4182C50.4555 30.0901 52.5256 30.3912 54.3708 31.2814C56.0673 32.0726 57.4936 33.3538 58.4695 34.963C59.3229 36.6748 59.5372 38.6397 59.0729 40.498C58.8615 41.7075 58.4173 42.8634 57.7654 43.9003C58.0279 44.0428 58.28 44.204 58.5198 44.3827L59.6764 45.1698C61.4869 46.3631 62.6687 47.1756 62.6687 48.0897C62.6518 48.3233 62.5759 48.5486 62.4482 48.7442C62.3206 48.9397 62.1454 49.099 61.9395 49.2068C58.8656 50.4425 55.5028 50.7512 52.2586 50.0955C51.9673 50.0331 51.6929 49.9077 51.4541 49.728C51.2154 49.5483 51.018 49.3186 50.8756 49.0545C50.524 47.8012 50.524 46.4739 50.8756 45.2206C51.0509 44.5324 51.1355 43.8238 51.1271 43.1132C51.1271 42.6308 51.0013 41.8945 50.9008 41.1328C50.8002 40.3711 50.775 40.1933 50.7247 39.7363C50.0241 40.0945 49.2802 40.3591 48.512 40.5234H47.9336L46.2992 40.625C46.7239 41.4294 47.0531 42.2816 47.2799 43.164C47.3225 43.4952 47.3001 43.8316 47.2138 44.154C47.1275 44.4764 46.979 44.7785 46.7769 45.0429V45.1698ZM66.3902 55.6305L63.8757 56.3668C57.8408 58.2965 57.4637 59.1598 57.4385 59.3121C58.1985 59.4664 58.9869 59.3868 59.7016 59.0836C61.0027 58.6839 62.2652 58.1655 63.4734 57.5348C64.2528 57.1307 64.9935 56.6548 65.6861 56.1129C65.9429 55.9374 66.1791 55.7329 66.3902 55.5036V55.6305ZM44.6647 26.0765L44.8156 26.2034C45.8551 26.9376 47.0246 27.4634 48.2605 27.7522H48.4868C52.419 28.45 55.981 30.5271 58.5449 33.6173C59.7252 35.1154 60.7215 36.7523 61.512 38.4922C62.4424 40.3711 63.4231 42.6308 64.3534 45.0682C65.5931 48.1022 66.5772 51.2363 67.2954 54.4372C70.0111 53.6755 72.7268 52.9646 74.839 52.4314L77.1021 51.8474C77.4919 51.74 77.8708 51.5955 78.2336 51.4158C76.9763 50.3748 75.7191 47.0233 73.9338 41.996C73.0165 39.2347 71.8464 36.5656 70.4386 34.0236C69.1944 32.2218 67.635 30.6644 65.837 29.4279C64.8388 28.5629 63.6339 27.9764 62.3418 27.7268H62.1155L62.8447 28.0569C64.0014 28.5901 65.1581 29.1233 65.5604 30.342C65.7113 30.7736 65.837 31.3322 65.5604 31.6369C65.2838 31.9416 64.6049 31.6369 63.9763 31.4845C63.7673 31.378 63.5483 31.293 63.3225 31.2306L63.8003 31.84C64.6552 32.9318 65.8119 34.379 65.0826 35.3692C64.9066 35.6231 64.5043 35.9024 63.6997 35.7247C61.7467 35.068 60.0542 33.7952 58.8718 32.0939C59.074 30.8926 59.5954 29.7694 60.3805 28.844C60.5765 28.5254 60.804 28.2277 61.0594 27.9553C60.5788 27.6602 60.1532 27.282 59.8022 26.8382C59.0437 25.5903 58.4439 24.251 58.0168 22.8519C57.866 22.3949 57.69 21.8871 57.4888 21.3793C57.0597 21.273 56.6222 21.2051 56.1812 21.1762H53.4153C52.7615 21.1762 52.6609 21.3539 52.6609 21.3539C52.6609 21.3539 52.6609 21.7094 53.2141 23.3597C53.5587 24.2416 53.9794 25.0912 54.4714 25.8987C54.6474 26.1526 55.452 25.7718 56.0304 25.5179C56.6087 25.264 57.5139 24.8577 58.042 25.0862C58.1571 25.1242 58.2611 25.1904 58.3445 25.2791C58.4279 25.3678 58.4881 25.476 58.5198 25.594C58.5758 25.7265 58.6047 25.869 58.6047 26.013C58.6047 26.157 58.5758 26.2995 58.5198 26.4319C58.2683 26.9905 57.5391 27.2444 56.835 27.4729C56.436 27.578 56.0605 27.759 55.7286 28.0061C55.7286 28.0061 55.7286 28.1838 56.0807 28.7932C56.4541 29.3075 56.8571 29.7992 57.2876 30.2658C57.9163 31.0021 58.2683 31.383 58.3186 31.6877C58.3429 31.7985 58.3254 31.9145 58.2696 32.0131C58.2138 32.1116 58.1237 32.1857 58.0168 32.2209C57.2876 32.4748 54.8234 30.8244 53.4907 28.0569C53.2141 27.4221 52.9124 26.8128 52.6106 26.2034C51.3282 23.6644 50.2218 21.4301 50.7499 20.2113C51.2779 18.9926 54.4965 18.6118 55.7789 18.6625L54.1445 17.7739C52.1847 16.6317 50.5349 15.0182 49.3418 13.0767L48.9646 12.5181H48.8389C48.857 13.7019 48.4954 14.8598 47.8079 15.8189C47.6717 15.966 47.5021 16.0775 47.3138 16.1438C47.1254 16.2102 46.9239 16.2293 46.7267 16.1997C46.5644 16.1867 46.4134 16.1106 46.3055 15.9875C46.1976 15.8644 46.1413 15.7038 46.1483 15.5396C46.3447 14.6601 46.7903 13.8573 47.4307 13.2291C47.657 12.9498 47.9336 12.6451 48.1851 12.3912L47.8079 12.442C47.4056 12.442 46.7267 13.1529 45.5951 15.2095L45.7963 15.6411C46.0478 16.2593 46.0478 16.9526 45.7963 17.5708C44.5698 19.6988 43.2179 21.7507 41.7479 23.7152L40.9935 25.4925C40.1889 27.4729 39.5603 28.9963 39.0574 30.0881C39.5887 30.2028 40.126 30.2875 40.6667 30.342C41.7917 29.0177 42.8492 27.6364 43.835 26.2034C43.5318 25.9437 43.2824 25.6261 43.1011 25.2688C42.9199 24.9115 42.8104 24.5216 42.7789 24.1214C42.7789 23.5882 42.9297 23.2582 43.2063 23.1058C43.3333 23.0217 43.4819 22.9769 43.6338 22.9769C43.7857 22.9769 43.9343 23.0217 44.0613 23.1058C44.3608 23.3039 44.6101 23.5702 44.7892 23.8833C44.9682 24.1964 45.072 24.5475 45.0922 24.9085C45.0403 25.3258 44.894 25.7254 44.6647 26.0765ZM27.7169 36.2325C26.3932 36.2342 25.0722 36.3531 23.7691 36.588C16.6027 37.7813 14.7922 38.9492 14.5156 39.6855C14.5156 39.6855 14.5156 40.0664 14.8174 40.5488C15.9446 41.3743 17.243 41.93 18.6143 42.1738C21.3136 42.6003 23.826 43.829 25.831 45.703L26.8619 46.9725C27.859 48.1667 28.7588 49.4404 29.5525 50.781C30.1289 50.5631 30.7164 50.3767 31.3126 50.2224C33.0092 49.8125 34.7481 49.6079 36.4926 49.6131C38.3248 49.5658 40.1223 49.0968 41.7479 48.242C42.9829 47.6364 44.1329 46.868 45.1677 45.9569C44.4927 44.3068 43.6941 42.711 42.7789 41.1836C42.1669 41.4496 41.5852 41.7816 41.0438 42.1738C41.0321 42.884 40.9046 43.5874 40.6667 44.2558C40.2037 45.7621 39.3327 47.1077 38.1521 48.1404C36.92 49.1561 35.9394 48.9275 35.4616 48.4451C34.9838 47.9627 34.9084 46.5663 36.0148 45.3729C37.1648 44.2114 38.4097 43.1497 39.7363 42.1992L40.2895 41.8183C40.2952 41.4037 40.2002 40.994 40.0129 40.625C38.6353 39.1301 36.9052 38.012 34.9838 37.375C32.6477 36.5183 30.177 36.0968 27.6917 36.1309L27.7169 36.2325ZM76.6243 24.8577C73.1538 24.8331 69.6903 25.1735 66.2896 25.8733C65.8119 26.0003 65.6861 26.1272 65.6861 26.178C65.6861 26.2288 65.6861 26.3557 66.2393 26.8635C66.7925 27.3713 67.3457 27.7522 68.1001 28.3108C70.4865 29.8827 72.5944 31.8482 74.3361 34.1251C76.1885 37.1369 77.6425 40.3805 78.6611 43.7733C79.408 45.9069 79.84 48.1397 79.9435 50.4002C81.4327 49.3201 82.7915 48.0674 83.9918 46.6678C86.1308 44.3019 87.7352 41.4951 88.694 38.4414C89.1837 36.5617 89.5615 34.654 89.8255 32.7287C89.5525 32.4781 89.3305 32.1763 89.1718 31.84C88.7694 30.9767 88.9203 30.1135 89.4986 29.8342C89.6051 29.7576 89.7326 29.7165 89.8632 29.7165C89.9939 29.7165 90.1214 29.7576 90.2278 29.8342C90.5044 30.0373 90.7559 30.5197 90.5547 32.3732C90.9909 32.6477 91.4999 32.7806 92.0132 32.754C91.9737 31.3073 91.4609 29.9146 90.5547 28.7932C88.0402 25.7718 82.2317 25.0101 77.9821 24.8831L76.6243 24.8577ZM51.0768 39.1016C51.0768 39.6855 51.2276 40.2441 51.2779 40.7519C51.3282 41.2597 51.4791 42.2499 51.5294 42.7577C51.53 43.5265 51.4457 44.293 51.2779 45.0429C50.951 46.1702 50.951 47.3686 51.2779 48.4959C51.2779 48.7498 51.7054 48.9529 52.2083 49.1053C53.8564 49.4938 55.5614 49.5712 57.2374 49.3338C58.6317 49.2122 59.9937 48.8426 61.2606 48.242C61.5372 48.0389 61.688 47.8612 61.688 47.6834C61.688 47.5057 60.3805 46.2616 58.9975 45.3475L57.866 44.662C57.5612 44.4453 57.2419 44.2502 56.9105 44.078C56.0994 44.3722 55.2544 44.56 54.3959 44.6366C52.1329 44.8397 51.8814 44.4589 51.8814 44.3065C51.8814 44.1542 51.6048 43.8749 52.1077 43.4941C52.828 42.9543 53.6916 42.6442 54.5877 42.6035C55.4837 42.5628 56.3714 42.7933 57.1368 43.2656C57.7871 42.298 58.2166 41.1966 58.394 40.041C58.8224 38.3412 58.6444 36.5434 57.8911 34.963C56.9726 33.4771 55.6442 32.2945 54.069 31.5607C52.3516 30.7221 50.42 30.4384 48.5371 30.7482C46.3807 31.0582 44.2 31.1602 42.0245 31.0529H41.1947C40.6667 31.6623 40.214 32.1447 39.9123 32.4494C39.635 32.7419 39.4204 33.0891 39.282 33.4692C39.1435 33.8492 39.0842 34.254 39.1077 34.6583C39.1247 35.4172 39.2913 36.1651 39.5979 36.8583C39.9044 37.5514 40.3447 38.1759 40.893 38.6953C41.9655 39.6032 43.3437 40.058 44.7402 39.9648C44.7402 39.7363 44.7402 39.0254 45.1677 38.9492C45.5951 38.8731 45.6454 38.9492 46.2489 39.9141L47.833 39.6602H48.4114C49.1822 39.4924 49.9267 39.2191 50.6242 38.8477C50.4113 37.7185 50.4543 36.5554 50.7499 35.4454C51.0988 34.8554 51.5974 34.3702 52.1942 34.0399C52.791 33.7096 53.4642 33.5462 54.1445 33.5665C54.4662 33.6265 54.7564 33.7998 54.9636 34.0555C55.1708 34.3111 55.2815 34.6327 55.276 34.963C55.276 36.3594 53.8679 37.6797 52.5855 38.543L51.0768 39.1016ZM40.2643 42.6816C38.9187 43.6173 37.6642 44.68 36.5177 45.8553C35.7131 46.7186 35.6376 47.5819 35.9896 47.9627C36.3417 48.3436 36.9955 48.1912 37.7247 47.5819C38.7828 46.6399 39.5581 45.4172 39.9626 44.0526C40.1056 43.6062 40.2067 43.1472 40.2643 42.6816ZM43.2063 40.625C43.4178 40.8424 43.5958 41.0906 43.7344 41.3613C43.9858 41.8183 44.3127 42.4277 44.715 43.2402L45.6957 45.3475L45.8969 45.0936C45.3813 43.6291 44.9448 42.1373 44.5893 40.625C44.1296 40.6749 43.666 40.6749 43.2063 40.625ZM45.2934 40.625C45.5197 41.4121 45.922 42.6562 46.4501 44.1796C46.5713 43.9366 46.6152 43.6617 46.5758 43.3925C46.3632 42.421 46.025 41.482 45.57 40.5996L45.2934 40.625ZM52.4598 43.9511C53.0864 44.0232 53.7191 44.0232 54.3457 43.9511C54.8874 43.9052 55.4252 43.8203 55.9549 43.6972C55.4005 43.4301 54.7868 43.3131 54.1741 43.3576C53.5614 43.4021 52.9706 43.6066 52.4598 43.9511ZM53.5159 34.0743C53.0101 34.1205 52.5213 34.2815 52.0859 34.5453C51.6504 34.8091 51.2797 35.1689 51.0013 35.5977C50.8082 36.5014 50.8082 37.4362 51.0013 38.3399L51.9066 37.8067C53.4907 36.7403 54.4211 35.6739 54.2702 34.8868C54.1193 34.0997 53.9182 34.1505 53.717 34.0997L53.5159 34.0743ZM61.6126 28.3108C61.4115 28.5393 61.16 28.844 60.8834 29.2248C60.251 30.0578 59.8049 31.0193 59.5759 32.0431C60.0174 32.6814 60.5714 33.2322 61.2103 33.6681C62.0102 34.3355 62.9332 34.836 63.926 35.1407C64.1523 35.1407 64.454 35.1407 64.5546 35.1407C64.6552 35.1407 63.9008 33.2872 63.2722 32.4748C62.6436 31.6623 62.3418 31.2814 62.5178 30.926C62.5163 30.8169 62.5535 30.7108 62.6227 30.627C62.6919 30.5432 62.7885 30.4871 62.895 30.4689C63.342 30.4982 63.7783 30.6191 64.1774 30.8244C64.446 30.9403 64.7235 31.0337 65.0072 31.1037C65.0377 30.9273 65.0377 30.7469 65.0072 30.5705C64.7055 29.6311 63.75 29.1994 62.6687 28.717L61.6126 28.3108ZM40.4152 10.5377C39.0635 10.486 37.7237 10.811 36.5428 11.4771C34.4272 13.6907 32.7236 16.2709 31.5138 19.0942C30.0156 21.5662 29.0715 24.3394 28.7478 27.219C28.9993 28.4123 31.0109 30.0119 33.7769 31.0783C35.6376 31.84 36.9955 31.9923 37.3726 31.7131C37.6589 31.3426 37.8723 30.9203 38.0013 30.4689C37.676 30.3566 37.3885 30.1543 37.1715 29.885C37.086 29.7528 37.0405 29.5985 37.0405 29.4406C37.0405 29.2828 37.086 29.1284 37.1715 28.9963C37.5487 28.2854 38.8562 26.4573 40.3901 24.2738L41.069 23.2835C42.4268 20.0336 43.5835 17.1899 44.7905 15.1587C44.6345 14.9387 44.4576 14.7347 44.2624 14.5493C43.6087 13.9908 42.8794 13.7623 42.4771 14.0415C42.0748 14.3208 42.0496 14.4478 41.0438 16.352C40.3649 17.6723 39.5351 19.3481 38.6802 21.1254C37.8252 22.9027 36.7691 25.0862 35.9394 26.6096C34.6318 29.1487 34.2295 29.3772 33.9277 29.4533C33.8261 29.4825 33.7179 29.4785 33.6186 29.442C33.5193 29.4056 33.4339 29.3385 33.3745 29.2502C33.1985 29.0217 33.0979 28.5647 33.5506 26.9905C33.9248 25.6639 34.3696 24.3586 34.8833 23.0804C36.1308 19.9678 37.6718 16.9834 39.4848 14.1685C40.4068 12.8482 41.245 11.7564 41.9994 10.8932C41.9994 10.8932 41.9994 10.6901 41.9994 10.6139C41.4725 10.5685 40.9432 10.5601 40.4152 10.5885V10.5377ZM89.8255 30.4689C89.6244 30.4689 89.5741 31.0021 89.8255 31.5353V31.7638C89.9089 31.3363 89.9089 30.8965 89.8255 30.4689ZM55.0749 19.1703C53.4907 19.1703 51.6803 19.475 51.3282 20.3129C50.9762 21.1508 52.0826 23.5121 53.1638 25.721C53.4656 26.3304 53.7925 26.9397 54.069 27.5745C54.7499 29.0509 55.8422 30.295 57.2122 31.1545C57.0581 30.9483 56.8901 30.7532 56.7093 30.5705C55.6281 29.3264 54.4965 28.0315 55.1754 27.346C55.5857 27.0047 56.0671 26.7616 56.5836 26.635C57.0865 26.4573 57.69 26.2542 57.8157 25.9749C57.8365 25.9268 57.8472 25.875 57.8472 25.8225C57.8472 25.7701 57.8365 25.7183 57.8157 25.6702C57.5391 25.6702 56.8602 25.8733 56.3573 26.1018C55.452 26.5081 54.4211 26.9651 53.8427 26.1018C53.3288 25.2947 52.883 24.4454 52.5101 23.5628C51.7054 21.5824 51.9066 21.1508 52.0071 21.0238C52.334 20.3891 53.4656 20.4145 55.0497 20.5668H56.1058C56.4693 20.5757 56.8312 20.6182 57.1871 20.6937C56.835 19.9067 56.483 19.2973 56.1561 19.2719L55.0749 19.1703ZM39.862 26.2796C38.8562 27.7014 38.0264 28.8186 37.7498 29.4026C37.7498 29.4026 37.7498 29.5295 37.7498 29.5549C37.8964 29.7248 38.0885 29.8482 38.303 29.9104V29.6818C38.8311 28.7424 39.334 27.5491 39.862 26.2796ZM43.5584 23.7406C43.5298 23.8744 43.5298 24.0129 43.5584 24.1468C43.5848 24.6982 43.8081 25.2214 44.187 25.6194C44.3163 25.423 44.4178 25.2094 44.4887 24.9847C44.4305 24.6161 44.2538 24.277 43.9858 24.0199C43.8733 23.8811 43.7255 23.7758 43.5584 23.7152V23.7406ZM57.9917 20.8207C58.3321 20.8884 58.6823 20.8884 59.0227 20.8207C59.2 20.57 59.3596 20.3069 59.5004 20.0336C59.0478 19.8559 58.218 19.5512 57.1368 19.0688C57.4931 19.6144 57.7803 20.2029 57.9917 20.8207ZM45.1425 15.9966C44.9665 16.3013 44.8156 16.6313 44.6396 16.9868C44.0864 18.104 43.5081 19.3735 42.9549 20.643C43.7495 19.5726 44.464 18.4438 45.0922 17.2661C45.2588 16.8626 45.2766 16.4122 45.1425 15.9966ZM55.8041 10.1569C55.5479 11.588 55.8546 13.0637 56.659 14.2701C57.3461 15.3513 58.1942 16.319 59.1735 17.1391C59.5322 17.5758 59.9818 17.9273 60.4903 18.1685C60.9988 18.4097 61.5537 18.5348 62.1155 18.5348C62.6773 18.5348 63.2323 18.4097 63.7408 18.1685C64.2493 17.9273 64.6989 17.5758 65.0575 17.1391C66.3841 15.6548 67.0796 13.7032 66.9937 11.7057C67.0636 10.16 66.8679 8.61373 66.4153 7.13544C66.4283 7.19395 66.4283 7.25465 66.4153 7.31317C66.3765 7.38235 66.3222 7.44136 66.2567 7.48546C66.1912 7.52956 66.1163 7.55752 66.0382 7.56707C65.5353 7.56707 64.9318 7.18622 63.7751 6.29756C63.1269 5.85483 62.4554 5.44799 61.7635 5.07884H60.9085C59.9647 5.17533 59.0629 5.52206 58.2945 6.08388C57.5262 6.6457 56.9186 7.40264 56.5333 8.27799C56.4779 8.96294 56.2244 9.61633 55.8041 10.1569ZM52.4095 13.6607C52.7615 14.1939 53.189 14.8032 53.5913 15.3364C54.0857 16.1065 54.7165 16.7778 55.452 17.3169V17.1899C55.255 16.5321 54.9315 15.92 54.5001 15.3885C54.0686 14.857 53.5376 14.4165 52.9375 14.0923C52.7704 13.9377 52.5941 13.7935 52.4095 13.6607ZM49.895 12.5181C50.8952 14.2005 52.2415 15.6464 53.8427 16.7583L53.1387 15.895C52.431 14.9742 51.7842 14.0073 51.2025 13.0006C50.7668 12.7949 50.3119 12.6333 49.8447 12.5181H49.895ZM46.7267 15.5142C46.8225 15.5094 46.9159 15.4815 46.999 15.4329C47.0821 15.3843 47.1525 15.3165 47.2044 15.2349C47.6175 14.7017 47.8939 14.0737 48.0091 13.4068L47.8079 13.8638C47.3133 14.3112 46.941 14.8795 46.7267 15.5142ZM42.7789 11.0455C42.8813 11.2408 42.999 11.4276 43.1309 11.6041C43.5835 12.1881 43.9355 12.3404 44.0361 12.315C44.1367 12.2896 44.0361 12.315 44.187 12.0357C44.3379 11.7564 44.187 11.6549 43.7847 11.3248C43.4762 11.1297 43.1355 10.9921 42.7789 10.9186V11.0455ZM48.9394 11.6549C49.5055 11.6836 50.0645 11.7948 50.599 11.9849H50.9259C50.8007 11.4507 50.8007 10.8943 50.9259 10.36C50.3134 9.64983 49.9432 8.75974 49.8698 7.82097C49.8333 7.15222 49.9454 6.48369 50.1977 5.86428C50.45 5.24487 50.8363 4.69025 51.3282 4.24097C51.7168 3.88255 52.1826 3.62027 52.6888 3.47486C53.1951 3.32944 53.7278 3.30487 54.2451 3.40309C54.6532 3.47736 55.0411 3.6379 55.3835 3.87418C55.7258 4.11047 56.0148 4.41717 56.2315 4.77416C57.2157 3.87508 58.5003 3.38527 59.8273 3.40309C60.6286 3.53083 61.3924 3.83415 62.0652 4.29175C62.7721 4.41995 63.4633 4.62424 64.1271 4.90111C64.72 5.15816 65.2777 5.49095 65.7867 5.89132C64.9098 4.58128 63.8017 3.44523 62.5178 2.53983C61.5713 1.74313 60.4497 1.18681 59.2467 0.917362C58.0437 0.647915 56.7943 0.673176 55.6029 0.991033C53.5583 1.57147 51.7711 2.83899 50.5366 4.58407C49.3022 6.32916 48.6944 8.44734 48.8137 10.5885C48.8388 10.944 48.864 11.2994 48.864 11.6549H48.9394ZM51.7557 10.2838C51.9176 10.4224 52.0948 10.5416 52.2837 10.6393C52.5781 10.8109 52.912 10.9012 53.2518 10.9012C53.5917 10.9012 53.9256 10.8109 54.2199 10.6393C54.6098 10.4236 54.9521 10.1298 55.2257 9.77601C55.3782 9.16453 55.5887 8.56934 55.8544 7.9987C55.8303 7.88453 55.7662 7.78302 55.6737 7.71299C55.5812 7.64296 55.4667 7.60916 55.3515 7.61785C54.8291 7.4762 54.2754 7.50838 53.7726 7.70963C53.2698 7.91088 52.8447 8.27046 52.5603 8.73501C52.1755 9.1925 51.8772 9.71748 51.6803 10.2838H51.7557ZM42.3262 10.1569H42.5526L43.4578 9.06508C44.4636 7.87175 45.0168 7.21161 45.0168 6.70381C44.5493 6.92159 44.1302 7.23249 43.7847 7.61785C43.2228 8.12617 42.7397 8.71672 42.3514 9.36977C42.2509 9.62083 42.242 9.89978 42.3262 10.1569ZM53.5662 4.19019C52.8859 4.20151 52.2331 4.46336 51.7305 4.9265C51.3148 5.30405 50.9899 5.77251 50.7807 6.29615C50.5715 6.81978 50.4836 7.38474 50.5236 7.94792C50.576 8.6013 50.7923 9.23044 51.1522 9.77601C51.3942 9.26778 51.7076 8.79745 52.0826 8.37955C52.4256 7.88833 52.895 7.50101 53.44 7.25939C53.9851 7.01776 54.5851 6.93101 55.1754 7.00849C55.1191 6.97192 55.0752 6.91874 55.0497 6.85615C54.8485 6.52607 55.0497 6.11983 55.2006 5.99288C55.3267 5.78754 55.4788 5.59975 55.6532 5.4343C55.5038 5.12132 55.2817 4.8494 55.0059 4.64164C54.7301 4.43388 54.4087 4.29643 54.069 4.24097L53.5662 4.19019ZM55.7035 7.11005C55.8993 7.15421 56.0757 7.26108 56.2064 7.41473C56.6279 6.61811 57.2222 5.928 57.945 5.396C58.6679 4.864 59.5004 4.50386 60.3805 4.34253C60.1628 4.2539 59.9345 4.19416 59.7016 4.1648C58.7284 4.15514 57.7805 4.47718 57.011 5.07884C56.812 5.21211 56.6266 5.36522 56.4578 5.53586C56.4704 5.70489 56.4704 5.87463 56.4578 6.04366C56.4594 6.26999 56.386 6.49034 56.2493 6.66974C56.1126 6.84914 55.9205 6.9773 55.7035 7.03388V7.11005ZM63.7751 5.6882L64.0266 5.89132C64.5206 6.33438 65.0701 6.70998 65.661 7.00849L65.4095 6.70381C64.9246 6.25584 64.3731 5.88744 63.7751 5.61203V5.6882Z" fill="#F59B09"/>
</svg>
